<?xml version="1.0" standalone="no"?>
<!DOCTYPE svg PUBLIC "-//W3C//DTD SVG 20010904//EN"
 "http://www.w3.org/TR/2001/REC-SVG-20010904/DTD/svg10.dtd">
<svg version="1.0" xmlns="http://www.w3.org/2000/svg"
 width="841.000000pt" height="841.000000pt" viewBox="0 0 841.000000 841.000000"
 preserveAspectRatio="xMidYMid meet">
<metadata>
Created by potrace 1.14, written by Peter Selinger 2001-2017
</metadata>
<g transform="translate(0.000000,841.000000) scale(0.100000,-0.100000)"
fill="#000000" stroke="none">
<path d="M4117 8404 c-1 -1 -67 -5 -147 -8 -80 -4 -156 -8 -170 -10 -14 -3
-52 -7 -85 -10 -33 -3 -69 -8 -80 -10 -11 -2 -45 -7 -75 -12 -30 -4 -57 -8
-60 -9 -3 -1 -27 -5 -55 -9 -27 -5 -79 -15 -115 -23 -36 -8 -73 -16 -83 -19
-10 -2 -27 -6 -37 -9 -17 -6 -29 -8 -82 -20 -58 -12 -276 -82 -393 -126 -166
-61 -329 -134 -475 -211 -147 -78 -142 -75 -228 -128 -40 -25 -87 -54 -105
-65 -98 -60 -390 -278 -498 -372 -185 -161 -412 -406 -564 -608 -323 -431
-514 -807 -683 -1346 -37 -115 -97 -377 -116 -504 -9 -63 -18 -121 -21 -136
-2 -8 -6 -40 -9 -70 -3 -30 -9 -88 -13 -129 -16 -154 -8 -709 12 -833 2 -12 6
-44 10 -72 5 -42 20 -139 42 -270 10 -65 93 -376 128 -485 109 -336 271 -673
473 -985 74 -114 220 -313 277 -379 6 -6 35 -40 64 -76 128 -152 424 -433 591
-560 25 -19 47 -37 50 -40 15 -19 259 -183 373 -252 157 -95 449 -239 602
-298 61 -23 119 -46 130 -51 63 -27 304 -99 445 -132 287 -68 331 -76 640
-112 64 -7 254 -17 335 -18 134 0 452 22 545 38 14 2 45 7 70 10 58 8 319 61
373 76 23 7 47 13 52 15 68 15 187 49 215 60 19 9 69 27 110 41 198 67 507
205 675 302 39 22 77 44 85 48 42 20 215 133 325 212 236 170 547 452 705 640
25 29 50 59 55 65 25 26 165 206 204 261 104 148 175 261 245 390 6 11 14 22
17 25 11 8 165 329 202 420 64 158 168 469 181 543 3 16 10 43 15 60 6 18 12
43 15 57 3 14 14 70 25 125 11 55 23 123 26 150 4 28 9 53 11 56 1 3 6 37 9
75 3 38 8 76 10 84 26 103 26 785 0 943 -2 12 -6 38 -9 57 -3 19 -7 44 -10 55
-2 11 -7 40 -10 65 -3 25 -8 56 -11 70 -3 14 -8 41 -11 60 -11 67 -73 316
-109 435 -111 364 -302 766 -518 1090 -72 107 -191 272 -207 285 -3 3 -15 17
-26 32 -86 112 -284 322 -423 448 -45 41 -92 84 -104 95 -12 11 -54 45 -92 76
-320 255 -666 463 -1005 604 -63 26 -124 52 -135 56 -133 57 -570 177 -735
203 -19 3 -46 8 -60 11 -13 2 -42 7 -65 10 -154 21 -185 25 -230 30 -106 11
-481 25 -488 19z"/>
</g>
</svg>
