<svg width="18419" height="5774" viewBox="0 0 18419 5774" fill="none" xmlns="http://www.w3.org/2000/svg">
<path fill-rule="evenodd" clip-rule="evenodd" d="M18419 3573.61L18419 2686.47L18419 2294.65L18419 0.00522582L1.30967e-10 0.00361558L-0.000200605 2294.65L-0.000234858 2686.47L-0.000327624 3747.58C400.607 3745.34 848.029 3920.86 1293.33 4095.55C1701.43 4255.64 2107.74 4415.04 2474.61 4436.28C3027.65 4468.29 3582.18 4163.5 4136.57 3858.79C4629.23 3588.01 5121.78 3317.28 5613.08 3283.03C6476.37 3222.83 7177.59 3643.51 7879.19 4064.42C8577.81 4483.54 9276.81 4902.89 10136.6 4847.91C10964.7 4794.95 11467.6 4350.4 11967 3909C12454.8 3477.88 12939.2 3049.75 13719.7 2992.44C14356.5 2945.69 14902.6 3213.75 15444.7 3479.86C16027.9 3766.07 16606.4 4050.03 17288 3937.59C17843.7 3845.93 18419 3573.61 18419 3573.61Z" fill="url(#paint0_linear_204_2)"/>
<path d="M4744.4 3978.26C4821.43 3762.77 5065.4 3614.69 5226.15 3684.84C5250.5 3695.46 5282.52 3703.15 5281.69 3747.01C5281.01 3785.71 5252.58 3797.62 5229.03 3797.75C5060.64 3800.06 4909.93 3876.81 4764.99 3978.06C4759.9 3981.45 4751.97 3978.25 4744.4 3978.26Z" fill="url(#paint1_linear_204_2)"/>
<path d="M12871.1 3621.57C13359.1 3152.27 14341.7 3059.77 14583.2 3465.26C14459.8 3438.82 14340.2 3408.25 14219.4 3387.88C13868.9 3329.24 13527.8 3402.63 13189.5 3530.74L12917.7 3633.8C12900.5 3640 12879.4 3667.99 12871.1 3621.57Z" fill="url(#paint2_linear_204_2)"/>
<path d="M15334 3954.41C15598.6 3897.41 15848.9 4003.69 16098.1 4115.56C16222.1 4171.49 16346.6 4225.93 16468.7 4286.58C16876.9 4489.3 17244.2 4403.8 17601.1 4239.74C17694.3 4196.95 17786.6 4152.6 17899.7 4099.18C17864.7 4198.46 17795.1 4223.46 17742.2 4264.07C17524.3 4432.26 17285 4556.48 17005.9 4603.05C16641 4663.41 16324.7 4462.61 16001.7 4295.92C15796.6 4190.05 15609 4033.08 15380 3995.2C15349.5 3999.72 15322.7 4001.33 15334 3954.41Z" fill="url(#paint3_linear_204_2)"/>
<path d="M7041.97 3154.2C7163.21 3158.61 7279.71 3198.82 7395.73 3242.15C7475.2 3268.48 7546.87 3327.66 7601.02 3411.68C7611.34 3429.72 7628.14 3449.12 7615.64 3474.01C7601.62 3502.87 7579.51 3493.08 7563.86 3477.65C7405.13 3320.23 7221.55 3247.31 7041.97 3154.2Z" fill="#FCFAFC"/>
<path d="M13041.5 4301.55C13139.9 4157.91 13244.4 4028.72 13407.8 4041.22C13453.8 4044.9 13493.9 4058.38 13495.2 4132.66C13496.5 4211.84 13452.9 4224.09 13408.4 4217.47C13280 4198.84 13161.5 4240.76 13041.5 4301.55Z" fill="url(#paint4_linear_204_2)"/>
<path d="M18408.1 2952.01C18416.4 2959.25 18409.7 2972.01 18405.6 2983.4C18085.8 3287.87 17751.2 3522 17395.6 3663.11C17379.2 3667.6 17381.4 3659.26 17390.3 3645.48C17737.4 3450.86 18074.8 3209.26 18408.1 2952.01Z" fill="#FCF9FC"/>
<path d="M1824.16 3891.25C1845.2 3902.5 1866.72 3912.44 1887.17 3925.31C1983 3986.4 2091.04 4001.44 2193.87 3968.01C2268.29 3945.69 2308.47 3978.44 2324.64 4066.77C2338.07 4139.95 2320 4173.19 2262.35 4171.24C2169.62 4168.14 2084.03 4122.34 2000.81 4077.2C1930.08 4038.38 1865.49 3981.16 1810.61 3908.69C1808.35 3894.02 1811.2 3885.71 1824.16 3891.25Z" fill="#FEFDFE"/>
<path d="M11760.4 4693.13C11972.9 4397.99 12174.6 4086.94 12451.5 3886.54C12464.3 3883.21 12468.9 3890.42 12466.9 3906.52C12264.6 4145.22 12062.3 4383.8 11859.8 4622.26C11835 4651.49 11808.5 4678.69 11782.9 4706.63C11770.2 4717.37 11760.7 4718.85 11760.4 4693.13Z" fill="url(#paint5_linear_204_2)"/>
<path d="M4322.79 3337.65C4218.88 3424.81 4113.91 3509.89 3997.09 3565.25C3963.29 3581.73 3915.34 3611.68 3899.61 3542.84C3886.08 3483.29 3918.18 3443.79 3967.45 3432.19C4088.68 3401.08 4208.23 3358.79 4325.27 3305.6C4326.96 3307.72 4328.25 3310.35 4329.06 3313.29C4329.87 3316.22 4330.17 3319.37 4329.92 3322.48C4329.68 3325.6 4328.91 3328.59 4327.68 3331.23C4326.44 3333.86 4324.76 3336.06 4322.79 3337.65Z" fill="#FAF6FA"/>
<path d="M5940.04 2445.35C6088.49 2552.06 6230.25 2629.94 6393.39 2606.57C6421.47 2602.51 6470.04 2608.69 6469.47 2562.1C6468.9 2515.51 6420.45 2532.28 6393.05 2533.54C6264.67 2537.07 6142.59 2501.28 6022.34 2451.61C5985.09 2435.65 5984.99 2436.01 5940.04 2445.35Z" fill="#FCF9FC"/>
<path fill-rule="evenodd" clip-rule="evenodd" d="M9182.58 4482.37C8944.89 4375.1 8724.13 4221.27 8506.94 4057.67L8506.94 4057.67C8498.41 4042.83 8486.3 4032.65 8472.79 4028.95L8472.84 4028.89L8437.97 3999.94C8437.65 3999.76 8437.33 3999.59 8437.02 3999.43C8435.85 3998.09 8434.69 3996.73 8433.53 3995.37C8422.97 3982.96 8412.3 3970.44 8395.09 3975.87C8397.72 3985.13 8401.86 3993.44 8407.2 4000.16C8412.53 4006.87 8418.93 4011.81 8425.89 4014.59L8426.31 4014.06C8426.34 4014.24 8426.37 4014.41 8426.4 4014.59L8459.84 4044L8459.86 4044.24L8494.21 4073.37L8494.36 4073.19C8494.39 4073.48 8494.43 4073.77 8494.47 4074.07C8585.87 4161.04 8683.05 4236.2 8780.15 4311.31C8804.57 4330.19 8828.97 4349.07 8853.28 4368.13C9134.74 4588.76 9432.6 4721.14 9766.48 4667.59C9772.01 4666.7 9777.54 4665.83 9783.08 4664.97C9833.61 4657.05 9884.3 4649.11 9931.89 4618.93C9805.02 4586.32 9676.32 4568.81 9547.25 4566.61C9423.16 4565.87 9299.99 4537.42 9182.58 4482.37Z" fill="white"/>
<path fill-rule="evenodd" clip-rule="evenodd" d="M9802.43 5272.85C9548.91 5231.82 9301.53 5131.29 9055.46 5018.28L9055.46 5018.28L9055.46 5018.28C9043.94 5004.15 9029.99 4996.63 9016.11 4997.06L9016.14 4996.98L8976.05 4975.74C8975.7 4975.64 8975.35 4975.56 8975.01 4975.48C8973.59 4974.35 8972.17 4973.18 8970.75 4972.02C8957.8 4961.39 8944.73 4950.68 8929.28 4962.9C8933.85 4972.66 8939.68 4980.79 8946.32 4986.67C8952.96 4992.54 8960.24 4996.01 8967.58 4996.8L8967.87 4996.04C8967.93 4996.24 8968 4996.43 8968.07 4996.62L9006.88 5018.88L9006.96 5019.15L9046.6 5040.77L9046.7 5040.51L9046.79 5040.82C9046.86 5041.04 9046.93 5041.26 9047 5041.48C9154.54 5109.91 9265.07 5162.73 9375.51 5215.52L9375.51 5215.52L9375.52 5215.52C9403.28 5228.79 9431.04 5242.06 9458.75 5255.57C9779.52 5411.95 10096.8 5461.02 10408 5283.53C10413.2 5280.58 10418.3 5277.67 10423.5 5274.75L10423.5 5274.75C10470.6 5248.11 10517.9 5221.38 10557.4 5170.12C10427.4 5176.59 10299.1 5201.08 10173.7 5243.33C10053.5 5285.53 9928.11 5295.5 9802.43 5272.85Z" fill="url(#paint6_linear_204_2)"/>
<path d="M54.4147 3349.88C302.474 3253.31 547.465 3227.49 790.07 3374.61C917.111 3452.36 1038.58 3538.67 1149.94 3649.71C1208.01 3707.56 1274.94 3743.02 1341.98 3778.32C1354.82 3785.16 1376.87 3785.63 1372.55 3811.91C1369.03 3833.22 1349.82 3833.37 1334.37 3834.15C1254.83 3838.51 1187.67 3793.1 1122.9 3740.84C1036.88 3672.42 953.247 3598.55 866.319 3532.14C674.507 3385.65 462.583 3350.35 245.318 3349.26C181.683 3349.57 118.049 3349.88 54.4147 3349.88Z" fill="#FEFDFE"/>
<path d="M2584.51 4858.46C2716.26 4729.47 2869.59 4718.24 3023.33 4711.23C3099.87 4707.93 3176.43 4703.43 3252.81 4704.03C3508.18 4706 3689.87 4522.56 3851.87 4288.35C3894.2 4227.21 3935.74 4165.32 3986.85 4090.09C3985.87 4170.58 3953.02 4211.42 3931.96 4257.38C3845.25 4447.42 3739.15 4614.31 3597.77 4740.99C3412.85 4906.23 3207.15 4874.47 3003.98 4868.55C2874.95 4864.79 2746.17 4819.76 2616.5 4871.1C2600.96 4884.54 2586.9 4894.7 2584.51 4858.46Z" fill="url(#paint7_linear_204_2)"/>
<path d="M16592.4 3634.23C16376.9 3642.49 16177.3 3555.62 15981.9 3451.71C15674.2 3287.98 15375.2 3098.45 15074.8 2913.43C14696.6 2680.34 14295.8 2587.95 13882.1 2574.18C13713.6 2568.92 13544.7 2567.92 13375.2 2584.7C13443.5 2519.6 13524.2 2509.59 13601.3 2493.31C14143.3 2382.15 14664.3 2461.77 15163.6 2775.48C15450.8 2956.24 15734.7 3145.02 16015.5 3341.8C16198.1 3468.74 16385.7 3572.14 16590.4 3617.21C16595.5 3619.96 16597.5 3623.22 16596.4 3627.22C16595.3 3631.23 16593.8 3634.23 16592.4 3634.23Z" fill="#FFFEFF"/>
<path d="M16998.8 3120C17020.2 3118.39 17041.7 3115.4 17063.1 3115.53C17163.7 3116.78 17261.7 3071.56 17341.2 2987.17C17399.3 2927.71 17443.5 2934.42 17482.8 3002.22C17515.5 3058.36 17509.3 3096.9 17458.8 3126.29C17377.6 3173.59 17290.3 3180.07 17205.2 3185.83C17132.8 3190.34 17060.4 3175.59 16992 3142.41C16985.9 3130.92 16986 3122.18 16998.8 3120Z" fill="#FEFDFE"/>
<path d="M6627.4 3047.01C6522.45 3134.19 6390.91 3127.38 6255.3 3103.26C6041.7 3065.16 5823.12 2999.94 5605.45 2939.44C5331.36 2863.13 5097 2925.48 4884.79 3065.37C4798.44 3122.7 4713.46 3184.1 4634.65 3262.18C4645.23 3176.68 4682.03 3137.62 4714.73 3094.11C4945.89 2791.15 5235.8 2672.62 5599.82 2778.92C5809.33 2840.36 6020.13 2910.41 6232.23 2989.06C6369.8 3039.24 6501.3 3065.79 6620.21 3031.99C6623.78 3032.65 6625.96 3034.92 6626.87 3039.04C6627.77 3043.15 6628.13 3046.48 6627.4 3047.01Z" fill="#FFFEFF"/>
<path fill-rule="evenodd" clip-rule="evenodd" d="M12370.9 2838.66L12358 2853.22C12045.7 3203.99 11732.8 3555.56 11387.2 3848.18C11146 4052.48 10884.7 4213.37 10596.1 4274.33C10411.9 4313.12 10227.2 4314.97 10044.4 4254.01C10042.2 4253.32 10040 4252.77 10037.7 4252.22C10026.2 4249.38 10014.4 4246.47 10005.7 4223.9C10044.6 4218.98 10083.2 4213.76 10121.6 4208.57L10121.6 4208.56C10207.3 4196.98 10292.1 4185.5 10377.1 4177.72C10661.8 4151.49 10920.4 4017.38 11168.2 3845.22C11433.9 3661.13 11679.8 3436.45 11925.7 3211.81C12007 3137.55 12088.3 3063.29 12170.3 2990.51C12216.2 2949.79 12262 2908.37 12307.8 2866.99L12307.8 2866.98L12307.8 2866.95C12324.3 2852.02 12340.8 2837.1 12357.3 2822.22C12357.6 2822.09 12357.9 2821.97 12358.2 2821.86L12419.2 2761.52L12419.2 2761.45L12467.8 2712.5C12466.5 2726.73 12462.5 2740.22 12456.1 2751.56C12449.7 2762.85 12441.3 2771.59 12431.6 2776.89C12431.6 2776.91 12431.6 2776.94 12431.6 2776.97L12370.9 2838.66L12370.9 2838.66Z" fill="white"/>
<path d="M936.838 4369.27C1281.5 4348 1577.84 4471.97 1809.57 4840.44C1654.81 4740.82 1525.07 4632.53 1383.23 4552.73C1241.39 4472.93 1086.15 4431.54 936.838 4369.27Z" fill="url(#paint8_linear_204_2)"/>
<defs>
<linearGradient id="paint0_linear_204_2" x1="10044.9" y1="8428.69" x2="9939.14" y2="-2830.01" gradientUnits="userSpaceOnUse">
<stop stop-color="#B28DFF"/>
<stop offset="0.333333" stop-color="#C5A3FF"/>
<stop offset="0.547907" stop-color="#D7B8FF" stop-opacity="0.63"/>
<stop offset="0.735107" stop-color="#DDC6FF" stop-opacity="0.05"/>
<stop offset="1" stop-color="white" stop-opacity="0"/>
</linearGradient>
<linearGradient id="paint1_linear_204_2" x1="4622.88" y1="4851.85" x2="5284.52" y2="4835.99" gradientUnits="userSpaceOnUse">
<stop stop-color="#B28DFF"/>
<stop offset="0.333333" stop-color="#C5A3FF"/>
<stop offset="0.541667" stop-color="#D7B8FF"/>
<stop offset="0.760417" stop-color="#D1B1FF"/>
<stop offset="1" stop-color="#BC98FF"/>
</linearGradient>
<linearGradient id="paint2_linear_204_2" x1="12850.7" y1="4729.72" x2="14775.3" y2="3734.34" gradientUnits="userSpaceOnUse">
<stop stop-color="#B28DFF"/>
<stop offset="0.333333" stop-color="#C5A3FF"/>
<stop offset="0.541667" stop-color="#D7B8FF"/>
<stop offset="0.760417" stop-color="#D1B1FF"/>
<stop offset="1" stop-color="#BC98FF"/>
</linearGradient>
<linearGradient id="paint3_linear_204_2" x1="14840" y1="6017.74" x2="17946.3" y2="5631.11" gradientUnits="userSpaceOnUse">
<stop stop-color="#B28DFF"/>
<stop offset="0.333333" stop-color="#C5A3FF"/>
<stop offset="0.541667" stop-color="#D7B8FF"/>
<stop offset="0.760417" stop-color="#D1B1FF"/>
<stop offset="1" stop-color="#BC98FF"/>
</linearGradient>
<linearGradient id="paint4_linear_204_2" x1="13006.8" y1="4909.87" x2="13587.8" y2="4820.77" gradientUnits="userSpaceOnUse">
<stop stop-color="#B28DFF"/>
<stop offset="0.333333" stop-color="#C5A3FF"/>
<stop offset="0.541667" stop-color="#D7B8FF"/>
<stop offset="0.760417" stop-color="#D1B1FF"/>
<stop offset="1" stop-color="#BC98FF"/>
</linearGradient>
<linearGradient id="paint5_linear_204_2" x1="11706.4" y1="6642.92" x2="12627.6" y2="6573.51" gradientUnits="userSpaceOnUse">
<stop stop-color="#B28DFF"/>
<stop offset="0.333333" stop-color="#C5A3FF"/>
<stop offset="0.541667" stop-color="#D7B8FF"/>
<stop offset="0.760417" stop-color="#D1B1FF"/>
<stop offset="1" stop-color="#BC98FF"/>
</linearGradient>
<linearGradient id="paint6_linear_204_2" x1="9331.15" y1="7704.1" x2="11269.4" y2="6978.66" gradientUnits="userSpaceOnUse">
<stop stop-color="#B28DFF"/>
<stop offset="0.333333" stop-color="#C5A3FF"/>
<stop offset="0.541667" stop-color="#D7B8FF"/>
<stop offset="0.760417" stop-color="#D1B1FF"/>
<stop offset="1" stop-color="#BC98FF"/>
</linearGradient>
<linearGradient id="paint7_linear_204_2" x1="2689.72" y1="6452.16" x2="4523.15" y2="5756.92" gradientUnits="userSpaceOnUse">
<stop stop-color="#B28DFF"/>
<stop offset="0.333333" stop-color="#C5A3FF"/>
<stop offset="0.541667" stop-color="#D7B8FF"/>
<stop offset="0.760417" stop-color="#D1B1FF"/>
<stop offset="1" stop-color="#BC98FF"/>
</linearGradient>
<linearGradient id="paint8_linear_204_2" x1="882.498" y1="5982.63" x2="1993.41" y2="5798.1" gradientUnits="userSpaceOnUse">
<stop stop-color="#B28DFF"/>
<stop offset="0.333333" stop-color="#C5A3FF"/>
<stop offset="0.541667" stop-color="#D7B8FF"/>
<stop offset="0.760417" stop-color="#D1B1FF"/>
<stop offset="1" stop-color="#BC98FF"/>
</linearGradient>
</defs>
</svg>
