<svg width="21904" height="3959" viewBox="0 0 21904 3959" fill="none" xmlns="http://www.w3.org/2000/svg">
<path fill-rule="evenodd" clip-rule="evenodd" d="M21903.1 2396.13L21903.1 1801.3L21903.1 1538.58L21903.1 0.00370011L1.70985e-10 0.00178527L-0.000134507 1538.58L-0.000157474 1801.3L-0.000219674 2512.78C476.386 2511.28 1008.44 2628.97 1537.98 2746.1C2023.27 2853.44 2506.44 2960.31 2942.7 2974.56C3600.36 2996.02 4259.79 2791.66 4919.04 2587.35C5504.89 2405.78 6090.61 2224.26 6674.84 2201.29C7701.43 2160.93 8535.29 2443 9369.61 2725.22C10200.4 3006.25 11031.6 3287.42 12054 3250.56C13038.7 3215.05 13636.8 2916.98 14230.7 2621.01C14810.7 2331.94 15386.7 2044.88 16315 2006.45C17072.1 1975.11 17721.6 2154.85 18366.3 2333.27C19059.7 2525.18 19747.6 2715.57 20558.2 2640.18C21219 2578.72 21903.1 2396.13 21903.1 2396.13Z" fill="url(#paint0_linear_202_256)"/>
<path d="M5641.85 2667.46C5733.45 2522.97 6023.56 2423.68 6214.73 2470.71C6243.68 2477.83 6281.76 2482.99 6280.77 2512.4C6279.96 2538.35 6246.15 2546.33 6218.15 2546.42C6017.91 2547.97 5838.7 2599.43 5666.33 2667.32C5660.28 2669.59 5650.85 2667.44 5641.85 2667.46Z" fill="url(#paint1_linear_202_256)"/>
<path d="M15305.8 2428.29C15886.1 2113.62 17054.6 2051.6 17341.8 2323.48C17195 2305.76 17052.8 2285.26 16909.1 2271.6C16492.4 2232.28 16086.8 2281.49 15684.4 2367.39L15361.2 2436.49C15340.8 2440.65 15315.7 2459.42 15305.8 2428.29Z" fill="url(#paint2_linear_202_256)"/>
<path d="M18234.5 2733.26C18549.3 2695.04 18846.9 2766.31 19143.2 2841.32C19290.6 2878.82 19438.7 2915.32 19583.9 2955.99C20069.3 3091.91 20506.1 3034.58 20930.5 2924.58C21041.3 2895.89 21151.1 2866.15 21285.6 2830.33C21243.9 2896.9 21161.2 2913.66 21098.4 2940.89C20839.2 3053.67 20554.6 3136.96 20222.7 3168.19C19788.8 3208.65 19412.7 3074.02 19028.6 2962.25C18784.6 2891.26 18561.6 2786.02 18289.2 2760.62C18253 2763.65 18221.2 2764.72 18234.5 2733.26Z" fill="url(#paint3_linear_202_256)"/>
<path d="M8374.02 2114.92C8518.2 2117.87 8656.74 2144.83 8794.7 2173.89C8889.2 2191.54 8974.43 2231.23 9038.82 2287.56C9051.1 2299.65 9071.07 2312.67 9056.21 2329.35C9039.54 2348.7 9013.25 2342.14 8994.63 2331.79C8805.88 2226.24 8587.57 2177.35 8374.02 2114.92Z" fill="#FCFAFC"/>
<path d="M15508.4 2884.23C15625.4 2787.91 15749.7 2701.29 15944 2709.67C15998.7 2712.14 16046.4 2721.18 16047.9 2770.98C16049.4 2824.07 15997.6 2832.29 15944.7 2827.85C15792.1 2815.36 15651.1 2843.46 15508.4 2884.23Z" fill="url(#paint4_linear_202_256)"/>
<path d="M21890.2 1979.34C21900 1984.2 21892.1 1992.76 21887.2 2000.4C21507 2204.55 21108.9 2361.53 20686.1 2456.15C20666.6 2459.15 20669.2 2453.56 20679.9 2444.32C21092.6 2313.83 21493.8 2151.84 21890.2 1979.34Z" fill="#FCF9FC"/>
<path d="M2169.22 2609.12C2194.24 2616.66 2219.83 2623.32 2244.14 2631.95C2358.1 2672.91 2486.58 2683 2608.86 2660.58C2697.36 2645.61 2745.14 2667.58 2764.36 2726.8C2780.34 2775.87 2758.85 2798.16 2690.29 2796.85C2580.02 2794.77 2478.24 2764.06 2379.29 2733.8C2295.17 2707.77 2218.36 2669.4 2153.1 2620.81C2150.42 2610.97 2153.81 2605.4 2169.22 2609.12Z" fill="#FEFDFE"/>
<path d="M13985 3146.78C14237.6 2948.88 14477.5 2740.32 14806.8 2605.95C14822.1 2603.72 14827.5 2608.56 14825.1 2619.35C14584.6 2779.4 14343.9 2939.37 14103.2 3099.26C14073.7 3118.86 14042.2 3137.1 14011.8 3155.83C13996.7 3163.03 13985.3 3164.02 13985 3146.78Z" fill="url(#paint5_linear_202_256)"/>
<path d="M5140.49 2237.92C5016.92 2296.36 4892.1 2353.41 4753.17 2390.53C4712.98 2401.58 4655.96 2421.66 4637.25 2375.5C4621.16 2335.58 4659.33 2309.09 4717.93 2301.31C4862.1 2280.45 5004.25 2252.09 5143.43 2216.43C5145.44 2217.85 5146.98 2219.62 5147.94 2221.58C5148.9 2223.55 5149.26 2225.66 5148.97 2227.75C5148.68 2229.84 5147.77 2231.85 5146.29 2233.61C5144.82 2235.38 5142.83 2236.85 5140.49 2237.92Z" fill="#FAF6FA"/>
<path d="M7063.66 1639.63C7240.18 1711.17 7408.75 1763.4 7602.76 1747.73C7636.15 1745 7693.9 1749.15 7693.23 1717.91C7692.55 1686.67 7634.94 1697.91 7602.36 1698.76C7449.68 1701.12 7304.51 1677.13 7161.52 1643.82C7117.22 1633.12 7117.11 1633.36 7063.66 1639.63Z" fill="#FCF9FC"/>
<path fill-rule="evenodd" clip-rule="evenodd" d="M10919.5 3005.46C10636.9 2933.54 10374.4 2830.39 10116.1 2720.7L10116.1 2720.7C10106 2710.75 10091.6 2703.92 10075.5 2701.44L10075.6 2701.4L10034.1 2681.99C10033.7 2681.87 10033.3 2681.75 10033 2681.65C10031.6 2680.75 10030.2 2679.84 10028.8 2678.93C10016.2 2670.6 10003.6 2662.21 9983.1 2665.85C9986.22 2672.06 9991.14 2677.63 9997.49 2682.13C10003.8 2686.64 10011.4 2689.95 10019.7 2691.81L10020.2 2691.46C10020.3 2691.58 10020.3 2691.69 10020.3 2691.81L10060.1 2711.53L10060.1 2711.69L10101 2731.22L10101.1 2731.1C10101.2 2731.3 10101.2 2731.49 10101.3 2731.69C10210 2790.01 10325.5 2840.4 10441 2890.76L10441 2890.76L10441 2890.77C10470 2903.43 10499.1 2916.08 10528 2928.86C10862.7 3076.8 11216.9 3165.56 11613.9 3129.66C11620.5 3129.06 11627 3128.48 11633.6 3127.89L11633.6 3127.89L11633.6 3127.89C11693.7 3122.59 11754 3117.27 11810.6 3097.03C11659.7 3075.16 11506.7 3063.42 11353.2 3061.95C11205.6 3061.45 11059.2 3042.37 10919.5 3005.46Z" fill="white"/>
<path fill-rule="evenodd" clip-rule="evenodd" d="M11656.6 3622.65C11355.2 3595.14 11061 3527.73 10768.4 3451.96C10768.4 3451.96 10768.4 3451.96 10768.4 3451.96C10754.7 3442.49 10738.1 3437.44 10721.6 3437.73L10721.6 3437.68L10674 3423.44C10673.5 3423.37 10673.1 3423.31 10672.7 3423.26C10671 3422.5 10669.3 3421.72 10667.6 3420.94C10652.2 3413.82 10636.7 3406.63 10618.3 3414.83C10623.8 3421.37 10630.7 3426.82 10638.6 3430.76C10646.5 3434.7 10655.1 3437.03 10663.9 3437.56L10664.2 3437.05C10664.3 3437.18 10664.4 3437.31 10664.5 3437.44L10710.6 3452.36L10710.7 3452.54L10757.8 3467.04L10758 3466.86C10758.1 3467.08 10758.2 3467.3 10758.3 3467.52C10886.2 3513.4 11017.6 3548.82 11149 3584.21L11149 3584.21C11182 3593.11 11215 3602 11248 3611.06C11629.4 3715.92 12006.7 3748.82 12376.8 3629.81C12382.9 3627.84 12389.1 3625.88 12395.2 3623.92C12451.3 3606.06 12507.5 3588.14 12554.4 3553.77C12399.9 3558.11 12247.3 3574.53 12098.2 3602.85C11955.2 3631.15 11806.1 3637.84 11656.6 3622.65Z" fill="url(#paint6_linear_202_256)"/>
<path d="M64.7075 2246.12C359.69 2181.37 651.023 2164.06 939.519 2262.7C1090.59 2314.84 1235.04 2372.71 1367.47 2447.16C1436.52 2485.95 1516.11 2509.73 1595.83 2533.4C1611.1 2537.98 1637.31 2538.3 1632.18 2555.92C1627.99 2570.2 1605.15 2570.31 1586.78 2570.83C1492.19 2573.75 1412.33 2543.3 1335.31 2508.27C1233.02 2462.38 1133.56 2412.86 1030.19 2368.33C802.096 2270.1 550.084 2246.43 291.721 2245.7C216.05 2245.91 140.379 2246.12 64.7075 2246.12Z" fill="#FEFDFE"/>
<path d="M3120.97 3351.5C3277.63 3265.02 3459.97 3257.48 3642.79 3252.79C3733.81 3250.58 3824.85 3247.56 3915.68 3247.96C4219.35 3249.28 4435.41 3126.28 4628.05 2969.24C4678.4 2928.25 4727.79 2886.75 4788.56 2836.3C4787.4 2890.28 4748.34 2917.66 4723.3 2948.48C4620.18 3075.9 4494.01 3187.8 4325.89 3272.74C4105.99 3383.53 3861.39 3362.24 3619.78 3358.27C3466.34 3355.75 3313.2 3325.55 3159.01 3359.98C3140.53 3368.99 3123.8 3375.81 3120.97 3351.5Z" fill="url(#paint7_linear_202_256)"/>
<path d="M19731 2436.78C19474.7 2442.32 19237.4 2384.07 19005 2314.4C18639.1 2204.61 18283.6 2077.54 17926.4 1953.48C17476.6 1797.19 16999.9 1735.24 16508.1 1726.01C16307.6 1722.49 16106.8 1721.81 15905.2 1733.06C15986.4 1689.41 16082.4 1682.7 16174.1 1671.79C16818.6 1597.25 17438.2 1650.64 18031.9 1860.98C18373.4 1982.18 18711.1 2108.76 19045 2240.71C19262.1 2325.82 19485.2 2395.15 19728.6 2425.37C19734.7 2427.21 19737.1 2429.4 19735.8 2432.08C19734.5 2434.77 19732.7 2436.78 19731 2436.78Z" fill="#FFFEFF"/>
<path d="M20214.2 2091.98C20239.8 2090.91 20265.3 2088.9 20290.8 2088.99C20410.4 2089.83 20526.9 2059.51 20621.4 2002.92C20690.5 1963.06 20743.1 1967.56 20789.9 2013.01C20828.7 2050.66 20821.4 2076.5 20761.3 2096.2C20664.7 2127.92 20560.9 2132.26 20459.7 2136.13C20373.6 2139.15 20287.5 2129.26 20206.2 2107.01C20198.9 2099.31 20199 2093.45 20214.2 2091.98Z" fill="#FEFDFE"/>
<path d="M7881.03 2043.05C7756.23 2101.5 7599.81 2096.93 7438.55 2080.76C7184.54 2055.21 6924.62 2011.49 6665.77 1970.92C6339.83 1919.75 6061.15 1961.56 5808.79 2055.35C5706.11 2093.79 5605.05 2134.97 5511.34 2187.32C5523.92 2129.99 5567.68 2103.8 5606.56 2074.63C5881.45 1871.49 6226.2 1792.02 6659.08 1863.29C6908.22 1904.48 7158.89 1951.45 7411.11 2004.19C7574.7 2037.83 7731.08 2055.64 7872.49 2032.97C7876.72 2033.42 7879.32 2034.94 7880.4 2037.7C7881.48 2040.46 7881.9 2042.69 7881.03 2043.05Z" fill="#FFFEFF"/>
<path fill-rule="evenodd" clip-rule="evenodd" d="M14711 1903.35L14695.6 1913.11C14324.3 2148.3 13952.1 2384.03 13541.2 2580.23C13254.3 2717.22 12943.6 2825.1 12600.5 2865.97C12381.4 2891.99 12161.7 2893.22 11944.4 2852.35C11941.8 2851.89 11939.1 2851.52 11936.5 2851.15C11922.8 2849.24 11908.7 2847.29 11898.4 2832.16C11944.6 2828.86 11990.5 2825.36 12036.2 2821.88C12138.1 2814.11 12239 2806.41 12340.1 2801.2C12678.5 2783.61 12986.1 2693.69 13280.8 2578.25C13596.7 2454.82 13889.1 2304.17 14181.6 2153.54L14181.6 2153.54C14278.2 2103.75 14374.9 2053.96 14472.4 2005.16C14527 1977.86 14581.5 1950.08 14635.9 1922.34L14635.9 1922.33C14655.6 1912.32 14675.2 1902.31 14694.8 1892.32C14695 1892.27 14695.2 1892.22 14695.4 1892.18C14695.6 1892.14 14695.7 1892.11 14695.9 1892.08L14768.4 1851.63L14768.4 1851.58L14826.2 1818.75C14824.7 1828.29 14819.9 1837.34 14812.3 1844.95C14804.7 1852.51 14794.6 1858.37 14783.1 1861.93C14783.1 1861.94 14783.1 1861.96 14783.1 1861.98L14711 1903.35L14711 1903.35Z" fill="white"/>
<path d="M1114.05 2929.63C1523.91 2915.36 1876.3 2998.49 2151.86 3245.55C1967.83 3178.75 1813.55 3106.15 1644.87 3052.64C1476.2 2999.13 1291.6 2971.38 1114.05 2929.63Z" fill="url(#paint8_linear_202_256)"/>
<defs>
<linearGradient id="paint0_linear_202_256" x1="11945" y1="5651.5" x2="11905" y2="-1898" gradientUnits="userSpaceOnUse">
<stop stop-color="#B28DFF"/>
<stop offset="0.333333" stop-color="#C5A3FF"/>
<stop offset="0.547907" stop-color="#D7B8FF" stop-opacity="0.63"/>
<stop offset="0.735107" stop-color="#DDC6FF" stop-opacity="0.05"/>
<stop offset="1" stop-color="white" stop-opacity="0"/>
</linearGradient>
<linearGradient id="paint1_linear_202_256" x1="5497.35" y1="3253.2" x2="6283.17" y2="3219.79" gradientUnits="userSpaceOnUse">
<stop stop-color="#B28DFF"/>
<stop offset="0.333333" stop-color="#C5A3FF"/>
<stop offset="0.541667" stop-color="#D7B8FF"/>
<stop offset="0.760417" stop-color="#D1B1FF"/>
<stop offset="1" stop-color="#BC98FF"/>
</linearGradient>
<linearGradient id="paint2_linear_202_256" x1="15281.6" y1="3171.31" x2="16857" y2="1726.3" gradientUnits="userSpaceOnUse">
<stop stop-color="#B28DFF"/>
<stop offset="0.333333" stop-color="#C5A3FF"/>
<stop offset="0.541667" stop-color="#D7B8FF"/>
<stop offset="0.760417" stop-color="#D1B1FF"/>
<stop offset="1" stop-color="#BC98FF"/>
</linearGradient>
<linearGradient id="paint3_linear_202_256" x1="17647.1" y1="4116.75" x2="21224" y2="3327.17" gradientUnits="userSpaceOnUse">
<stop stop-color="#B28DFF"/>
<stop offset="0.333333" stop-color="#C5A3FF"/>
<stop offset="0.541667" stop-color="#D7B8FF"/>
<stop offset="0.760417" stop-color="#D1B1FF"/>
<stop offset="1" stop-color="#BC98FF"/>
</linearGradient>
<linearGradient id="paint4_linear_202_256" x1="15467.2" y1="3292.1" x2="16125.6" y2="3113.02" gradientUnits="userSpaceOnUse">
<stop stop-color="#B28DFF"/>
<stop offset="0.333333" stop-color="#C5A3FF"/>
<stop offset="0.541667" stop-color="#D7B8FF"/>
<stop offset="0.760417" stop-color="#D1B1FF"/>
<stop offset="1" stop-color="#BC98FF"/>
</linearGradient>
<linearGradient id="paint5_linear_202_256" x1="13920.7" y1="4454.13" x2="15003.1" y2="4309.49" gradientUnits="userSpaceOnUse">
<stop stop-color="#B28DFF"/>
<stop offset="0.333333" stop-color="#C5A3FF"/>
<stop offset="0.541667" stop-color="#D7B8FF"/>
<stop offset="0.760417" stop-color="#D1B1FF"/>
<stop offset="1" stop-color="#BC98FF"/>
</linearGradient>
<linearGradient id="paint6_linear_202_256" x1="11096.2" y1="5252.82" x2="12920.3" y2="4042.04" gradientUnits="userSpaceOnUse">
<stop stop-color="#B28DFF"/>
<stop offset="0.333333" stop-color="#C5A3FF"/>
<stop offset="0.541667" stop-color="#D7B8FF"/>
<stop offset="0.760417" stop-color="#D1B1FF"/>
<stop offset="1" stop-color="#BC98FF"/>
</linearGradient>
<linearGradient id="paint7_linear_202_256" x1="3246.08" y1="4420.09" x2="4963.19" y2="3265.29" gradientUnits="userSpaceOnUse">
<stop stop-color="#B28DFF"/>
<stop offset="0.333333" stop-color="#C5A3FF"/>
<stop offset="0.541667" stop-color="#D7B8FF"/>
<stop offset="0.760417" stop-color="#D1B1FF"/>
<stop offset="1" stop-color="#BC98FF"/>
</linearGradient>
<linearGradient id="paint8_linear_202_256" x1="1049.43" y1="4011.4" x2="2298.52" y2="3643.43" gradientUnits="userSpaceOnUse">
<stop stop-color="#B28DFF"/>
<stop offset="0.333333" stop-color="#C5A3FF"/>
<stop offset="0.541667" stop-color="#D7B8FF"/>
<stop offset="0.760417" stop-color="#D1B1FF"/>
<stop offset="1" stop-color="#BC98FF"/>
</linearGradient>
</defs>
</svg>
