<svg width="18419" height="5774" viewBox="0 0 18419 5774" fill="none" xmlns="http://www.w3.org/2000/svg">
<path fill-rule="evenodd" clip-rule="evenodd" d="M18419 3574.61L18419 2687.47L18419 2295.65L18419 0.997559L0.000508167 0.995948L0.000307562 2295.65L0.000273308 2687.47L0.000180543 3748.57C400.608 3746.34 848.029 3921.86 1293.33 4096.54C1701.43 4256.63 2107.74 4416.03 2474.61 4437.27C3027.66 4469.29 3582.18 4164.49 4136.57 3859.78C4629.23 3589 5121.78 3318.27 5613.08 3284.02C6476.37 3223.83 7177.59 3644.5 7879.19 4065.41C8577.81 4484.53 9276.81 4903.88 10136.6 4848.9C10964.7 4795.95 11467.6 4351.4 11967 3909.99C12454.8 3478.87 12939.2 3050.75 13719.7 2993.43C14356.5 2946.68 14902.6 3214.75 15444.7 3480.85C16027.9 3767.07 16606.4 4051.02 17288 3938.58C17843.7 3846.92 18419 3574.61 18419 3574.61Z" fill="url(#paint0_linear_15_332)"/>
<path d="M4744.4 3979.26C4821.43 3763.77 5065.4 3615.68 5226.15 3685.83C5250.5 3696.45 5282.52 3704.14 5281.69 3748.01C5281.01 3786.71 5252.58 3798.61 5229.03 3798.74C5060.64 3801.05 4909.93 3877.81 4764.99 3979.06C4759.9 3982.45 4751.97 3979.24 4744.4 3979.26Z" fill="url(#paint1_linear_15_332)"/>
<path d="M12871.1 3622.56C13359.1 3153.26 14341.7 3060.77 14583.2 3466.25C14459.8 3439.81 14340.2 3409.24 14219.4 3388.88C13868.9 3330.24 13527.9 3403.62 13189.5 3531.74L12917.7 3634.79C12900.5 3640.99 12879.4 3668.98 12871.1 3622.56Z" fill="url(#paint2_linear_15_332)"/>
<path d="M15334 3955.4C15598.6 3898.4 15848.9 4004.69 16098.1 4116.55C16222.1 4172.49 16346.6 4226.93 16468.7 4287.58C16876.9 4490.29 17244.2 4404.79 17601.1 4240.74C17694.3 4197.95 17786.6 4153.59 17899.7 4100.17C17864.7 4199.45 17795.1 4224.45 17742.2 4265.06C17524.3 4433.25 17285 4557.48 17005.9 4604.05C16641 4664.4 16324.7 4463.61 16001.7 4296.92C15796.6 4191.04 15609 4034.08 15380 3996.2C15349.5 4000.72 15322.7 4002.32 15334 3955.4Z" fill="url(#paint3_linear_15_332)"/>
<path d="M7041.97 3155.19C7163.21 3159.61 7279.71 3199.81 7395.73 3243.14C7475.2 3269.48 7546.87 3328.66 7601.02 3412.67C7611.34 3430.71 7628.14 3450.12 7615.64 3475C7601.62 3503.87 7579.51 3494.07 7563.86 3478.64C7405.13 3321.23 7221.55 3248.3 7041.97 3155.19Z" fill="#FCFAFC"/>
<path d="M13041.5 4302.55C13139.9 4158.9 13244.4 4029.71 13407.8 4042.22C13453.8 4045.89 13493.9 4059.38 13495.2 4133.65C13496.5 4212.83 13452.9 4225.09 13408.3 4218.47C13280 4199.84 13161.5 4241.76 13041.5 4302.55Z" fill="url(#paint4_linear_15_332)"/>
<path d="M18408.1 2953C18416.4 2960.24 18409.7 2973.01 18405.6 2984.39C18085.8 3288.87 17751.2 3522.99 17395.6 3664.11C17379.2 3668.59 17381.4 3660.25 17390.3 3646.47C17737.4 3451.86 18074.8 3210.25 18408.1 2953Z" fill="#FCF9FC"/>
<path d="M1824.16 3892.25C1845.2 3903.49 1866.72 3913.43 1887.17 3926.31C1983 3987.39 2091.04 4002.43 2193.87 3969.01C2268.29 3946.68 2308.47 3979.44 2324.64 4067.77C2338.07 4140.94 2320 4174.19 2262.35 4172.23C2169.62 4169.13 2084.03 4123.34 2000.81 4078.2C1930.08 4039.38 1865.49 3982.15 1810.61 3909.69C1808.35 3895.02 1811.2 3886.71 1824.16 3892.25Z" fill="#FEFDFE"/>
<path d="M11760.4 4694.12C11972.9 4398.98 12174.6 4087.93 12451.5 3887.53C12464.3 3884.2 12468.9 3891.42 12466.9 3907.52C12264.6 4146.22 12062.3 4384.79 11859.8 4623.25C11835 4652.49 11808.5 4679.69 11782.9 4707.63C11770.2 4718.36 11760.7 4719.84 11760.4 4694.12Z" fill="url(#paint5_linear_15_332)"/>
<path d="M4322.79 3338.64C4218.88 3425.8 4113.91 3510.89 3997.09 3566.25C3963.29 3582.73 3915.34 3612.67 3899.61 3543.84C3886.08 3484.29 3918.18 3444.78 3967.45 3433.19C4088.68 3402.08 4208.23 3359.78 4325.27 3306.59C4326.96 3308.71 4328.25 3311.35 4329.06 3314.28C4329.87 3317.21 4330.17 3320.36 4329.92 3323.48C4329.68 3326.59 4328.91 3329.59 4327.68 3332.22C4326.44 3334.85 4324.76 3337.05 4322.79 3338.64Z" fill="#FAF6FA"/>
<path d="M5940.04 2446.35C6088.48 2553.05 6230.24 2630.94 6393.39 2607.56C6421.47 2603.5 6470.04 2609.68 6469.47 2563.09C6468.9 2516.5 6420.45 2533.27 6393.05 2534.53C6264.66 2538.06 6142.58 2502.27 6022.34 2452.6C5985.09 2436.64 5984.99 2437 5940.04 2446.35Z" fill="#FCF9FC"/>
<path fill-rule="evenodd" clip-rule="evenodd" d="M9182.58 4483.36C8944.89 4376.1 8724.13 4222.26 8506.94 4058.66L8506.94 4058.66C8498.41 4043.82 8486.3 4033.64 8472.79 4029.94L8472.84 4029.89L8437.97 4000.93C8437.65 4000.75 8437.33 4000.58 8437.02 4000.42C8435.85 3999.09 8434.69 3997.72 8433.53 3996.36C8422.96 3983.95 8412.3 3971.43 8395.09 3976.86C8397.71 3986.12 8401.85 3994.43 8407.19 4001.15C8412.53 4007.86 8418.93 4012.8 8425.89 4015.58L8426.31 4015.05C8426.33 4015.23 8426.36 4015.41 8426.4 4015.58L8459.83 4044.99L8459.86 4045.23L8494.21 4074.36L8494.36 4074.18C8494.39 4074.47 8494.43 4074.76 8494.47 4075.06C8585.87 4162.03 8683.05 4237.19 8780.15 4312.3C8804.56 4331.18 8828.97 4350.06 8853.28 4369.12C9134.73 4589.75 9432.6 4722.13 9766.48 4668.59C9772.01 4667.69 9777.54 4666.83 9783.07 4665.96C9833.61 4658.05 9884.3 4650.11 9931.89 4619.93C9805.02 4587.31 9676.32 4569.81 9547.24 4567.6C9423.16 4566.87 9299.99 4538.41 9182.58 4483.36Z" fill="white"/>
<path fill-rule="evenodd" clip-rule="evenodd" d="M9802.43 5273.84C9548.91 5232.81 9301.53 5132.28 9055.45 5019.27L9055.45 5019.27L9055.45 5019.27C9043.94 5005.14 9029.99 4997.62 9016.11 4998.05L9016.14 4997.97L8976.05 4976.73C8975.69 4976.63 8975.35 4976.55 8975.01 4976.47C8973.59 4975.34 8972.17 4974.17 8970.75 4973.01C8957.8 4962.39 8944.73 4951.67 8929.28 4963.89C8933.85 4973.65 8939.68 4981.78 8946.32 4987.66C8952.96 4993.53 8960.23 4997 8967.58 4997.79L8967.86 4997.03C8967.93 4997.23 8968 4997.42 8968.07 4997.61L9006.88 5019.87L9006.96 5020.14L9046.59 5041.76L9046.7 5041.5C9046.75 5041.68 9046.8 5041.85 9046.86 5042.03C9046.9 5042.18 9046.95 5042.33 9046.99 5042.48C9154.54 5110.9 9265.07 5163.72 9375.51 5216.51C9403.28 5229.78 9431.04 5243.05 9458.75 5256.56C9779.52 5412.94 10096.8 5462.01 10408 5284.52C10413.2 5281.58 10418.3 5278.66 10423.5 5275.74C10470.6 5249.1 10517.9 5222.37 10557.4 5171.11C10427.4 5177.58 10299.1 5202.07 10173.7 5244.32C10053.5 5286.52 9928.11 5296.49 9802.43 5273.84Z" fill="url(#paint6_linear_15_332)"/>
<path d="M54.4147 3350.87C302.474 3254.3 547.465 3228.49 790.07 3375.6C917.111 3453.36 1038.58 3539.67 1149.94 3650.71C1208.01 3708.56 1274.94 3744.02 1341.98 3779.32C1354.82 3786.16 1376.87 3786.63 1372.55 3812.91C1369.03 3834.21 1349.82 3834.37 1334.37 3835.15C1254.83 3839.5 1187.67 3794.09 1122.9 3741.84C1036.88 3673.41 953.247 3599.54 866.319 3533.14C674.507 3386.64 462.583 3351.34 245.318 3350.25C181.684 3350.56 118.049 3350.87 54.4147 3350.87Z" fill="#FEFDFE"/>
<path d="M2584.52 4859.45C2716.26 4730.46 2869.59 4719.23 3023.33 4712.22C3099.87 4708.93 3176.43 4704.42 3252.81 4705.02C3508.18 4706.99 3689.87 4523.55 3851.87 4289.34C3894.21 4228.2 3935.74 4166.31 3986.85 4091.08C3985.87 4171.57 3953.02 4212.41 3931.97 4258.37C3845.25 4448.41 3739.15 4615.3 3597.77 4741.98C3412.85 4907.22 3207.16 4875.46 3003.98 4869.54C2874.95 4865.78 2746.17 4820.75 2616.5 4872.09C2600.96 4885.53 2586.9 4895.7 2584.52 4859.45Z" fill="url(#paint7_linear_15_332)"/>
<path d="M16592.4 3635.23C16376.9 3643.49 16177.3 3556.61 15981.9 3452.71C15674.2 3288.97 15375.2 3099.44 15074.8 2914.42C14696.6 2681.33 14295.8 2588.95 13882.1 2575.18C13713.6 2569.92 13544.7 2568.92 13375.2 2585.69C13443.5 2520.6 13524.2 2510.58 13601.3 2494.31C14143.3 2383.15 14664.3 2462.76 15163.6 2776.47C15450.8 2957.23 15734.7 3146.01 16015.5 3342.8C16198.1 3469.73 16385.7 3573.13 16590.4 3618.2C16595.5 3620.95 16597.5 3624.21 16596.4 3628.22C16595.3 3632.22 16593.8 3635.23 16592.4 3635.23Z" fill="#FFFEFF"/>
<path d="M16998.8 3120.99C17020.2 3119.39 17041.7 3116.4 17063.1 3116.53C17163.7 3117.77 17261.7 3072.55 17341.2 2988.16C17399.3 2928.71 17443.5 2935.42 17482.8 3003.21C17515.5 3059.35 17509.3 3097.89 17458.8 3127.28C17377.6 3174.59 17290.3 3181.06 17205.2 3186.82C17132.8 3191.33 17060.4 3176.59 16992 3143.4C16985.9 3131.91 16986 3123.17 16998.8 3120.99Z" fill="#FEFDFE"/>
<path d="M6627.4 3048.01C6522.45 3135.18 6390.91 3128.37 6255.3 3104.25C6041.7 3066.15 5823.12 3000.94 5605.45 2940.44C5331.35 2864.12 5097 2926.48 4884.79 3066.36C4798.44 3123.69 4713.45 3185.1 4634.65 3263.17C4645.23 3177.68 4682.03 3138.62 4714.73 3095.11C4945.89 2792.14 5235.8 2673.62 5599.82 2779.92C5809.33 2841.35 6020.13 2911.4 6232.22 2990.06C6369.8 3040.23 6501.3 3066.79 6620.21 3032.98C6623.77 3033.65 6625.96 3035.92 6626.87 3040.03C6627.77 3044.15 6628.13 3047.47 6627.4 3048.01Z" fill="#FFFEFF"/>
<path fill-rule="evenodd" clip-rule="evenodd" d="M12370.9 2839.66L12358 2854.21C12045.7 3204.99 11732.8 3556.55 11387.2 3849.17C11146 4053.47 10884.7 4214.37 10596.1 4275.33C10411.9 4314.12 10227.2 4315.97 10044.4 4255.01C10042.2 4254.31 10040 4253.76 10037.7 4253.21C10026.2 4250.37 10014.4 4247.47 10005.7 4224.9C10044.6 4219.98 10083.2 4214.76 10121.6 4209.56L10121.6 4209.56C10207.3 4197.97 10292.1 4186.5 10377.1 4178.72C10661.8 4152.49 10920.4 4018.38 11168.2 3846.22C11433.9 3662.13 11679.8 3437.45 11925.7 3212.8C12007 3138.54 12088.3 3064.29 12170.3 2991.5C12216.2 2950.78 12262 2909.37 12307.8 2867.99L12307.8 2867.98L12307.8 2867.94C12324.3 2853.02 12340.8 2838.1 12357.3 2823.22C12357.6 2823.09 12357.9 2822.97 12358.2 2822.85L12419.2 2762.52L12419.2 2762.45L12467.8 2713.49C12466.5 2727.72 12462.5 2741.22 12456.1 2752.56C12449.7 2763.84 12441.3 2772.59 12431.6 2777.88C12431.6 2777.91 12431.6 2777.94 12431.6 2777.96L12370.9 2839.66L12370.9 2839.66Z" fill="white"/>
<path d="M936.836 4370.26C1281.5 4348.99 1577.84 4472.96 1809.56 4841.43C1654.8 4741.81 1525.07 4633.52 1383.23 4553.72C1241.38 4473.92 1086.15 4432.53 936.836 4370.26Z" fill="url(#paint8_linear_15_332)"/>
<defs>
<linearGradient id="paint0_linear_15_332" x1="-1406.88" y1="16156.7" x2="20293.7" y2="8886.1" gradientUnits="userSpaceOnUse">
<stop stop-color="#B28DFF"/>
<stop offset="0.333333" stop-color="#C5A3FF"/>
<stop offset="0.541667" stop-color="#D7B8FF"/>
<stop offset="0.760417" stop-color="#D1B1FF"/>
<stop offset="1" stop-color="#BC98FF"/>
</linearGradient>
<linearGradient id="paint1_linear_15_332" x1="4622.88" y1="4852.84" x2="5284.52" y2="4836.98" gradientUnits="userSpaceOnUse">
<stop stop-color="#B28DFF"/>
<stop offset="0.333333" stop-color="#C5A3FF"/>
<stop offset="0.541667" stop-color="#D7B8FF"/>
<stop offset="0.760417" stop-color="#D1B1FF"/>
<stop offset="1" stop-color="#BC98FF"/>
</linearGradient>
<linearGradient id="paint2_linear_15_332" x1="12850.7" y1="4730.71" x2="14775.3" y2="3735.34" gradientUnits="userSpaceOnUse">
<stop stop-color="#B28DFF"/>
<stop offset="0.333333" stop-color="#C5A3FF"/>
<stop offset="0.541667" stop-color="#D7B8FF"/>
<stop offset="0.760417" stop-color="#D1B1FF"/>
<stop offset="1" stop-color="#BC98FF"/>
</linearGradient>
<linearGradient id="paint3_linear_15_332" x1="14840" y1="6018.74" x2="17946.3" y2="5632.1" gradientUnits="userSpaceOnUse">
<stop stop-color="#B28DFF"/>
<stop offset="0.333333" stop-color="#C5A3FF"/>
<stop offset="0.541667" stop-color="#D7B8FF"/>
<stop offset="0.760417" stop-color="#D1B1FF"/>
<stop offset="1" stop-color="#BC98FF"/>
</linearGradient>
<linearGradient id="paint4_linear_15_332" x1="13006.8" y1="4910.86" x2="13587.8" y2="4821.76" gradientUnits="userSpaceOnUse">
<stop stop-color="#B28DFF"/>
<stop offset="0.333333" stop-color="#C5A3FF"/>
<stop offset="0.541667" stop-color="#D7B8FF"/>
<stop offset="0.760417" stop-color="#D1B1FF"/>
<stop offset="1" stop-color="#BC98FF"/>
</linearGradient>
<linearGradient id="paint5_linear_15_332" x1="11706.4" y1="6643.91" x2="12627.6" y2="6574.5" gradientUnits="userSpaceOnUse">
<stop stop-color="#B28DFF"/>
<stop offset="0.333333" stop-color="#C5A3FF"/>
<stop offset="0.541667" stop-color="#D7B8FF"/>
<stop offset="0.760417" stop-color="#D1B1FF"/>
<stop offset="1" stop-color="#BC98FF"/>
</linearGradient>
<linearGradient id="paint6_linear_15_332" x1="9331.14" y1="7705.09" x2="11269.4" y2="6979.65" gradientUnits="userSpaceOnUse">
<stop stop-color="#B28DFF"/>
<stop offset="0.333333" stop-color="#C5A3FF"/>
<stop offset="0.541667" stop-color="#D7B8FF"/>
<stop offset="0.760417" stop-color="#D1B1FF"/>
<stop offset="1" stop-color="#BC98FF"/>
</linearGradient>
<linearGradient id="paint7_linear_15_332" x1="2689.72" y1="6453.15" x2="4523.15" y2="5757.91" gradientUnits="userSpaceOnUse">
<stop stop-color="#B28DFF"/>
<stop offset="0.333333" stop-color="#C5A3FF"/>
<stop offset="0.541667" stop-color="#D7B8FF"/>
<stop offset="0.760417" stop-color="#D1B1FF"/>
<stop offset="1" stop-color="#BC98FF"/>
</linearGradient>
<linearGradient id="paint8_linear_15_332" x1="882.496" y1="5983.62" x2="1993.4" y2="5799.1" gradientUnits="userSpaceOnUse">
<stop stop-color="#B28DFF"/>
<stop offset="0.333333" stop-color="#C5A3FF"/>
<stop offset="0.541667" stop-color="#D7B8FF"/>
<stop offset="0.760417" stop-color="#D1B1FF"/>
<stop offset="1" stop-color="#BC98FF"/>
</linearGradient>
</defs>
</svg>
