<svg width="21904" height="3960" viewBox="0 0 21904 3960" fill="none" xmlns="http://www.w3.org/2000/svg">
<path fill-rule="evenodd" clip-rule="evenodd" d="M21903.1 2397.13L21903.1 1802.3L21903.1 1539.58L21903.1 1.00049L0.000406529 0.998573L0.000272022 1539.58L0.000249054 1802.3L0.000186855 2513.78C476.387 2512.28 1008.44 2629.96 1537.98 2747.09C2023.27 2854.44 2506.44 2961.31 2942.71 2975.55C3600.36 2997.02 4259.79 2792.66 4919.05 2588.34C5504.89 2406.78 6090.61 2225.26 6674.84 2202.29C7701.43 2161.93 8535.29 2444 9369.61 2726.22C10200.4 3007.24 11031.6 3288.42 12054 3251.55C13038.7 3216.05 13636.8 2917.97 14230.7 2622.01C14810.7 2332.94 15386.7 2045.88 16315 2007.45C17072.1 1976.11 17721.6 2155.84 18366.3 2334.27C19059.7 2526.18 19747.6 2716.57 20558.2 2641.18C21219 2579.72 21903.1 2397.13 21903.1 2397.13Z" fill="url(#paint0_linear_5_86)"/>
<path d="M5641.85 2668.45C5733.45 2523.96 6023.56 2424.67 6214.73 2471.71C6243.68 2478.83 6281.76 2483.98 6280.77 2513.4C6279.96 2539.35 6246.15 2547.33 6218.15 2547.42C6017.91 2548.96 5838.69 2600.43 5666.33 2668.32C5660.28 2670.59 5650.85 2668.44 5641.85 2668.45Z" fill="url(#paint1_linear_5_86)"/>
<path d="M15305.8 2429.29C15886.1 2114.62 17054.6 2052.6 17341.8 2324.48C17195 2306.75 17052.8 2286.25 16909.1 2272.6C16492.4 2233.28 16086.8 2282.49 15684.4 2368.39L15361.2 2437.49C15340.7 2441.64 15315.7 2460.41 15305.8 2429.29Z" fill="url(#paint2_linear_5_86)"/>
<path d="M18234.5 2734.26C18549.3 2696.04 18846.9 2767.31 19143.2 2842.31C19290.6 2879.82 19438.7 2916.32 19583.9 2956.99C20069.3 3092.91 20506.1 3035.58 20930.5 2925.58C21041.3 2896.89 21151.1 2867.15 21285.6 2831.33C21243.9 2897.9 21161.2 2914.66 21098.4 2941.89C20839.2 3054.66 20554.6 3137.96 20222.7 3169.18C19788.8 3209.65 19412.7 3075.01 19028.6 2963.25C18784.6 2892.26 18561.6 2787.01 18289.2 2761.61C18253 2764.64 18221.2 2765.72 18234.5 2734.26Z" fill="url(#paint3_linear_5_86)"/>
<path d="M8374.02 2115.91C8518.19 2118.87 8656.74 2145.83 8794.7 2174.88C8889.2 2192.54 8974.43 2232.22 9038.82 2288.55C9051.1 2300.65 9071.07 2313.66 9056.21 2330.35C9039.54 2349.7 9013.25 2343.13 8994.63 2332.79C8805.88 2227.24 8587.57 2178.34 8374.02 2115.91Z" fill="#FCFAFC"/>
<path d="M15508.4 2885.22C15625.4 2788.9 15749.7 2702.28 15944 2710.67C15998.7 2713.13 16046.4 2722.17 16047.9 2771.98C16049.4 2825.07 15997.6 2833.28 15944.7 2828.85C15792.1 2816.35 15651.1 2844.46 15508.4 2885.22Z" fill="url(#paint4_linear_5_86)"/>
<path d="M21890.2 1980.34C21900 1985.2 21892.1 1993.76 21887.1 2001.39C21507 2205.54 21108.9 2362.53 20686.1 2457.14C20666.6 2460.15 20669.2 2454.56 20679.9 2445.32C21092.6 2314.83 21493.8 2152.83 21890.2 1980.34Z" fill="#FCF9FC"/>
<path d="M2169.22 2610.11C2194.24 2617.65 2219.83 2624.32 2244.14 2632.95C2358.1 2673.91 2486.58 2683.99 2608.86 2661.58C2697.36 2646.61 2745.14 2668.57 2764.36 2727.8C2780.34 2776.86 2758.85 2799.15 2690.29 2797.84C2580.02 2795.77 2478.24 2765.06 2379.29 2734.79C2295.17 2708.76 2218.36 2670.39 2153.1 2621.8C2150.42 2611.97 2153.81 2606.4 2169.22 2610.11Z" fill="#FEFDFE"/>
<path d="M13985 3147.77C14237.6 2949.88 14477.5 2741.32 14806.8 2606.95C14822.1 2604.72 14827.5 2609.56 14825.1 2620.35C14584.6 2780.4 14343.9 2940.37 14103.2 3100.25C14073.7 3119.86 14042.2 3138.1 14011.8 3156.83C13996.7 3164.03 13985.3 3165.02 13985 3147.77Z" fill="url(#paint5_linear_5_86)"/>
<path d="M5140.49 2238.92C5016.92 2297.36 4892.1 2354.41 4753.17 2391.53C4712.98 2402.58 4655.96 2422.66 4637.25 2376.5C4621.16 2336.57 4659.33 2310.09 4717.93 2302.31C4862.1 2281.45 5004.25 2253.09 5143.43 2217.42C5145.44 2218.85 5146.98 2220.61 5147.94 2222.58C5148.9 2224.55 5149.26 2226.66 5148.97 2228.75C5148.68 2230.84 5147.77 2232.85 5146.29 2234.61C5144.82 2236.38 5142.83 2237.85 5140.49 2238.92Z" fill="#FAF6FA"/>
<path d="M7063.66 1640.63C7240.18 1712.17 7408.75 1764.4 7602.76 1748.72C7636.15 1746 7693.9 1750.14 7693.23 1718.9C7692.55 1687.67 7634.94 1698.91 7602.36 1699.75C7449.68 1702.12 7304.51 1678.12 7161.52 1644.82C7117.22 1634.12 7117.11 1634.36 7063.66 1640.63Z" fill="#FCF9FC"/>
<path fill-rule="evenodd" clip-rule="evenodd" d="M10919.5 3006.46C10636.9 2934.54 10374.4 2831.39 10116.1 2721.7L10116.1 2721.7C10106 2711.74 10091.6 2704.92 10075.5 2702.44L10075.6 2702.4L10034.1 2682.99C10033.7 2682.87 10033.3 2682.75 10033 2682.64C10031.6 2681.75 10030.2 2680.84 10028.8 2679.92C10016.2 2671.6 10003.6 2663.21 9983.1 2666.85C9986.22 2673.06 9991.14 2678.63 9997.49 2683.13C10003.8 2687.63 10011.4 2690.95 10019.7 2692.81L10020.2 2692.45C10020.3 2692.57 10020.3 2692.69 10020.3 2692.81L10060.1 2712.53L10060.1 2712.69L10101 2732.22L10101.1 2732.1C10101.2 2732.29 10101.2 2732.49 10101.3 2732.69C10210 2791 10325.5 2841.4 10441 2891.76L10441 2891.76L10441 2891.76C10470 2904.42 10499.1 2917.08 10528 2929.86C10862.7 3077.79 11216.9 3166.56 11613.9 3130.65C11620.5 3130.05 11627 3129.47 11633.6 3128.89C11693.7 3123.59 11754 3118.26 11810.6 3098.03C11659.7 3076.16 11506.7 3064.42 11353.2 3062.94C11205.6 3062.45 11059.2 3043.37 10919.5 3006.46Z" fill="white"/>
<path fill-rule="evenodd" clip-rule="evenodd" d="M11656.6 3623.65C11355.2 3596.13 11061 3528.73 10768.4 3452.96C10768.4 3452.96 10768.4 3452.96 10768.4 3452.96C10754.7 3443.48 10738.1 3438.44 10721.6 3438.73L10721.6 3438.67L10674 3424.43C10673.5 3424.37 10673.1 3424.31 10672.7 3424.26C10671 3423.5 10669.3 3422.72 10667.6 3421.94C10652.2 3414.81 10636.7 3407.63 10618.3 3415.82C10623.8 3422.36 10630.7 3427.82 10638.6 3431.76C10646.5 3435.7 10655.1 3438.02 10663.9 3438.55L10664.2 3438.05C10664.3 3438.18 10664.4 3438.3 10664.5 3438.44L10710.6 3453.36L10710.7 3453.54L10757.8 3468.03L10758 3467.86C10758.1 3468.08 10758.2 3468.29 10758.3 3468.51C10886.2 3514.39 11017.6 3549.81 11149 3585.2L11149 3585.2C11182 3594.1 11215 3603 11248 3612.06C11629.4 3716.91 12006.7 3749.82 12376.8 3630.81C12382.9 3628.83 12389.1 3626.88 12395.2 3624.92C12451.3 3607.06 12507.5 3589.13 12554.4 3554.76C12399.9 3559.1 12247.3 3575.53 12098.2 3603.85C11955.2 3632.15 11806.1 3638.84 11656.6 3623.65Z" fill="url(#paint6_linear_5_86)"/>
<path d="M64.7074 2247.12C359.689 2182.36 651.023 2165.05 939.519 2263.7C1090.59 2315.83 1235.04 2373.71 1367.47 2448.16C1436.52 2486.95 1516.11 2510.72 1595.83 2534.39C1611.1 2538.98 1637.31 2539.29 1632.18 2556.91C1627.99 2571.2 1605.15 2571.3 1586.78 2571.83C1492.19 2574.75 1412.33 2544.3 1335.31 2509.26C1233.02 2463.38 1133.56 2413.85 1030.19 2369.33C802.096 2271.1 550.084 2247.43 291.721 2246.7C216.05 2246.91 140.379 2247.12 64.7074 2247.12Z" fill="#FEFDFE"/>
<path d="M3120.97 3352.5C3277.63 3266.01 3459.96 3258.48 3642.78 3253.78C3733.81 3251.57 3824.85 3248.55 3915.68 3248.95C4219.35 3250.27 4435.41 3127.28 4628.05 2970.24C4678.4 2929.24 4727.78 2887.74 4788.56 2837.3C4787.4 2891.27 4748.34 2918.65 4723.3 2949.47C4620.18 3076.9 4494.01 3188.8 4325.88 3273.74C4105.99 3384.53 3861.38 3363.23 3619.78 3359.27C3466.34 3356.74 3313.2 3326.55 3159.01 3360.97C3140.52 3369.99 3123.8 3376.8 3120.97 3352.5Z" fill="url(#paint7_linear_5_86)"/>
<path d="M19731 2437.78C19474.7 2443.32 19237.4 2385.07 19005 2315.4C18639.1 2205.61 18283.6 2078.53 17926.4 1954.47C17476.6 1798.18 16999.9 1736.24 16508.1 1727.01C16307.6 1723.48 16106.8 1722.81 15905.2 1734.06C15986.4 1690.41 16082.4 1683.7 16174.1 1672.78C16818.6 1598.25 17438.2 1651.63 18031.9 1861.98C18373.4 1983.18 18711.1 2109.76 19045 2241.7C19262.1 2326.81 19485.2 2396.15 19728.6 2426.36C19734.7 2428.21 19737.1 2430.39 19735.8 2433.08C19734.5 2435.76 19732.7 2437.78 19731 2437.78Z" fill="#FFFEFF"/>
<path d="M20214.3 2092.98C20239.8 2091.9 20265.3 2089.9 20290.8 2089.99C20410.4 2090.82 20526.9 2060.5 20621.4 2003.92C20690.5 1964.05 20743.1 1968.55 20789.9 2014.01C20828.7 2051.65 20821.4 2077.49 20761.3 2097.2C20664.7 2128.92 20560.9 2133.26 20459.7 2137.12C20373.6 2140.14 20287.5 2130.26 20206.2 2108.01C20198.9 2100.3 20199 2094.44 20214.3 2092.98Z" fill="#FEFDFE"/>
<path d="M7881.03 2044.04C7756.23 2102.49 7599.81 2097.93 7438.54 2081.76C7184.54 2056.21 6924.62 2012.48 6665.77 1971.92C6339.83 1920.75 6061.15 1962.56 5808.79 2056.35C5706.11 2094.79 5605.05 2135.96 5511.33 2188.31C5523.91 2130.99 5567.68 2104.8 5606.56 2075.62C5881.45 1872.48 6226.2 1793.01 6659.08 1864.29C6908.22 1905.48 7158.89 1952.45 7411.11 2005.19C7574.7 2038.83 7731.07 2056.63 7872.48 2033.97C7876.72 2034.41 7879.32 2035.94 7880.4 2038.7C7881.48 2041.46 7881.9 2043.68 7881.03 2044.04Z" fill="#FFFEFF"/>
<path fill-rule="evenodd" clip-rule="evenodd" d="M14711 1904.34L14695.6 1914.1L14695.6 1914.11C14324.3 2149.3 13952.1 2385.03 13541.2 2581.23C13254.3 2718.22 12943.6 2826.1 12600.5 2866.97C12381.4 2892.98 12161.7 2894.22 11944.4 2853.35C11941.8 2852.88 11939.1 2852.51 11936.5 2852.14C11922.8 2850.24 11908.7 2848.29 11898.4 2833.16C11944.6 2829.86 11990.5 2826.36 12036.2 2822.87L12036.2 2822.87C12138.1 2815.1 12239 2807.41 12340.1 2802.19C12678.5 2784.61 12986.1 2694.68 13280.8 2579.25C13596.7 2455.81 13889.1 2305.17 14181.6 2154.54C14278.2 2104.75 14374.9 2054.96 14472.4 2006.16C14527 1978.85 14581.5 1951.08 14635.9 1923.33L14635.9 1923.33C14655.6 1913.31 14675.2 1903.3 14694.8 1893.32C14695.2 1893.23 14695.5 1893.15 14695.9 1893.08L14768.4 1852.62L14768.4 1852.57L14826.2 1819.75C14824.7 1829.29 14819.9 1838.34 14812.3 1845.94C14804.7 1853.51 14794.6 1859.37 14783.1 1862.92C14783.1 1862.94 14783.1 1862.96 14783.1 1862.98L14711 1904.34L14711 1904.34Z" fill="white"/>
<path d="M1114.05 2930.62C1523.91 2916.36 1876.3 2999.48 2151.86 3246.55C1967.83 3179.75 1813.55 3107.14 1644.87 3053.63C1476.2 3000.13 1291.6 2972.38 1114.05 2930.62Z" fill="url(#paint8_linear_5_86)"/>
<defs>
<linearGradient id="paint0_linear_5_86" x1="-1673" y1="10833.5" x2="19539.5" y2="-1771" gradientUnits="userSpaceOnUse">
<stop stop-color="#B28DFF"/>
<stop offset="0.333333" stop-color="#C5A3FF"/>
<stop offset="0.541667" stop-color="#D7B8FF"/>
<stop offset="0.760417" stop-color="#D1B1FF"/>
<stop offset="1" stop-color="#BC98FF"/>
</linearGradient>
<linearGradient id="paint1_linear_5_86" x1="5497.35" y1="3254.2" x2="6283.17" y2="3220.79" gradientUnits="userSpaceOnUse">
<stop stop-color="#B28DFF"/>
<stop offset="0.333333" stop-color="#C5A3FF"/>
<stop offset="0.541667" stop-color="#D7B8FF"/>
<stop offset="0.760417" stop-color="#D1B1FF"/>
<stop offset="1" stop-color="#BC98FF"/>
</linearGradient>
<linearGradient id="paint2_linear_5_86" x1="15281.6" y1="3172.31" x2="16857" y2="1727.3" gradientUnits="userSpaceOnUse">
<stop stop-color="#B28DFF"/>
<stop offset="0.333333" stop-color="#C5A3FF"/>
<stop offset="0.541667" stop-color="#D7B8FF"/>
<stop offset="0.760417" stop-color="#D1B1FF"/>
<stop offset="1" stop-color="#BC98FF"/>
</linearGradient>
<linearGradient id="paint3_linear_5_86" x1="17647.1" y1="4117.74" x2="21224" y2="3328.17" gradientUnits="userSpaceOnUse">
<stop stop-color="#B28DFF"/>
<stop offset="0.333333" stop-color="#C5A3FF"/>
<stop offset="0.541667" stop-color="#D7B8FF"/>
<stop offset="0.760417" stop-color="#D1B1FF"/>
<stop offset="1" stop-color="#BC98FF"/>
</linearGradient>
<linearGradient id="paint4_linear_5_86" x1="15467.2" y1="3293.1" x2="16125.6" y2="3114.02" gradientUnits="userSpaceOnUse">
<stop stop-color="#B28DFF"/>
<stop offset="0.333333" stop-color="#C5A3FF"/>
<stop offset="0.541667" stop-color="#D7B8FF"/>
<stop offset="0.760417" stop-color="#D1B1FF"/>
<stop offset="1" stop-color="#BC98FF"/>
</linearGradient>
<linearGradient id="paint5_linear_5_86" x1="13920.7" y1="4455.13" x2="15003.1" y2="4310.48" gradientUnits="userSpaceOnUse">
<stop stop-color="#B28DFF"/>
<stop offset="0.333333" stop-color="#C5A3FF"/>
<stop offset="0.541667" stop-color="#D7B8FF"/>
<stop offset="0.760417" stop-color="#D1B1FF"/>
<stop offset="1" stop-color="#BC98FF"/>
</linearGradient>
<linearGradient id="paint6_linear_5_86" x1="11096.2" y1="5253.82" x2="12920.3" y2="4043.03" gradientUnits="userSpaceOnUse">
<stop stop-color="#B28DFF"/>
<stop offset="0.333333" stop-color="#C5A3FF"/>
<stop offset="0.541667" stop-color="#D7B8FF"/>
<stop offset="0.760417" stop-color="#D1B1FF"/>
<stop offset="1" stop-color="#BC98FF"/>
</linearGradient>
<linearGradient id="paint7_linear_5_86" x1="3246.08" y1="4421.09" x2="4963.19" y2="3266.29" gradientUnits="userSpaceOnUse">
<stop stop-color="#B28DFF"/>
<stop offset="0.333333" stop-color="#C5A3FF"/>
<stop offset="0.541667" stop-color="#D7B8FF"/>
<stop offset="0.760417" stop-color="#D1B1FF"/>
<stop offset="1" stop-color="#BC98FF"/>
</linearGradient>
<linearGradient id="paint8_linear_5_86" x1="1049.43" y1="4012.39" x2="2298.52" y2="3644.43" gradientUnits="userSpaceOnUse">
<stop stop-color="#B28DFF"/>
<stop offset="0.333333" stop-color="#C5A3FF"/>
<stop offset="0.541667" stop-color="#D7B8FF"/>
<stop offset="0.760417" stop-color="#D1B1FF"/>
<stop offset="1" stop-color="#BC98FF"/>
</linearGradient>
</defs>
</svg>
