<svg width="19071" height="7533" viewBox="0 0 19071 7533" fill="none" xmlns="http://www.w3.org/2000/svg">
<path fill-rule="evenodd" clip-rule="evenodd" d="M19071 5112.69L19071 3843.48L19071 3282.91L19071 0.000976562L0.000709561 -0.000690677L0.00042256 3282.91L0.000373554 3843.48L0.000240837 5361.58C389.123 5358.58 836.635 5564.34 1295.23 5775.19C1773.48 5995.07 2263.78 6220.5 2712.5 6220.5C3274.61 6220.5 3795.99 5839.49 4318.31 5457.79C4804.14 5102.77 5290.78 4747.15 5811.77 4696.96C6705.74 4610.83 7410.03 5156.78 8114.79 5703.09C8816.37 6246.94 9518.41 6791.15 10408.5 6712.5C11266.3 6636.71 11809.4 6057.35 12348.7 5482.06C12874.9 4920.68 13397.6 4363.18 14205.4 4281.22C14864.6 4214.34 15430.1 4597.85 15991.5 4978.56C16595.2 5388.04 17194.2 5794.29 17900 5633.42C18475.3 5502.29 19071 5112.69 19071 5112.69Z" fill="url(#paint0_linear_16_367)"/>
<path d="M4684.12 5598.39C4761.15 5382.9 5005.12 5234.81 5165.87 5304.96C5190.22 5315.58 5222.24 5323.27 5221.41 5367.14C5220.73 5405.84 5192.3 5417.74 5168.75 5417.87C5000.36 5420.18 4849.65 5496.94 4704.71 5598.19C4699.62 5601.58 4691.69 5598.37 4684.12 5598.39Z" fill="url(#paint1_linear_16_367)"/>
<path d="M13366.9 4924.38C13854.8 4455.09 14837.5 4362.59 15079 4768.08C14955.6 4741.64 14836 4711.07 14715.1 4690.7C14364.7 4632.06 14023.6 4705.45 13685.2 4833.56L13413.5 4936.62C13396.3 4942.81 13375.2 4970.81 13366.9 4924.38Z" fill="url(#paint2_linear_16_367)"/>
<path d="M15792.7 5362.77C16062.2 5336.85 16298.4 5471.46 16532.9 5611.48C16649.6 5681.42 16766.9 5749.93 16881.2 5824.34C17263.2 6073.05 17637.9 6030.74 18011.4 5909.19C18108.9 5877.51 18205.7 5844.16 18324.3 5804.22C18278 5898.77 18206 5915.53 18148.8 5949.73C17912.8 6091.51 17660.7 6187.13 17378 6201C17008.6 6218.61 16717.8 5982.48 16416.3 5779.44C16224.8 5650.48 16056.7 5472.82 15833.6 5408.62C15802.8 5409.57 15776.1 5408.06 15792.7 5362.77Z" fill="url(#paint3_linear_16_367)"/>
<path d="M7237.85 4731.17C7359.1 4735.58 7475.6 4775.79 7591.62 4819.12C7671.09 4845.45 7742.76 4904.63 7796.91 4988.65C7807.23 5006.69 7824.03 5026.1 7811.53 5050.98C7797.51 5079.84 7775.4 5070.05 7759.75 5054.62C7601.02 4897.21 7417.44 4824.28 7237.85 4731.17Z" fill="#FCFAFC"/>
<path d="M13137.2 5642C13235.6 5498.35 13340.1 5369.16 13503.6 5381.67C13549.5 5385.34 13589.7 5398.83 13591 5473.1C13592.2 5552.28 13548.6 5564.54 13504.1 5557.92C13375.8 5539.29 13257.2 5581.21 13137.2 5642Z" fill="url(#paint4_linear_16_367)"/>
<path d="M19060.1 4537.91C19068.4 4545.15 19061.7 4557.92 19057.6 4569.31C18737.9 4873.78 18403.2 5107.9 18047.6 5249.02C18031.2 5253.5 18033.4 5245.16 18042.3 5231.39C18389.4 5036.77 18726.8 4795.17 19060.1 4537.91Z" fill="#FCF9FC"/>
<path d="M2166.16 5719.25C2187.2 5730.49 2208.72 5740.43 2229.17 5753.31C2325 5814.39 2433.04 5829.43 2535.87 5796.01C2610.29 5773.68 2650.47 5806.44 2666.64 5894.77C2680.07 5967.94 2662 6001.18 2604.35 5999.23C2511.62 5996.13 2426.03 5950.34 2342.81 5905.2C2272.08 5866.38 2207.49 5809.15 2152.61 5736.68C2150.35 5722.02 2153.2 5713.71 2166.16 5719.25Z" fill="#FEFDFE"/>
<path d="M12000 6405.19C12212.5 6110.05 12414.2 5799 12691.2 5598.6C12704 5595.27 12708.6 5602.49 12706.5 5618.59C12504.3 5857.29 12301.9 6095.87 12099.5 6334.32C12074.6 6363.56 12048.2 6390.76 12022.6 6418.7C12009.9 6429.43 12000.3 6430.91 12000 6405.19Z" fill="url(#paint5_linear_16_367)"/>
<path d="M4674.04 4892.63C4570.13 4979.79 4465.16 5064.88 4348.33 5120.24C4314.53 5136.72 4266.58 5166.66 4250.85 5097.82C4237.32 5038.28 4269.42 4998.77 4318.7 4987.18C4439.93 4956.07 4559.47 4913.77 4676.51 4860.58C4678.2 4862.7 4679.5 4865.34 4680.31 4868.27C4681.11 4871.2 4681.41 4874.35 4681.17 4877.47C4680.93 4880.58 4680.16 4883.58 4678.92 4886.21C4677.68 4888.84 4676.01 4891.04 4674.04 4892.63Z" fill="#FAF6FA"/>
<path d="M5961.02 3981.33C6109.46 4088.03 6251.22 4165.92 6414.37 4142.54C6442.45 4138.48 6491.01 4144.66 6490.45 4098.07C6489.88 4051.48 6441.43 4068.25 6414.03 4069.51C6285.64 4073.04 6163.56 4037.25 6043.32 3987.58C6006.07 3971.62 6005.97 3971.98 5961.02 3981.33Z" fill="#FCF9FC"/>
<path fill-rule="evenodd" clip-rule="evenodd" d="M9524.58 6310.36C9286.89 6203.1 9066.13 6049.26 8848.94 5885.66L8848.94 5885.66C8840.41 5870.82 8828.3 5860.64 8814.79 5856.94L8814.84 5856.89L8779.97 5827.93C8779.65 5827.75 8779.33 5827.58 8779.02 5827.42C8777.85 5826.08 8776.69 5824.72 8775.53 5823.36C8764.96 5810.95 8754.3 5798.43 8737.09 5803.86C8739.71 5813.12 8743.85 5821.43 8749.19 5828.15C8754.53 5834.86 8760.93 5839.8 8767.89 5842.58L8768.31 5842.05C8768.33 5842.23 8768.36 5842.41 8768.4 5842.58L8801.83 5871.99L8801.86 5872.23L8836.21 5901.36L8836.36 5901.18C8836.39 5901.47 8836.43 5901.76 8836.47 5902.06C8927.87 5989.03 9025.05 6064.19 9122.15 6139.3C9146.56 6158.18 9170.97 6177.06 9195.28 6196.12C9476.73 6416.75 9774.6 6549.13 10108.5 6495.59C10114 6494.69 10119.5 6493.82 10125.1 6492.96C10175.6 6485.04 10226.3 6477.11 10273.9 6446.93C10147 6414.31 10018.3 6396.81 9889.24 6394.6C9765.16 6393.87 9641.99 6365.41 9524.58 6310.36Z" fill="white"/>
<path fill-rule="evenodd" clip-rule="evenodd" d="M10011.8 7031.84C9758.26 6990.81 9510.88 6890.28 9264.8 6777.27L9264.8 6777.27L9264.8 6777.27C9253.29 6763.14 9239.34 6755.62 9225.45 6756.05L9225.49 6755.97L9185.4 6734.73C9185.04 6734.63 9184.69 6734.55 9184.36 6734.47C9182.94 6733.34 9181.51 6732.17 9180.09 6731.01C9167.14 6720.39 9154.08 6709.67 9138.62 6721.89C9143.19 6731.65 9149.02 6739.78 9155.67 6745.66C9162.31 6751.54 9169.58 6755 9176.92 6755.79L9177.21 6755.04C9177.28 6755.23 9177.35 6755.42 9177.41 6755.62L9216.23 6777.87L9216.3 6778.14L9255.94 6799.76L9256.04 6799.5L9256.14 6799.81C9256.2 6800.03 9256.27 6800.25 9256.34 6800.48C9363.88 6868.9 9474.41 6921.72 9584.86 6974.51L9584.86 6974.51L9584.86 6974.51C9612.63 6987.78 9640.39 7001.05 9668.09 7014.56C9988.87 7170.94 10306.1 7220.01 10617.4 7042.53C10622.5 7039.58 10627.7 7036.66 10632.8 7033.74L10632.8 7033.74C10680 7007.1 10727.3 6980.37 10766.7 6929.11C10636.8 6935.58 10508.4 6960.07 10383.1 7002.32C10262.9 7044.52 10137.5 7054.5 10011.8 7031.84Z" fill="url(#paint6_linear_16_367)"/>
<path d="M396.415 5177.87C644.474 5081.3 889.465 5055.48 1132.07 5202.6C1259.11 5280.36 1380.58 5366.67 1491.94 5477.71C1550.01 5535.56 1616.94 5571.01 1683.98 5606.32C1696.82 5613.16 1718.87 5613.63 1714.55 5639.91C1711.03 5661.21 1691.82 5661.37 1676.37 5662.15C1596.83 5666.5 1529.67 5621.09 1464.9 5568.84C1378.88 5500.41 1295.25 5426.54 1208.32 5360.14C1016.51 5213.64 804.583 5178.34 587.318 5177.25C523.684 5177.56 460.049 5177.87 396.415 5177.87Z" fill="#FEFDFE"/>
<path d="M2644.36 6544.32C2776.11 6415.33 2929.43 6404.1 3083.17 6397.09C3159.72 6393.8 3236.28 6389.29 3312.66 6389.89C3568.03 6391.86 3749.72 6208.42 3911.71 5974.21C3954.05 5913.07 3995.58 5851.18 4046.69 5775.95C4045.71 5856.44 4012.87 5897.28 3991.81 5943.24C3905.09 6133.28 3799 6300.17 3657.61 6426.85C3472.7 6592.09 3267 6560.33 3063.83 6554.42C2934.79 6550.65 2806.02 6505.62 2676.35 6556.96C2660.81 6570.4 2646.75 6580.57 2644.36 6544.32Z" fill="url(#paint7_linear_16_367)"/>
<path d="M16935.7 5003.45C16720.2 5011.72 16520.6 4924.84 16325.2 4820.94C16017.5 4657.2 15718.5 4467.67 15418.1 4282.65C15039.9 4049.56 14639.1 3957.17 14225.4 3943.4C14056.9 3938.15 13888 3937.14 13718.5 3953.92C13786.8 3888.82 13867.5 3878.81 13944.6 3862.54C14486.6 3751.37 15007.6 3830.99 15506.9 4144.7C15794.1 4325.46 16078.1 4514.24 16358.8 4711.03C16541.4 4837.96 16729 4941.36 16933.7 4986.43C16938.8 4989.18 16940.8 4992.44 16939.7 4996.44C16938.6 5000.45 16937.2 5003.45 16935.7 5003.45Z" fill="#FFFEFF"/>
<path d="M17340.8 4947.99C17362.2 4946.38 17383.7 4943.4 17405.1 4943.52C17505.7 4944.77 17603.7 4899.55 17683.2 4815.16C17741.3 4755.7 17785.5 4762.42 17824.8 4830.21C17857.5 4886.35 17851.3 4924.89 17800.8 4954.28C17719.6 5001.59 17632.3 5008.06 17547.2 5013.82C17474.8 5018.33 17402.4 5003.59 17334 4970.4C17327.9 4958.91 17328 4950.17 17340.8 4947.99Z" fill="#FEFDFE"/>
<path d="M6981.64 4541.3C6876.69 4628.47 6745.16 4621.66 6609.54 4597.54C6395.94 4559.44 6177.36 4494.23 5959.69 4433.72C5685.6 4357.41 5451.25 4419.76 5239.03 4559.65C5152.69 4616.98 5067.7 4678.39 4988.89 4756.46C4999.47 4670.97 5036.27 4631.91 5068.97 4588.4C5300.13 4285.43 5590.04 4166.91 5954.07 4273.21C6163.57 4334.64 6374.37 4404.69 6586.47 4483.34C6724.04 4533.52 6855.54 4560.07 6974.46 4526.27C6978.02 4526.93 6980.21 4529.21 6981.11 4533.32C6982.02 4537.44 6982.38 4540.76 6981.64 4541.3Z" fill="#FFFEFF"/>
<path fill-rule="evenodd" clip-rule="evenodd" d="M12712.9 4666.66L12700 4681.21C12387.7 5031.99 12074.8 5383.55 11729.2 5676.17C11488 5880.47 11226.7 6041.37 10938.1 6102.33C10753.9 6141.12 10569.2 6142.97 10386.4 6082.01C10384.2 6081.31 10382 6080.76 10379.7 6080.21C10368.2 6077.37 10356.4 6074.47 10347.7 6051.9C10386.6 6046.98 10425.2 6041.76 10463.6 6036.56L10463.6 6036.56C10549.3 6024.97 10634.1 6013.5 10719.1 6005.72C11003.8 5979.49 11262.4 5845.38 11510.2 5673.21C11775.9 5489.12 12021.8 5264.45 12267.7 5039.8C12349 4965.54 12430.3 4891.29 12512.3 4818.5C12558.2 4777.78 12604 4736.37 12649.8 4694.99L12649.8 4694.97L12649.8 4694.94C12666.3 4680.02 12682.8 4665.1 12699.3 4650.22C12699.6 4650.09 12699.9 4649.97 12700.2 4649.85L12761.2 4589.52L12761.2 4589.44L12809.8 4540.49C12808.5 4554.72 12804.5 4568.22 12798.1 4579.56C12791.7 4590.84 12783.3 4599.58 12773.6 4604.88C12773.6 4604.91 12773.6 4604.93 12773.6 4604.96L12712.9 4666.66L12712.9 4666.66Z" fill="white"/>
<path d="M1144.27 6070.63C1488.94 6049.36 1785.28 6173.33 2017 6541.8C1862.24 6442.18 1732.5 6333.89 1590.66 6254.09C1448.82 6174.29 1293.58 6132.9 1144.27 6070.63Z" fill="url(#paint8_linear_16_367)"/>
<defs>
<linearGradient id="paint0_linear_16_367" x1="-1456.68" y1="22372.3" x2="22058.5" y2="16481.6" gradientUnits="userSpaceOnUse">
<stop stop-color="#B28DFF"/>
<stop offset="0.333333" stop-color="#C5A3FF"/>
<stop offset="0.541667" stop-color="#D7B8FF"/>
<stop offset="0.760417" stop-color="#D1B1FF"/>
<stop offset="1" stop-color="#BC98FF"/>
</linearGradient>
<linearGradient id="paint1_linear_16_367" x1="4562.6" y1="6471.97" x2="5224.24" y2="6456.11" gradientUnits="userSpaceOnUse">
<stop stop-color="#B28DFF"/>
<stop offset="0.333333" stop-color="#C5A3FF"/>
<stop offset="0.541667" stop-color="#D7B8FF"/>
<stop offset="0.760417" stop-color="#D1B1FF"/>
<stop offset="1" stop-color="#BC98FF"/>
</linearGradient>
<linearGradient id="paint2_linear_16_367" x1="13346.5" y1="6032.53" x2="15271.1" y2="5037.16" gradientUnits="userSpaceOnUse">
<stop stop-color="#B28DFF"/>
<stop offset="0.333333" stop-color="#C5A3FF"/>
<stop offset="0.541667" stop-color="#D7B8FF"/>
<stop offset="0.760417" stop-color="#D1B1FF"/>
<stop offset="1" stop-color="#BC98FF"/>
</linearGradient>
<linearGradient id="paint3_linear_16_367" x1="15062.7" y1="7354.86" x2="18192.9" y2="7331.22" gradientUnits="userSpaceOnUse">
<stop stop-color="#B28DFF"/>
<stop offset="0.333333" stop-color="#C5A3FF"/>
<stop offset="0.541667" stop-color="#D7B8FF"/>
<stop offset="0.760417" stop-color="#D1B1FF"/>
<stop offset="1" stop-color="#BC98FF"/>
</linearGradient>
<linearGradient id="paint4_linear_16_367" x1="13102.6" y1="6250.31" x2="13683.5" y2="6161.21" gradientUnits="userSpaceOnUse">
<stop stop-color="#B28DFF"/>
<stop offset="0.333333" stop-color="#C5A3FF"/>
<stop offset="0.541667" stop-color="#D7B8FF"/>
<stop offset="0.760417" stop-color="#D1B1FF"/>
<stop offset="1" stop-color="#BC98FF"/>
</linearGradient>
<linearGradient id="paint5_linear_16_367" x1="11946" y1="8354.99" x2="12867.2" y2="8285.57" gradientUnits="userSpaceOnUse">
<stop stop-color="#B28DFF"/>
<stop offset="0.333333" stop-color="#C5A3FF"/>
<stop offset="0.541667" stop-color="#D7B8FF"/>
<stop offset="0.760417" stop-color="#D1B1FF"/>
<stop offset="1" stop-color="#BC98FF"/>
</linearGradient>
<linearGradient id="paint6_linear_16_367" x1="9540.49" y1="9463.09" x2="11478.7" y2="8737.65" gradientUnits="userSpaceOnUse">
<stop stop-color="#B28DFF"/>
<stop offset="0.333333" stop-color="#C5A3FF"/>
<stop offset="0.541667" stop-color="#D7B8FF"/>
<stop offset="0.760417" stop-color="#D1B1FF"/>
<stop offset="1" stop-color="#BC98FF"/>
</linearGradient>
<linearGradient id="paint7_linear_16_367" x1="2749.57" y1="8138.02" x2="4583" y2="7442.78" gradientUnits="userSpaceOnUse">
<stop stop-color="#B28DFF"/>
<stop offset="0.333333" stop-color="#C5A3FF"/>
<stop offset="0.541667" stop-color="#D7B8FF"/>
<stop offset="0.760417" stop-color="#D1B1FF"/>
<stop offset="1" stop-color="#BC98FF"/>
</linearGradient>
<linearGradient id="paint8_linear_16_367" x1="1089.93" y1="7683.99" x2="2200.84" y2="7499.47" gradientUnits="userSpaceOnUse">
<stop stop-color="#B28DFF"/>
<stop offset="0.333333" stop-color="#C5A3FF"/>
<stop offset="0.541667" stop-color="#D7B8FF"/>
<stop offset="0.760417" stop-color="#D1B1FF"/>
<stop offset="1" stop-color="#BC98FF"/>
</linearGradient>
</defs>
</svg>
