<svg xmlns="http://www.w3.org/2000/svg" xmlns:xlink="http://www.w3.org/1999/xlink" viewBox="0 0 13504 2170"><defs><style>.cls-1{isolation:isolate;}.cls-11,.cls-12,.cls-2{fill:#fff;}.cls-3{fill:#d77da1;}.cls-4,.cls-5{fill:none;stroke:#d77da1;stroke-linecap:round;stroke-linejoin:round;}.cls-4{stroke-width:25.51px;}.cls-5{stroke-width:28.35px;}.cls-6{fill:url(#Dégradé_sans_nom_116);}.cls-7{fill:url(#Dégradé_sans_nom_116-2);}.cls-8{fill:url(#Dégradé_sans_nom_116-3);}.cls-9{fill:url(#Dégradé_sans_nom_116-4);}.cls-10{fill:url(#Dégradé_sans_nom_116-5);}.cls-11,.cls-12{mix-blend-mode:multiply;}.cls-11{opacity:0.3;}</style><linearGradient id="Dégradé_sans_nom_116" x1="5572.73" y1="-338.77" x2="5581.18" y2="-338.77" gradientTransform="matrix(0.51, -0.86, 0.86, 0.51, 2431.65, 6111.96)" gradientUnits="userSpaceOnUse"><stop offset="0" stop-color="#d77da1"/><stop offset="0.2" stop-color="#d77da1"/><stop offset="0.45" stop-color="#eac2ce"/><stop offset="0.64" stop-color="#eac2ce"/><stop offset="0.81" stop-color="#d77da1"/><stop offset="1" stop-color="#d77da1"/></linearGradient><linearGradient id="Dégradé_sans_nom_116-2" x1="6092.5" y1="-677.24" x2="6100.94" y2="-677.24" gradientTransform="translate(4988.22 7368.08) rotate(-83.62)" xlink:href="#Dégradé_sans_nom_116"/><linearGradient id="Dégradé_sans_nom_116-3" x1="7052.54" y1="-744.53" x2="7060.98" y2="-744.53" gradientTransform="translate(9084.2 7112.67) rotate(-119.17)" xlink:href="#Dégradé_sans_nom_116"/><linearGradient id="Dégradé_sans_nom_116-4" x1="5184.63" y1="1146.69" x2="5193.07" y2="1146.69" gradientTransform="translate(-27.81 -150.38) rotate(0.84)" xlink:href="#Dégradé_sans_nom_116"/><linearGradient id="Dégradé_sans_nom_116-5" x1="5124.59" y1="513.35" x2="5133.04" y2="513.35" gradientTransform="translate(162.34 2692.3) rotate(-23.62)" xlink:href="#Dégradé_sans_nom_116"/></defs><g class="cls-1"><g id="Calque_5" data-name="Calque 5"><rect width="13504" height="2170"/></g><g id="Calque_1" data-name="Calque 1"><path class="cls-2" d="M2670.8,492.52V476.58q66.16,3,89.68,3,14.58,0,93.19-3v15.94q-48.63,8.37-57,11.07-5.94,1.91-8.64,6-4.05,5.67-4.59,23.5t-.54,199.88q0,35.94.81,95.9h119.12q26.74,0,34.84-3.25t16.75-14.31q8.64-11.07,32.42-55.65h23l-21.61,60.24q-5.67,16.75-13.78,44-111.72-3-194.58-3-58.57,0-108.76,3V843.94q41.14-7.56,48.4-10.4t9.82-7.7q2.55-4.86,2.56-28.36l1.35-165.58-.81-106.7q0-13.77-4.06-17.28-6.21-5.4-40-11.35Q2682.41,495.49,2670.8,492.52Z"/><path class="cls-2" d="M3144.31,645.68h65.37q37.82,0,44.57-2a19.76,19.76,0,0,0,10.94-8.24q4.18-6.21,10.4-35.92.81-3,2.43-9.19h17.83q-3,44.57-3,68.61,0,24.86,3,68.07H3278q-7.83-39.16-9.72-43.76a16.92,16.92,0,0,0-9.46-9.32q-6.75-2.83-40.24-2.83h-74l1.36,158.83h113.17l10-.27q23.22,0,29.17-1.89a44.69,44.69,0,0,0,18.1-11.76q7.83-8.24,28.9-46.59,2.16-3.78,6.48-11.08h18.64q-3.24,8.66-33.49,101.57-98.32-3-179.63-3-56.73,0-125.33,3V843.94l43.75-9.45q10.55-3,13-5.94,4-5.13,4-21.34v-4.87l1.35-63.47q.27-18.37.27-72.12,0-78.07-.54-114.4t-2.7-41.19a12.77,12.77,0,0,0-5-5.27q-3.37-2-25-6.89L3032,492.52V476.58q50.78,3,121.28,3,38.63,0,183.68-3a781.27,781.27,0,0,0,6.48,92.38h-18.91q-10.8-36.74-17.55-48.89-4.6-8.37-11.35-11.07-8.91-3.51-39.44-3.51H3147l-1.9,87Z"/><path class="cls-2" d="M3647.54,579.77H3627q-7-34.68-15.93-50.67T3583.93,504Q3565.71,495,3543,495q-32.16,0-51.19,17.85t-19,43.26q0,22.46,15.65,39.21,15.39,16.77,75.26,42.35t81.45,52.9q21.32,27.6,21.31,62a108.65,108.65,0,0,1-16.07,57.35q-16.08,26.52-48.35,42.34A155.93,155.93,0,0,1,3532.47,868a271.54,271.54,0,0,1-50.91-4.86q-25.53-4.86-61.19-16.75,4.07-38.08,4.06-101h20.8q8.89,40.51,18.47,56.72t29,26.61a88.73,88.73,0,0,0,42.61,10.4q31.82,0,55.82-17.84t24-50q0-26.24-17.29-46.5-17.57-20-76-45.28T3443.6,631q-19.72-22.94-19.71-54.79,0-27.79,15.93-53t46.87-39.95a147.61,147.61,0,0,1,64.15-14.71q40,0,96.7,19.18-1.35,39.44-1.35,47.54Q3646.19,551.69,3647.54,579.77Z"/><path class="cls-2" d="M3848.24,492.52V476.58q34.85,3,89.14,3l106.69-1.08q59.43,0,86.71,25.12,27.29,25.4,27.28,68.88,0,50.52-36.73,84.69t-101,34.17q-24.86,0-58.88-7-.28,42.15-.27,60.24,0,68.61,2.7,79.68a10.75,10.75,0,0,0,5.13,7q7.56,4.32,50.78,10.53,3.78.54,10.81,2.16v15.94q-51.33-3-95.89-3-42.13,0-86.44,3V843.94q10.53-2.7,15.67-3.51,35.65-7.29,39.7-10.53,6.75-5.94,6.76-31.61l.81-130.73-.27-130.74v-5.94q0-17.29-5.27-22.15t-43.89-13Q3857.42,494.68,3848.24,492.52Zm113.45,169.09q28.62,6.48,49.16,6.49,44.3,0,68.48-23.23T4103.5,583q0-37.54-22.28-58.62T4013,503.32q-20.25,0-48.89,4.33Q3962,589.22,3961.69,661.61Z"/><path class="cls-2" d="M4299.88,645.68h65.36q37.83,0,44.57-2a19.76,19.76,0,0,0,10.94-8.24q4.18-6.21,10.4-35.92.81-3,2.43-9.19h17.83q-3,44.57-3,68.61,0,24.86,3,68.07h-17.83q-7.83-39.16-9.72-43.76a16.9,16.9,0,0,0-9.45-9.32q-6.77-2.83-40.25-2.83h-74l1.35,158.83h113.18l10-.27q23.23,0,29.17-1.89a44.62,44.62,0,0,0,18.1-11.76q7.83-8.24,28.9-46.59,2.16-3.78,6.49-11.08H4526q-3.24,8.66-33.49,101.57-98.32-3-179.63-3-56.72,0-125.33,3V843.94l43.76-9.45q10.53-3,13-5.94,4.05-5.13,4.05-21.34v-4.87l1.35-63.47q.27-18.37.27-72.12,0-78.07-.54-114.4t-2.7-41.19a12.74,12.74,0,0,0-5-5.27q-3.39-2-25-6.89l-29.17-6.48V476.58q50.77,3,121.28,3,38.63,0,183.68-3A785.54,785.54,0,0,0,4499,569H4480q-10.8-36.74-17.55-48.89-4.6-8.37-11.35-11.07-8.91-3.51-39.44-3.51H4302.58l-1.89,87Z"/><path class="cls-2" d="M4577.83,581.93H4557q5.11-47,9.18-105.35,119.56,3,170.57,3,42.38,0,154.38-3,3.51,60.24,8.11,105.35H4879q-12.67-49.44-16.44-57.94t-10.92-12.16q-7.14-3.65-36.25-3.64h-59.84q-2.16,71.85-2.16,177.73,0,98.33,2.16,132.9.54,8.1,4.06,11.08,4.59,3.78,44.56,11.61,3.8.54,11.35,2.43v15.94q-53.49-3-95.35-3-39.7,0-81.31,3V843.94q9.47-2.43,14.32-3.24,37-6.21,42.68-10.53a13.11,13.11,0,0,0,3.64-6.08q1.21-3.92,2-59.83,1.08-86.44,1.08-128,0-72.66-1.08-128h-64.29l-11.61.27q-15.41,0-20.26,3.24-7.56,4.59-13.51,19.45Q4587.28,542.49,4577.83,581.93Z"/><path class="cls-2" d="M5097.8,476.58v15.94c-6.31,1.44-11,2.43-14,3q-35.92,6.21-41.6,11.75T5036.49,532v9.45L5035.14,650l.81,157.75q0,18.9,5.53,24t38,8.91c4.15.54,10.17,1.62,18.1,3.24v15.94q-43.5-3-83.73-3-41.61,0-91.3,3V843.94a97.36,97.36,0,0,1,11.88-2.7q38.35-6.21,43.9-11.48t5.53-26.61l-.54-13.5.81-99.13q0-152.89-.81-169.1-.54-8.91-5.78-13.77T4936.75,496q-4.84-1.08-14.25-3.51V476.58q58.69,3,91.71,3Q5051,479.55,5097.8,476.58Z"/><path class="cls-2" d="M5142.64,581.93h-20.8q5.13-47,9.19-105.35,119.55,3,170.57,3,42.38,0,154.38-3,3.5,60.24,8.1,105.35h-20.26q-12.66-49.44-16.44-57.94t-10.92-12.16q-7.12-3.65-36.25-3.64h-59.83q-2.18,71.85-2.16,177.73,0,98.33,2.16,132.9.54,8.1,4.05,11.08,4.59,3.78,44.57,11.61,3.78.54,11.34,2.43v15.94q-53.48-3-95.35-3-39.7,0-81.3,3V843.94q9.45-2.43,14.31-3.24,37-6.21,42.68-10.53a13.12,13.12,0,0,0,3.65-6.08q1.22-3.92,2-59.83,1.06-86.44,1.08-128,0-72.66-1.08-128h-64.29l-11.62.27q-15.39,0-20.26,3.24-7.56,4.59-13.5,19.45Q5152.09,542.49,5142.64,581.93Z"/><path class="cls-2" d="M5596.44,645.68h65.37q37.81,0,44.57-2a19.82,19.82,0,0,0,10.94-8.24q4.18-6.21,10.4-35.92.81-3,2.43-9.19H5748q-3,44.57-3,68.61,0,24.86,3,68.07h-17.82q-7.84-39.16-9.73-43.76a16.87,16.87,0,0,0-9.45-9.32q-6.75-2.83-40.25-2.83h-74l1.35,158.83h113.18l10-.27q23.24,0,29.18-1.89A44.59,44.59,0,0,0,5768.5,816q7.84-8.24,28.91-46.59,2.16-3.78,6.48-11.08h18.64q-3.24,8.66-33.5,101.57-98.32-3-179.63-3-56.71,0-125.33,3V843.94l43.76-9.45q10.53-3,13-5.94,4.06-5.13,4.06-21.34v-4.87l1.35-63.47q.26-18.37.27-72.12,0-78.07-.54-114.4t-2.7-41.19a12.77,12.77,0,0,0-5-5.27q-3.39-2-25-6.89l-29.17-6.48V476.58q50.78,3,121.28,3,38.63,0,183.68-3a785.54,785.54,0,0,0,6.48,92.38h-18.9q-10.81-36.74-17.56-48.89-4.61-8.37-11.35-11.07-8.91-3.51-39.43-3.51H5599.14l-1.89,87Z"/><path class="cls-2" d="M6099.67,579.77h-20.53q-7-34.68-15.94-50.67T6036.05,504q-18.23-9.07-40.92-9.08-32.15,0-51.19,17.85t-19,43.26q0,22.46,15.66,39.21,15.38,16.77,75.26,42.35t81.45,52.9q21.3,27.6,21.31,62a108.66,108.66,0,0,1-16.08,57.35q-16.07,26.52-48.35,42.34A155.86,155.86,0,0,1,5984.6,868a271.72,271.72,0,0,1-50.92-4.86q-25.53-4.86-61.18-16.75,4-38.08,4.05-101h20.8q8.89,40.51,18.47,56.72t29,26.61a88.76,88.76,0,0,0,42.61,10.4q31.83,0,55.83-17.84t24-50q0-26.24-17.28-46.5-17.56-20-76-45.28T5895.73,631Q5876,608,5876,576.17q0-27.79,15.94-53t46.86-39.95A147.67,147.67,0,0,1,6003,468.48q40,0,96.71,19.18-1.36,39.44-1.35,47.54Q6098.32,551.69,6099.67,579.77Z"/><path class="cls-2" d="M6290.64,492.52V476.58q45.12,3,68.62,3,26.74,0,57.55-3,11.05,28.38,17.79,43.25,8.89,20,70.36,151.62,26.16,55.95,52.85,109.19l115.28-242.71q10.53-22.42,25.11-61.35,36.21,3,55.39,3,17.83,0,60.27-3v15.94q-8.11,2.16-12.16,3-37.54,7.58-41.87,11.08-7,5.4-7,27.28v3.51L6751.73,623q0,161.53,1.35,196.1.27,7.29,4.19,10.81t46,11.61q3.51.54,10.54,2.43v15.94q-48.63-3-85.63-3-37.83,0-89.41,3V843.94q10.53-2.7,15.94-3.78,33-6.21,37.68-8.78a12.91,12.91,0,0,0,6.35-7.16q2.43-7.83,2.43-43.76V544.65q-24.57,48.63-110.92,234.19-23.76,51.06-35.09,78.07h-15.38q-60.45-134.25-148.17-312.26l3.52,251.75q0,30,4.86,34.31t40.78,10.53q4.07.81,12.43,2.7v15.94q-46.74-3-75.63-3t-76.45,3V843.94a104.17,104.17,0,0,1,11.62-2.7q35.66-7,40-12.15,6.48-7.56,6.75-37l1.35-60.78q1.35-83.19,1.35-161.26l-.27-32.95q0-19.71-2.43-24.72a14.23,14.23,0,0,0-7.83-7.15q-10.27-4.07-45.92-9.46Q6300.63,495,6290.64,492.52Z"/><path class="cls-2" d="M6947.83,645.68h65.37q37.81,0,44.57-2a19.76,19.76,0,0,0,10.94-8.24q4.19-6.21,10.4-35.92.81-3,2.43-9.19h17.83q-3,44.57-3,68.61,0,24.86,3,68.07h-17.83q-7.83-39.16-9.72-43.76a16.89,16.89,0,0,0-9.46-9.32q-6.75-2.83-40.24-2.83h-74l1.35,158.83h113.17l10-.27q23.23,0,29.17-1.89A44.69,44.69,0,0,0,7119.9,816q7.83-8.24,28.9-46.59,2.16-3.78,6.48-11.08h18.64q-3.24,8.66-33.49,101.57-98.33-3-179.63-3-56.73,0-125.33,3V843.94l43.76-9.45q10.53-3,13-5.94,4.05-5.13,4.05-21.34v-4.87l1.35-63.47q.27-18.37.27-72.12,0-78.07-.54-114.4t-2.7-41.19a12.7,12.7,0,0,0-5-5.27q-3.37-2-25-6.89l-29.17-6.48V476.58q50.77,3,121.28,3,38.63,0,183.68-3a785.54,785.54,0,0,0,6.48,92.38H7128q-10.8-36.74-17.55-48.89-4.6-8.37-11.35-11.07-8.91-3.51-39.44-3.51H6950.54l-1.89,87Z"/><path class="cls-2" d="M7204.18,492.52V476.58q71.57,3,114.8,3,24.84,0,46.46-.54,28.62-1.06,39.7-1.08,52.68,0,79.42,24.86Q7511,527.92,7511,570.6q0,28.64-12,50.65t-34.72,37.15q-16.48,10.82-47,19.18l90,117.21q16.74,21.88,21.07,25.66a59.89,59.89,0,0,0,17.56,9.72q15.14,5.94,51.07,13.77v15.94q-42.69-3-62.13-3a366.12,366.12,0,0,0-45.92,3q-12.15-20.26-32.95-50.92t-25.4-36.33q-2.7-3.24-5.13-6.75L7366,684.3q-24.06-.54-48.62-3.51l2.16,136.14q.54,8.1,4.86,12.16,6.48,5.4,40.52,11.61,4.86.81,14.85,3.24v15.94q-48.89-3-86.16-3-40,0-89.41,3V843.94l11.61-2.43q38.63-7.29,43.9-12t6.07-16.88q.54-7.83,1.35-138.84l-1.08-127q-.27-29.17-1.48-33.49a10.24,10.24,0,0,0-5.27-6.48q-13.23-7-41.87-11.62Q7213.09,494.41,7204.18,492.52Zm113.18,165.31q28.08,3,43.48,3,49.17,0,72.8-21.92T7457.28,578q0-34.1-20.94-53.84t-60.91-19.76q-14.33,0-56.45,3.25Z"/><path class="cls-2" d="M7741.71,868h-17.83q-35.11-102.91-85.63-232-42.14-107.51-48.08-118.58a32.4,32.4,0,0,0-9.72-11.21q-5.67-3.92-40.25-13.64V476.58q58.35,3,76.72,3,26.19,0,76.71-3v15.94q-4.86,1.35-7.29,1.89-26.49,6.48-31.2,10.4t-4.73,9.05a24.65,24.65,0,0,0,.81,5.94q4.86,19.73,40.47,117L7743,778.14q33.26-85.93,58.14-159.16,31.38-91.61,33.54-101.61a15.87,15.87,0,0,0,.54-3.78,10.23,10.23,0,0,0-4.05-8.37q-5.94-4.59-39.44-13.51V476.58q1.62,0,19.45.81,41.59,2.17,53.48,2.16,22.95,0,54.84-3v15.13q-28.11,7.29-35.66,12.83t-15.67,24.18Q7851.65,566,7785.2,748.59Z"/><path class="cls-2" d="M8045.59,645.68H8111q37.81,0,44.57-2a19.79,19.79,0,0,0,10.94-8.24q4.19-6.21,10.4-35.92.81-3,2.43-9.19h17.83q-3,44.57-3,68.61,0,24.86,3,68.07H8179.3q-7.85-39.16-9.72-43.76a16.92,16.92,0,0,0-9.46-9.32q-6.75-2.83-40.25-2.83h-74l1.35,158.83h113.18l10-.27q23.22,0,29.17-1.89a44.69,44.69,0,0,0,18.1-11.76q7.83-8.24,28.9-46.59,2.16-3.78,6.48-11.08h18.64q-3.24,8.66-33.5,101.57-98.31-3-179.62-3-56.73,0-125.34,3V843.94l43.76-9.45q10.53-3,13-5.94,4.05-5.13,4.05-21.34v-4.87l1.35-63.47q.27-18.37.27-72.12,0-78.07-.54-114.4t-2.7-41.19a12.77,12.77,0,0,0-5-5.27q-3.37-2-25-6.89l-29.18-6.48V476.58q50.79,3,121.29,3,38.63,0,183.67-3a787.69,787.69,0,0,0,6.49,92.38h-18.91q-10.8-36.74-17.56-48.89-4.59-8.37-11.34-11.07-8.93-3.51-39.44-3.51H8048.29l-1.89,87Z"/><path class="cls-2" d="M8480.75,476.58v15.94c-6.31,1.44-11,2.43-14,3q-35.93,6.21-41.59,11.75T8419.43,532v9.45L8418.08,650l.81,157.75q0,18.9,5.54,24t37.95,8.91q6.21.81,18.1,3.24v15.94q-43.5-3-83.74-3-41.59,0-91.3,3V843.94a97.84,97.84,0,0,1,11.89-2.7q38.35-6.21,43.89-11.48t5.54-26.61l-.54-13.5.81-99.13q0-152.89-.81-169.1-.54-8.91-5.78-13.77T8319.7,496q-4.85-1.08-14.26-3.51V476.58q58.71,3,91.71,3Q8433.95,479.55,8480.75,476.58Z"/><path class="cls-2" d="M8505.87,492.52V476.58q66.18,3,89.68,3,14.58,0,93.19-3v15.94q-48.61,8.37-57,11.07-6,1.91-8.65,6-4.05,5.67-4.59,23.5T8618,732.92q0,35.94.81,95.9H8737.9q26.75,0,34.85-3.25t16.74-14.31q8.66-11.07,32.42-55.65h23l-21.61,60.24q-5.67,16.75-13.78,44-111.72-3-194.58-3-58.56,0-108.76,3V843.94q41.15-7.56,48.41-10.4c4.84-1.89,8.1-4.45,9.81-7.7s2.56-12.69,2.56-28.36l1.35-165.58-.81-106.7q0-13.77-4-17.28-6.22-5.4-40-11.35Q8517.49,495.49,8505.87,492.52Z"/><path class="cls-2" d="M8868.64,492.52V476.58q66.18,3,89.68,3,14.58,0,93.19-3v15.94q-48.63,8.37-57,11.07-5.94,1.91-8.64,6-4.05,5.67-4.59,23.5t-.54,199.88q0,35.94.81,95.9h119.12q26.75,0,34.84-3.25t16.75-14.31q8.64-11.07,32.42-55.65h23L9186,815.85q-5.69,16.75-13.78,44-111.72-3-194.58-3-58.56,0-108.76,3V843.94q41.15-7.56,48.4-10.4t9.82-7.7q2.55-4.86,2.55-28.36L8931,631.9l-.81-106.7q0-13.77-4.06-17.28-6.21-5.4-40-11.35Q8880.24,495.49,8868.64,492.52Z"/><path class="cls-2" d="M9342.15,645.68h65.37q37.81,0,44.57-2a19.76,19.76,0,0,0,10.94-8.24q4.18-6.21,10.4-35.92.81-3,2.43-9.19h17.83q-3,44.57-3,68.61,0,24.86,3,68.07h-17.83q-7.83-39.16-9.72-43.76a16.89,16.89,0,0,0-9.46-9.32q-6.75-2.83-40.24-2.83h-74l1.35,158.83H9457l10-.27q23.22,0,29.17-1.89a44.69,44.69,0,0,0,18.1-11.76q7.83-8.24,28.9-46.59,2.16-3.78,6.48-11.08h18.64Q9565,767,9534.75,859.88q-98.32-3-179.63-3-56.73,0-125.33,3V843.94l43.75-9.45q10.54-3,13-5.94,4-5.13,4-21.34v-4.87l1.35-63.47q.27-18.37.27-72.12,0-78.07-.54-114.4t-2.7-41.19a12.77,12.77,0,0,0-5-5.27q-3.37-2-25-6.89l-29.17-6.48V476.58q50.77,3,121.28,3,38.63,0,183.68-3a785.54,785.54,0,0,0,6.48,92.38h-18.91q-10.8-36.74-17.56-48.89-4.59-8.37-11.34-11.07-8.91-3.51-39.44-3.51H9344.86l-1.9,87Z"/><path class="cls-2" d="M9845.38,579.77h-20.53q-7-34.68-15.93-50.67T9781.77,504q-18.24-9.07-40.92-9.08-32.16,0-51.19,17.85t-19,43.26q0,22.46,15.65,39.21,15.39,16.77,75.27,42.35t81.45,52.9q21.3,27.6,21.3,62a108.65,108.65,0,0,1-16.07,57.35q-16.08,26.52-48.35,42.34A155.9,155.9,0,0,1,9730.31,868a271.61,271.61,0,0,1-50.91-4.86q-25.53-4.86-61.19-16.75,4.05-38.08,4.06-101h20.79q8.91,40.51,18.48,56.72t29,26.61a88.73,88.73,0,0,0,42.61,10.4q31.82,0,55.82-17.84t24-50q0-26.24-17.29-46.5-17.57-20-76-45.28T9641.44,631q-19.71-22.94-19.71-54.79,0-27.79,15.93-53t46.87-39.95a147.64,147.64,0,0,1,64.15-14.71q40,0,96.7,19.18Q9844,527.1,9844,535.2,9844,551.69,9845.38,579.77Z"/><path class="cls-2" d="M10047.16,492.52V476.58q53.49,3,116.42,3l120.47-1.62q61.32,0,97.92,17.7t56.86,56.32q20.27,38.63,20.26,89.94,0,94.54-64.29,156.13t-172.6,61.59q-6.23,0-49.44-1.49t-50.78-1.48q-26.2,0-74.82,3.24V843.94q44-8.37,49-10t7.15-3.78a11.61,11.61,0,0,0,3-5.95q1.35-5.67,1.89-45.92,1.62-87.78,1.62-127.76l-1.62-118.31.27-9.19q0-13.5-7.84-17.28Q10096.05,503.06,10047.16,492.52Zm115.34,335.22q43.76,5.4,73.47,5.4,46.2,0,76.17-14.86,43-21.88,65.24-63.75t22.28-102.91q0-31.87-7.43-58.21t-19.85-42q-18.09-23.24-47.27-35.53t-84.28-12.29q-33.23,0-78.33,4.06-1.62,71-1.62,161Q10160.88,763.72,10162.5,827.74Z"/><path class="cls-2" d="M10607.11,645.68h65.37q37.82,0,44.57-2a19.79,19.79,0,0,0,10.94-8.24q4.19-6.21,10.4-35.92.81-3,2.43-9.19h17.83q-3,44.57-3,68.61,0,24.86,3,68.07h-17.83q-7.84-39.16-9.72-43.76a16.89,16.89,0,0,0-9.46-9.32q-6.75-2.83-40.24-2.83h-74l1.35,158.83h113.18l10-.27q23.22,0,29.17-1.89a44.69,44.69,0,0,0,18.1-11.76q7.83-8.24,28.9-46.59,2.16-3.78,6.48-11.08h18.64q-3.24,8.66-33.49,101.57-98.32-3-179.63-3-56.73,0-125.34,3V843.94l43.76-9.45q10.55-3,13-5.94,4.05-5.13,4.05-21.34v-4.87l1.35-63.47q.27-18.37.27-72.12,0-78.07-.54-114.4t-2.7-41.19a12.77,12.77,0,0,0-5-5.27q-3.37-2-25-6.89l-29.18-6.48V476.58q50.79,3,121.29,3,38.63,0,183.68-3a785.54,785.54,0,0,0,6.48,92.38h-18.91q-10.8-36.74-17.56-48.89-4.59-8.37-11.34-11.07-8.91-3.51-39.44-3.51h-109.13l-1.89,87Z"/><path class="cls-3" d="M10339.93,1384.33c-131.7-193.86-454.7-168.22-643.79-94.49-153.09,59.69-346.44,193.19-513.65,103.31-99-53.24-135.22-162.36-72.52-259.52,23.89-37,62.78-72.64,106.79-82,25.8-5.49,58.87-2.1,82.19,12.66,63.84,40.37,25.49,165.42-54,128-11.48-5.4-21.44,11.3-10,17.28,50.11,26.08,110.51,1.86,129.92-52.51,22.5-63-29.8-123.28-89.14-138.77-173.56-45.28-291.54,199.89-199.37,330.41,139.61,197.7,399,78.72,570.46,2.57,140.55-62.43,288.67-92.71,442-66.18,152.15,26.32,288.64,133,246.33,302.17-40.18,160.66-231.37,238.18-383.44,205.07-107.6-23.42-190.91-132.19-122.53-237.17,54-83,245.65-98.34,228.8,40.2-2.65,21.75,29.06,31.69,34.17,8.84,16-71.75-34.85-132.07-103.27-151-80-22.11-167.32,26.13-203.76,98.33-40.88,81-14,182.91,57.87,236.51,78.6,58.63,195.19,59.18,286.33,35.71C10313,1776.56,10460.9,1562.4,10339.93,1384.33Z"/><path class="cls-3" d="M3144.57,1388.31c130.26-191.74,449.72-166.38,636.74-93.45,151.41,59,342.64,191.07,508,102.17,98-52.65,133.75-160.58,71.73-256.67-23.63-36.62-62.09-71.84-105.62-81.09-25.52-5.43-58.22-2.08-81.3,12.52-63.13,39.92-25.2,163.61,53.37,126.65,11.34-5.34,21.21,11.17,9.84,17.08-49.56,25.8-109.3,1.84-128.49-51.93-22.26-62.32,29.47-121.93,88.15-137.24,171.67-44.79,288.35,197.69,197.19,326.78-138.08,195.54-394.65,77.86-564.2,2.54-139-61.74-285.51-91.69-437.17-65.45-150.49,26-285.48,131.6-243.64,298.86,39.75,158.9,228.84,235.57,379.24,202.82,106.43-23.17,188.82-130.74,121.19-234.57-53.46-82.08-243-97.26-226.29,39.76,2.62,21.52-28.74,31.34-33.79,8.74-15.88-71,34.46-130.62,102.13-149.34,79.09-21.86,165.49,25.85,201.53,97.26,40.43,80.12,13.82,180.91-57.24,233.92-77.74,58-193.05,58.53-283.19,35.32C3171.26,1776.25,3024.93,1564.43,3144.57,1388.31Z"/></g><g id="Calque_3" data-name="Calque 3"><path class="cls-3" d="M1324.74,1271.86c234.28,6.23,402-271,452.5-467.59,40.89-159.14,45.35-394,215.92-477.37,101-49.36,210.77-15,253.06,92.59,16.11,41,22.33,93.38,4.24,134.58-10.61,24.15-32.66,49-58.26,59.34-70,28.27-149.19-75.86-72.47-118.55,11.07-6.17,3.34-24-8.23-18.16-50.42,25.46-66,88.65-33.2,136.14,38,55,117.51,47.76,164.7,8.62,138.08-114.5,7.87-353.4-151.91-354.74-242-2-296.81,278-335.05,461.69C1724.69,879,1662.82,1016.92,1551.79,1126c-110.19,108.18-276.52,156.7-389.15,23.64-107-126.4-58.35-326.89,57.3-431,81.83-73.7,218.77-77.86,264.1,38.94,35.83,92.33-63.54,256.86-166.19,162.31-16.12-14.84-42.7,5.1-27.12,22.59,48.89,54.9,127.58,48.79,182.87,4.28,64.63-52,76.44-151.11,39.09-222.85-41.91-80.47-140.36-118.1-225.82-91.05-93.48,29.6-162,123.94-196.12,211.64C1022,1021,1109.54,1266.15,1324.74,1271.86Z"/><path class="cls-3" d="M1436.14,1179.09c-36.28,231.55-339.29,346.32-541.77,360.42-163.91,11.41-395.75-26.71-508.56,126-66.82,90.44-52.91,204.56,45.28,265.63,37.41,23.27,87.79,38.86,131.58,28.52,25.68-6.06,54.12-23.25,68.91-46.56,40.48-63.75-47.61-160.45-103.48-92.72-8.07,9.77-24.21-1.06-16.37-11.38,34.16-45,99.13-48.88,139.89-8,47.26,47.37,25.71,124.21-21.32,163.55-137.6,115.08-349-56.21-321.4-213.6,41.8-238.39,327.17-241.6,514.71-246,153.75-3.59,300.61-39.47,427.93-129,126.33-88.79,204.16-243.6,93.67-378.45-105-128.09-310.93-116.53-434.29-21.64-87.3,67.14-116.16,201.07-9.5,266.78,84.33,52,264.12-16,189.71-134.07-11.69-18.54,12.74-41.07,27.12-22.58,45.16,58,24.9,134.3-28.87,180.62-62.87,54.15-162.46,47.84-226.25-1.88-71.56-55.77-90.76-159.41-48.69-238.56,46-86.59,151.21-136.89,243.64-154.59C1244.21,836,1469.46,966.42,1436.14,1179.09Z"/><path class="cls-4" d="M705.46,545.23c-8.7,110.52-150.78,147-217.64,62.44-122.35-154.73,25.27-409.55,199.84-436.2,162.68-24.84,292,81.66,275.5,248.4-11,111.16-97.33,157.71-32.28,273.83,42.59,76,92.21,123.54,160.35,193.79"/></g><g id="Calque_4" data-name="Calque 4"><path class="cls-3" d="M12251.27,1271.86c-234.28,6.23-402-271-452.49-467.59-40.89-159.14-45.35-394-215.93-477.37-101-49.36-210.77-15-253.05,92.59-16.12,41-22.34,93.38-4.24,134.58,10.6,24.15,32.65,49,58.25,59.34,70,28.27,149.2-75.86,72.48-118.55-11.08-6.17-3.34-24,8.22-18.16,50.43,25.46,66,88.65,33.2,136.14-38,55-117.5,47.76-164.7,8.62-138.08-114.5-7.87-353.4,151.91-354.74,242-2,296.82,278,335,461.69,31.35,150.57,93.22,288.51,204.26,397.54,110.18,108.18,276.52,156.7,389.14,23.64,107-126.4,58.35-326.89-57.29-431-81.84-73.7-218.78-77.86-264.1,38.94-35.83,92.33,63.53,256.86,166.18,162.31,16.12-14.84,42.7,5.1,27.12,22.59-48.88,54.9-127.58,48.79-182.87,4.28-64.63-52-76.44-151.11-39.09-222.85,41.91-80.47,140.36-118.1,225.82-91.05,93.48,29.6,162,123.94,196.12,211.64C12554,1021,12466.47,1266.15,12251.27,1271.86Z"/><path class="cls-3" d="M12139.88,1179.09c36.28,231.55,339.28,346.32,541.76,360.42,163.91,11.41,395.75-26.71,508.56,126,66.83,90.44,52.92,204.56-45.27,265.63-37.42,23.27-87.79,38.86-131.59,28.52-25.67-6.06-54.12-23.25-68.91-46.56-40.47-63.75,47.61-160.45,103.48-92.72,8.07,9.77,24.21-1.06,16.38-11.38-34.17-45-99.13-48.88-139.9-8-47.26,47.37-25.71,124.21,21.33,163.55,137.59,115.08,349-56.21,321.39-213.6-41.79-238.39-327.17-241.6-514.7-246-153.75-3.59-300.61-39.47-427.94-129-126.33-88.79-204.15-243.6-93.67-378.45,105-128.09,310.93-116.53,434.29-21.64,87.3,67.14,116.16,201.07,9.5,266.78-84.32,52-264.12-16-189.71-134.07,11.69-18.54-12.74-41.07-27.12-22.58-45.15,58-24.9,134.3,28.88,180.62,62.86,54.15,162.46,47.84,226.25-1.88,71.56-55.77,90.75-159.41,48.68-238.56-46-86.59-151.21-136.89-243.64-154.59C12331.8,836,12106.55,966.42,12139.88,1179.09Z"/><path class="cls-5" d="M12870.55,545.23c8.7,110.52,150.78,147,217.64,62.44,122.36-154.73-25.27-409.55-199.84-436.2-162.68-24.84-292,81.66-275.49,248.4,11,111.16,97.32,157.71,32.27,273.83-42.59,76-92.21,123.54-160.35,193.79"/></g><g id="Calque_2" data-name="Calque 2"><path class="cls-2" d="M5939,1669.35q-15.26,1.56-32.45,4.13t-31.95,6.09q-14.74,3.56-18.67,6.51-7.83,7.93-8.73,21.22t-.84,23.13q.09,15.75,2.61,26.07t7.53,25a532.77,532.77,0,0,1-55.83,44.62,356.82,356.82,0,0,1-56.41,31.83,272.65,272.65,0,0,1-61.89,19.07,405.77,405.77,0,0,1-71.32,6.33q-61,.36-125.1-18T5373.4,1809a284,284,0,0,1-52.49-54.31,322.24,322.24,0,0,1-37.79-66.21,403.09,403.09,0,0,1-23.07-73.18,368.63,368.63,0,0,1-8.32-75.25q-.45-74.77,26.24-138.44T5351.63,1292q47-46,111.28-72.52t138.12-26.9a427.58,427.58,0,0,1,92.08,9.3q44.84,9.59,91.17,22.09a54.08,54.08,0,0,0,9.86,2.9,49.7,49.7,0,0,0,9.85.92q13.77-.08,25.51-13.93l12.79-.07L5871.17,1436l-10.83.06q-16-34.33-32.89-69.68a357,357,0,0,0-39.75-64.72,169.87,169.87,0,0,0-37.62-35.71,221.39,221.39,0,0,0-46.89-24.81,283.15,283.15,0,0,0-51.76-14.46,286.79,286.79,0,0,0-52.19-4.61q-65,.39-108.6,26.73t-70,68.32q-26.33,42-37.81,96.19a516.44,516.44,0,0,0,3.32,228.32q14.13,59,44.43,105.54a241.28,241.28,0,0,0,78.7,75.81q48.38,29.24,116.31,28.83a243.29,243.29,0,0,0,27.54-2.12,297.12,297.12,0,0,0,33.43-6.11,149.82,149.82,0,0,0,30.94-11q14.21-7,21.06-16.86a60.94,60.94,0,0,0,6.8-15.29,122.19,122.19,0,0,0,4.31-20.2c.94-7.22,1.54-14.12,1.84-20.68s.42-12.14.39-16.74q-.06-9.83-.6-19.19t-1.59-19.18q-1.07-11.81-2.56-15.73c-1-2.61-6.1-4.89-15.29-6.8a68.8,68.8,0,0,0-13.8-2.38,66.31,66.31,0,0,1-13.79-2.38L5600.86,1660l-.1-16.73L5959,1646.1l.12,20.67Q5954.23,1667.79,5939,1669.35Z"/><path class="cls-2" d="M7034.24,1225.35q-14.74,1.08-30,3.14t-29.49,5.09q-14.27,3-23.08,9-13.74,8-27.37,30.67T6898,1322.62q-12.65,26.64-23.31,52.3t-17.47,41.44L6669,1875.14l-7.87,0-151.84-376-163.1,377.92-6.89,0L6139.5,1376.33q-9-22.57-19-44.17T6099.61,1289q-8-16.68-14.91-25t-24.7-16.1a177.47,177.47,0,0,0-54.21-13q-28.57-2.28-57.11-4.09l-.14-23.62,375-2.23.14,23.62a506.53,506.53,0,0,0-61,6.27q-20.66,2.1-35.38,9.56t-14.57,32.07a94.9,94.9,0,0,0,4.1,27q4,13.26,9,26l149.86,374.1,161.13-377.91,10.83-.07,148.88,376.08L6809,1405.82q3.84-10.85,9.68-26.14t11.14-31.07a286.87,286.87,0,0,0,8.66-31.54,132,132,0,0,0,3.29-27.58q-.11-15.73-5.08-26a43.15,43.15,0,0,0-13.88-16.65,67.17,67.17,0,0,0-20.72-9.72,182.66,182.66,0,0,0-26.61-5.26q-29.55-3.74-60.07-5.55l-.14-23.62,344.47-2,.14,23.62Q7049,1224.28,7034.24,1225.35Z"/><path class="cls-2" d="M7660.17,1798.62q-20.92,42.66-40.32,88.59l-19.68.12q-2-9.84-3.55-16.72c-1-4.59-2.68-8-5-10.3a19.61,19.61,0,0,0-9.38-4.86q-5.91-1.46-16.74-1.38l-449.77,2.67-.13-21.65c2.61,0,8.36-.37,17.22-1.09s18.35-1.58,28.52-2.63,19.67-2.41,28.52-4.1,14.25-3.55,16.21-5.53q5.86-5.94,8.72-23.21t4.2-38q1.35-20.7,1.73-39.93t.33-27.12l-1.95-329.21q-.18-28.57-1.34-58.64a252,252,0,0,0-9.2-58.6q-2-7.86-7.45-11.77a40.2,40.2,0,0,0-11.85-5.85,48.07,48.07,0,0,0-14.28-1.9,104.42,104.42,0,0,1-14.77-.89l-32.5-2.76-.14-23.66,434-2.57,34.35-17,12.89,16.61q-13.59,34.39-23.71,68.31t-19.76,69.29l-10.83.07q-4.06-19.59-8.1-38.71a114.57,114.57,0,0,0-15-36.7q-8-12.71-17.83-19.51a65.16,65.16,0,0,0-21.72-9.69,103.31,103.31,0,0,0-25.11-2.8l-26.08.16-64,.38a491.07,491.07,0,0,0-54.12,3.27,422.87,422.87,0,0,0-6.6,47.62q-1.85,23.08-1.69,47.59l1,165.81,76.76-.46q23.63-.14,38.37-4.17t24-12.93q9.28-8.91,16.1-23.23t15.55-34l24.6-.14q-5.58,53.17-7.74,105.36t.14,105.31l-18.7.11q-2-6.87-6.52-20.63t-10-28.48a235.13,235.13,0,0,0-12-27q-6.48-12.25-11.42-17.16-4-2.92-16.76-4.82t-27.57-2.79q-14.77-.87-28.06-1.31c-8.86-.26-14.93-.4-18.21-.38l-38.38.23,1.16,195.5a464.39,464.39,0,0,0,2.75,48.38q2.58,23.7,6.68,48.34a231.64,231.64,0,0,0,48.77,8.11q24.1,1.33,49.71,1.18,47.23-.28,83.61-7.88a276.34,276.34,0,0,0,67.28-23,291.2,291.2,0,0,0,58.82-39.22q27.91-23.79,59.21-57.44l11.88,11.74Q7681.06,1755.94,7660.17,1798.62Z"/><path class="cls-2" d="M8233.37,1190.69l.14,23.62q22.64.86,46.28,2.19a309.31,309.31,0,0,1,46.29,6.12q13.79,2.88,20.22,6.77t11.42,17.65q4,11.79,6.59,32t4.19,41.8q1.59,21.66,1.72,42.31l.21,34.45q.42,71.85-.63,142.72T8367.2,1683c-.21-.24-.43-.47-.64-.7,0,.53.07,1.06.07,1.62,0,24.78-2.18,49.72-2.69,74.54-.51,25.14.92,50,1.54,75A178.1,178.1,0,0,1,8385,1863l24.61-.15q-1.34-58-.7-117.11l2.33-270.68q.72-41.34,1.48-81.7t3.46-81.71q.89-13.77,2.29-27.08t4.27-27.09a101.52,101.52,0,0,1,7.74-22.68q4.86-9.85,19.61-11.93,28.53-3.12,58-5.76t58-4.77l-.14-23.62Z"/><path class="cls-2" d="M8009.12,1237.3q4.86-9.85,19.61-11.93,28.52-3.12,58-5.76t58-4.77l-.14-23.62-332.66,2,.14,23.62q22.64.86,46.27,2.18a309.27,309.27,0,0,1,46.3,6.12q13.78,2.88,20.22,6.77"/><polygon class="cls-2" points="5157.4 1327.75 5299.11 1357.63 5108.09 1406.82 5157.4 1327.75"/><polygon class="cls-2" points="5195.92 1237.44 5129.68 1241.56 5155.14 1302.85 5195.92 1237.44"/><polygon class="cls-2" points="5311.91 1337.4 5268.76 1149.15 5219.39 1228.32 5311.91 1337.4"/><polygon class="cls-2" points="5065.42 1332.33 5093.94 1400.99 5139.63 1327.72 5065.42 1332.33"/><polygon class="cls-2" points="5165.9 1314.12 5295.56 1341.46 5211.01 1241.77 5165.9 1314.12"/><polygon class="cls-2" points="5211.43 1212.58 5257.11 1139.3 5182.91 1143.91 5211.43 1212.58"/><polyline class="cls-2" points="5097.5 1409.55 5097.5 1409.55 5097.5 1409.55"/><polygon class="cls-2" points="5062.36 1324.96 5062.36 1324.96 5062.36 1324.96 5062.36 1324.96"/><polygon class="cls-2" points="5113.75 1242.55 5067.27 1317.1 5142.76 1312.4 5113.75 1242.55"/><polygon class="cls-2" points="5170.04 1152.27 5123.56 1226.82 5199.05 1222.13 5170.04 1152.27"/><path class="cls-6" d="M5055.71,1181.42a4.22,4.22,0,0,1-6.34,3l-104.05-62.12a4.22,4.22,0,1,1,4.33-7.25l104.05,62.12A4.22,4.22,0,0,1,5055.71,1181.42Z"/><path class="cls-7" d="M5037.13,1238.81a4.21,4.21,0,0,1-4.64,3.55l-80.85-9a4.22,4.22,0,0,1,.93-8.39l80.86,9a4.21,4.21,0,0,1,3.72,4.66A1,1,0,0,1,5037.13,1238.81Z"/><path class="cls-8" d="M5052.06,1284.47a4.23,4.23,0,0,1-2.12,3.06l-105.83,59.06a4.22,4.22,0,0,1-4.11-7.37l105.83-59.06a4.22,4.22,0,0,1,6.23,4.31Z"/><path class="cls-9" d="M5146.79,1133.06a4.21,4.21,0,0,1-8.38-.7l1.76-121.18a4.22,4.22,0,0,1,8.44.13l-1.77,121.18A3.55,3.55,0,0,1,5146.79,1133.06Z"/><path class="cls-10" d="M5087.81,1145.66a4.22,4.22,0,0,1-8,1.06l-32.6-74.54a4.22,4.22,0,1,1,7.73-3.39l32.6,74.54A4.29,4.29,0,0,1,5087.81,1145.66Z"/><path class="cls-2" d="M8007.33,1204.14s45.6,60.41,92.69,131.56c45.63,68.94,92.66,148,100.95,191.93,0,0,71.31,116.61,103.56,158.61s53.5,73.75,70.74,125.31c5.9,17.63,25.29,28.31,27.45,32s-6.86,4.67-15.75,3.91-15.49-4.31-29.64-25.17-45.09-31.62-60.83-39.75-12-25.54.31-34.4c0,0-26.88-42.86-68.66-72.16s-94.62-95.25-117.38-172.14c0,0-23.7-40.58-90.67-98.48-53.1-45.92-65.91-67.63-65.91-67.63Z"/><path class="cls-2" d="M7990.87,1212.47s33.7,40.26,74.19,93.38c2.18,52.28,6.19,104.24,33.66,149.55,28,46.82,55,99.08,69.83,152.74.4,1.48.86,2.93,1.28,4.41-24.26-29.53-46.54-66-60.58-106,0,0-25.71-39.34-95.5-93.8-55.34-43.19-69.24-64.23-69.24-64.23Z"/><path class="cls-2" d="M8063.55,1193.29l-148.64,2.21s12.75,113.76,37.17,279.47c0,0-24.06,57.61-25.4,103.49s25.92,131.79,18.94,151.66c0,0-33.15-9-39.92,8.11s22.57,25.87,20,51-7.66,51.54,9.86,60.35a188.57,188.57,0,0,0,44.08,5.33c11.8,0-13.61-11.47-18.39-15.11s28.95-56.71,19.09-99.47c0,0,12.74-144.75,29.44-191.7s16.13-68.11,21.89-114.69S8063.55,1193.29,8063.55,1193.29Z"/><path class="cls-2" d="M7940.33,1619.18c-.43-29.35-1.92-60.42,6.89-89,6.8-26,22.86-50.43,29.64-77.3,8.62-41.58-4.36-86.3-12.15-127.64a635.42,635.42,0,0,1-8.19-130.31l-41.61.62s12.75,113.76,37.17,279.47c0,0-24.06,57.61-25.4,103.49-.78,26.89,8.25,67.51,14.46,100.55C7940.71,1658.89,7941.18,1638.71,7940.33,1619.18Z"/><path class="cls-2" d="M7930.26,1216.87a44.86,44.86,0,0,0,13.9,4c4.39.52,8.82,1.38,13.29.81a1.21,1.21,0,0,0,.83-2.08,21.85,21.85,0,0,0-.16-2.42c.4-2.1,0-4.69-.34-6.9-.05-1.55-.14-3.09-.26-4.62l.1-.1c1.14-1.52.65-4,.57-5.76"/><path class="cls-2" d="M7958.13,1199.4A190.4,190.4,0,0,0,7959,1222c-4.78-.15-9.5-.53-14.28-1-5-.52-9.38-3-14.38-3.53l-.06-.29c-.12-.48-.94-.48-1.14,0-1.81,4.15-1.1,9.69-1.65,14.07-.7,5.6-3,11-5.1,16.25-2,5-4.25,10.17-5.83,15.32-.07.22-.15.43-.22.65-3,4.9-4.81,10.65-7.37,15.78-1.07,2.15-1.86,4.41-2.77,6.61-1.17,2.81-2.77,5.54-3.71,8.4-.72,2.2-2,4.22-2.85,6.38-1.08,2.75-2,5.57-2.91,8.36a28.67,28.67,0,0,0-1.28,7c-.05.19-.11.37-.16.56-1.72,6.48-2.14,13.66-2.22,20.29-.08,7.3-.67,14.59-.66,21.88,0,.81,0,1.62,0,2.42s-.07,1.43,0,2.15c.13,4.57-1.12,9.65-.31,14.18,0,.34,0,.67,0,1-.25,4.53-.68,9.09-1.1,13.62-.37,4-.32,8.06-.35,12.06,0,3.77-.66,7.9.19,11.63-.3,1.45-.62,2.89-.92,4.33a160,160,0,0,0-3.39,28.23c-.38,3.09-.8,6.17-1,9.27-.05.57-.17,1.44-.19,2.32a9.43,9.43,0,0,0,.05,2.49c-.8,2.2,1.62,2.85,3.69,2.67a44.38,44.38,0,0,0,9.22-2.23c2.73-.35,5.52.38,8.17.81,9.9,1.64,19.91,4.56,30,5.3,1,.12,2,.16,2.92.27,2.67.32,5.4.39,8.07.73,4.4.56,9.4.7,12.89-2.26a5.37,5.37,0,0,1,4.8-.42,11.68,11.68,0,0,1,3.63,2.57c1.33,1.38,3.94,2.08,6.22,2l.36,0a130.26,130.26,0,0,0,20.71-.33c6.05-.44,12-.88,18-1.63,7.33-.92,15.4-1.16,21.87-5a5.68,5.68,0,0,0,2.74-3,.51.51,0,0,0,.29-.08c2.24-1.42,4-3.51,6.21-5a22.35,22.35,0,0,1,9.26-2.94,37.54,37.54,0,0,1,13.59.79c.58.25,1.19.41,1.77.7a16.33,16.33,0,0,0,3.41,1.3c1.84,1.59,8.16-.17,9.52-.39,6.06-1,11.76-2.44,16.94-5.38s12.35-6.63,17.49-9.76,7.79-5.89,12.12-10.08c2.15-2.08,2.83-6,1.42-7.91,4-.79,11.14-5.47,13.85-7.23,2.18-1.41,8.91-9.06,10.41-11.23,2.69-3.89,5.94-10.45,2.66-14.81a56,56,0,0,0-10.1-10.79.72.72,0,0,0-.22-.1c-.17-.16-.34-.31-.49-.47-2-2.06-3.6-4.39-5.54-6.51q-5.29-5.76-10.66-11.46c-6.55-7-10.72-15.27-16.4-22.72-.21-.4-.43-.79-.6-1.21a11,11,0,0,1-.48-1.69,131.4,131.4,0,0,0-6.63-25.57,105.55,105.55,0,0,0-5.72-13c-1-1.9-1.72-4.75-3.06-6.89,0,0,0-.09,0-.13v-.08a1.08,1.08,0,0,0-.21-.5c-3.84-7-8.66-13.41-13.18-20-2.17-3.18-5-5.92-7.37-9-1.06-1.33-2-2.73-3-4.11a8.06,8.06,0,0,0-2.23-1.83c-2.17-3.32-5.09-6.32-7.32-9.62-2.46-3.65-5.58-7.06-8.3-10.57a123.07,123.07,0,0,1-8.84-13.13c-1.63-2.78-2.24-6.08-3.21-9.18-.13-.24-.25-.49-.37-.74-.91-1.91-2.35-4.07-2.77-6.25-.09-.23-.17-.44-.23-.61a42.7,42.7,0,0,1-5.26,3.17c-.68.39-1.37.75-2.07,1.09a25.44,25.44,0,0,1-3.52,2.15c-.58.28-1.27.46-1.86.71-2,.78-3.75,2-5.8,2.64a26.42,26.42,0,0,0-3.21,1.27c-.53-2.45-1.17-4.88-1.7-7.32-.86-3.92-1.74-8-2.91-11.85-.27-.91-.52-1.82-.78-2.73"/><path class="cls-2" d="M7937.44,1304.4a580.27,580.27,0,0,0,63.2-6.89,528.56,528.56,0,0,0,88.22-22.32c-1.54-2.2-3.09-4.4-4.6-6.63-2.17-3.18-5-5.92-7.37-9-1.06-1.33-2-2.73-3-4.11a8.06,8.06,0,0,0-2.23-1.83c-.76-1.17-1.63-2.3-2.52-3.42-28.37,7.6-56.74,15-86.08,18.32-16.64,1.87-33.42,3.85-50.13,4.91a172.35,172.35,0,0,1-21.56.28c-.78,1.86-1.57,3.7-2.45,5.47-1.07,2.15-1.86,4.41-2.77,6.61-1.17,2.81-2.77,5.54-3.71,8.4-.72,2.2-2,4.22-2.85,6.38-.24.61-.44,1.22-.66,1.83C7911.4,1305.27,7925.07,1305.08,7937.44,1304.4Z"/><path class="cls-2" d="M7910.23,1366.64c12.29-.15,24.6,0,36.89-.21a532.18,532.18,0,0,0,97.11-11.17,649.5,649.5,0,0,0,69.48-18.4c-.05-.11-.12-.22-.17-.34a11,11,0,0,1-.48-1.69,130.56,130.56,0,0,0-6.41-24.94c-14.92,4.52-30,8.41-45.12,11.78-31.06,6.93-63.12,12.87-94.89,15.58-24.18,2.06-49.3,5.37-73.69,3.64-.19,5.93-.56,11.87-.56,17.8,0,.81,0,1.62,0,2.42s-.07,1.43,0,2.15a28.71,28.71,0,0,1-.08,2.92A147.23,147.23,0,0,0,7910.23,1366.64Z"/><path class="cls-2" d="M7886.77,1442.12c17.7,2.58,36.22,2.57,53.48,2.63,33.08.12,65.59-1.37,98.29-7.13,40.39-7.12,80.46-18.73,117.83-35.4,2.18-3.84,3.86-8.87,1.18-12.44a56,56,0,0,0-10.1-10.79.72.72,0,0,0-.22-.1c-.17-.16-.34-.31-.49-.47-2-2.06-3.6-4.39-5.54-6.51-2.15-2.35-4.34-4.67-6.51-7-45,17.7-91.1,32.72-139.54,39.06-15.43,2-31,3.12-46.47,4.54-11.7,1.07-23.49,2-35.23,1.62a125,125,0,0,1-23-2.68,30.69,30.69,0,0,0,.32,8.31c-.3,1.45-.62,2.89-.92,4.33A168.5,168.5,0,0,0,7886.77,1442.12Z"/><path class="cls-2" d="M7952.29,1242.37a427.8,427.8,0,0,0,47-6.39c16.94-3.26,33.67-7.34,50.3-11.76-.81-1.29-1.61-2.58-2.37-3.88-1.63-2.78-2.24-6.08-3.21-9.18-.13-.24-.25-.49-.37-.74-.91-1.91-2.35-4.07-2.77-6.25-.09-.23-.17-.44-.23-.61a42.7,42.7,0,0,1-5.26,3.17c-.68.39-1.37.75-2.07,1.09a25.44,25.44,0,0,1-3.52,2.15c-.58.28-1.27.46-1.86.71-2,.78-3.75,2-5.8,2.64a26.42,26.42,0,0,0-3.21,1.27c-.49-2.3-1.08-4.58-1.6-6.87-7.06,1.86-14.17,3.53-21.33,4.94a356.73,356.73,0,0,1-37.35,5.53c.1,1.28.19,2.57.33,3.84-4.78-.15-9.5-.53-14.28-1a38.25,38.25,0,0,1-7.65-1.91q-4.28,0-8.51-.27c-1.07,3.89-.59,8.58-1.07,12.39a53.48,53.48,0,0,1-3.74,12.83C7933.28,1244,7942.93,1243.12,7952.29,1242.37Z"/><path class="cls-11" d="M7958.13,1199.4A190.4,190.4,0,0,0,7959,1222c-4.78-.15-9.5-.53-14.28-1-5-.52-9.38-3-14.38-3.53l-.06-.29c-.12-.48-.94-.48-1.14,0-1.81,4.15-1.1,9.69-1.65,14.07-.7,5.6-3,11-5.1,16.25-.81,2-1.66,4.09-2.49,6.16,5.43-6.4,11.73-12.66,19.07-17.22l.21-.13c6.41-3.93,13.95-5.76,21.16-7.93"/><path class="cls-11" d="M8008,1206.28c1.16,3.53,2,7.76,4.24,10.86,3,4.15,7.79,4.76,12.51,2.26a17.61,17.61,0,0,1,11.67-1.55,58.68,58.68,0,0,1,11.35,3.43l-.57-.94c-1.63-2.78-2.24-6.08-3.21-9.18-.13-.24-.25-.49-.37-.74-.91-1.91-2.36-4.07-2.77-6.25-.07-.21-.15-.41-.23-.61a42,42,0,0,1-5.26,3.17c-.59.34-1.19.64-1.8,1a26,26,0,0,1-3.83,2.4c-.59.28-1.44.53-2,.79-2,.77-3.52,2.22-5.57,2.87a24.12,24.12,0,0,0-3.24.85c-.53-2.45-1.17-4.88-1.7-7.32-.86-3.92-1.74-8-2.91-11.85-.27-.91-.52-1.82-.78-2.73"/><path class="cls-11" d="M7912.21,1340.68c2.76-8.52,6.56-17,7.38-25.92-.61,1.82-1.41,3.58-2.08,5.43-1.25,3.49-2.84,6.89-4.35,10.3-3.23,7.3-6.73,14.47-10.56,21.53-3.55,6.57-6.63,13.35-10.71,19.67a24.42,24.42,0,0,0,.19,5.75c0,.34,0,.67,0,1-.25,4.53-.68,9.09-1.1,13.62-.37,4-.32,8.06-.35,12.06,0,2.21-.24,4.53-.25,6.83,4.35-14.4,8.34-28.87,13.27-43.13C7906.71,1358.84,7909.27,1349.71,7912.21,1340.68Z"/><path class="cls-11" d="M7959.57,1342.37a104,104,0,0,0-3,16c-.86,6.39-1.83,12.76-2.39,19.18a359.47,359.47,0,0,0-1.38,41.75c0,.71.06,1.43.08,2.15a.5.5,0,0,1,.24.45c0,1.31,0,2.62,0,3.93.25,4.69.58,9.37.86,14.06,0,.53.05,1,.08,1.58.57,4,1.12,8.06,1.77,12.08.82,5.16,2.67,11.11.91,16a10.18,10.18,0,0,0,3.56-1.91,5.37,5.37,0,0,1,4.8-.42,11.68,11.68,0,0,1,3.63,2.57,5.54,5.54,0,0,0,1.84,1.2,22.39,22.39,0,0,1-1.39-6.4c-.32-2.93-.92-5.82-1.43-8.73-1.17-6.63-2.46-13.22-3.78-19.83a157.09,157.09,0,0,1-2.34-17.52c-.69-5.31-1.35-10.32-1.69-15.68-.93-9.4-1.44-19.16-1.85-28.61a172,172,0,0,1,.14-18c.28-4.74,1.24-9.42,1.6-14.15A.64.64,0,0,1,7959.57,1342.37Z"/><path class="cls-11" d="M8071,1450.82c-1.32-4.46-2.73-8.85-4.25-13.26-3.62-10.5-6.47-21.27-9.48-32-.81-2.89-1.55-5.81-2.24-8.73-2.88-8.42-4-17.33-6.32-25.89-2.45-8.92-4.78-17.87-7.6-26.7q-.24-.58-.45-1.2c-.67-1.95-1.29-3.91-1.91-5.87.75,5.09,1.35,10.21,1.95,15.31.88,7.48,2,14.94,1.35,22.51-.14,1.78,0,6.37-2.94,6.68-2.38.25-3.36-3.62-4-5.14-3.57-8.31-5.07-17.83-6.73-26.64-2.66-14-4.17-28.25-5.89-42.43-.26,2.19-.55,4.39-.79,6.58-.18,1.7-.27,3.43-.43,5.16a29.66,29.66,0,0,1,0,4.42c-.18,6.54-.19,13.58-.62,20.2a58.21,58.21,0,0,1,.94,13.65c-.08,4.9.13,9.74.42,14.62.31,5.12.64,10.23,1.13,15.34.45,4.68,1.53,9.49,1.5,14.21a353.69,353.69,0,0,0,9.13,42.13c1.23,4.46,2.84,9.08,3.67,13.67a.61.61,0,0,1,.54.37,11.49,11.49,0,0,1,.88,3.88l.07,0c2.24-1.42,4-3.51,6.21-5a22.35,22.35,0,0,1,9.26-2.94,37.54,37.54,0,0,1,13.59.79c.58.25,1.19.41,1.77.7a16.33,16.33,0,0,0,3.41,1.3,1.75,1.75,0,0,0,.44.28A23.18,23.18,0,0,1,8071,1450.82Z"/><path class="cls-11" d="M8113.06,1334.83a128.5,128.5,0,0,0-6.27-24.52,49.51,49.51,0,0,1-8.53-11.21c-6.12-10.42-11.87-20.94-20.06-30.12a12.61,12.61,0,0,1-1.19-1.12l.51,1.13.18.24c2.52,2.56,3.69,6.14,4.95,9.34q3.41,8.63,6.75,17.26a112.24,112.24,0,0,0,7.94,17c2.82,4.77,5.7,9.5,8.32,14.36a69.43,69.43,0,0,0,7.81,9.14A11.39,11.39,0,0,1,8113.06,1334.83Z"/><path class="cls-11" d="M8148.14,1405.4c-6.37-1.54-10.64-7.42-14-12.17-4.91-6.9-10.31-13.48-15.46-20.23q-18.27-23.93-34.6-49-7.81-12-15.13-24.27c-4.16-7-8.31-14-13.9-20.15.78,3,2.92,5.52,4.45,8.25,1.35,2.42,2.56,4.9,3.87,7.35,2.83,5.29,5.73,10.56,8.59,15.85,3.25,6,6.43,12.08,10.12,17.86,2.22,3.45,4.46,6.89,6.33,10.5a.69.69,0,0,1,.46.35c8.22,15.11,14.69,31,22.74,46.14,3.86,7.29,7.63,14.54,10.93,22.06,1.68,3.81,3.74,7.44,5.71,11.12,1,1.87,1.63,4.72,3.16,6.54a3.86,3.86,0,0,0-.76-2.53c4-.79,10.6-4.93,13.31-6.69,2.17-1.41,8.69-8.86,10-10.47A20.67,20.67,0,0,1,8148.14,1405.4Z"/><path class="cls-2" d="M7959.53,1341.54c-3.59,19.63-6.54,38.63-7,58.57a385.18,385.18,0,0,0,3.92,63.59c.12.83,1.3.29,1.24-.4-1.75-21-3.06-42.19-2.94-63.34.06-9.85.41-19.75,1-29.6s2.61-19.2,4-28.83C7959.7,1341.42,7959.55,1341.45,7959.53,1341.54Z"/><path class="cls-2" d="M8018.18,1213.75l-.07,0c.08.39.16.77.22,1.16a5.86,5.86,0,0,1,1.83-.38c11.69-4.44,19-8.75,20.84-10.77-6.3,4-14.82,6.86-21.75,9.65"/><path class="cls-2" d="M7965,1476.15c-1-2.22-1.76-4.6-2.55-7-.24,0-.47,0-.52.09a.7.7,0,0,1-.76.38,61.88,61.88,0,0,0,2.14,7.52"/><path class="cls-12" d="M7930.26,1216.87c.89.45,1.86.86,2.87,1.25"/><path class="cls-12" d="M7953.94,1209c-.79,4.14-2.18,8.87-4.86,12.41a34,34,0,0,0,8.37.18,1.21,1.21,0,0,0,.83-2.08,21.85,21.85,0,0,0-.16-2.42c.4-2.1,0-4.69-.34-6.9-.05-1.55-.14-3.09-.26-4.62l.1-.1c1.14-1.52.65-4,.57-5.76"/><path class="cls-2" d="M7922.86,1246.24a134.69,134.69,0,0,0,5.53-15.33c.07-.38.15-.76.2-1.13a47.4,47.4,0,0,0,.09-11.23c-.84,3.94-1.08,8-2,11.88a114,114,0,0,1-3.67,11.75q-1,2.74-2,5.45c-.55,2.12-1.36,6.12-2,8.21C7920.32,1253.34,7921.8,1248.88,7922.86,1246.24Z"/><path class="cls-2" d="M8055.72,1231.41c-2.21-3.93-13.11-22.4-14-24.88a58.93,58.93,0,0,0,3.1,9.85,123.31,123.31,0,0,0,10.51,16.88c2.39,3.38,5.66,6.42,8.25,9.68C8061.08,1239.07,8058,1235.39,8055.72,1231.41Z"/><path class="cls-2" d="M7971.84,1471.13a3.79,3.79,0,0,1-1.38-.57.41.41,0,0,0,0-.19c-5-25.69-10-51.84-11.19-78,0-.09-.16,0-.15,0a278.22,278.22,0,0,0,3.09,39c1.86,12.67,3.07,25.87,6.89,38.17-2.5-2.06-5.59-5.42-8.47-3-6.44,5.37-16.92,2.49-22.55,2.56.22.08,5.42.79,7.55,1.31,1.18.29,10.33,1.85,11.24,1.33,1.58-.9,2.45-2.43,3.87-3.32a2.11,2.11,0,0,1,1.57-.6,5.86,5.86,0,0,1,1.6-.07c2.7.26,4.64,3.65,7.3,4.66,5.48.92,12.89.91,18.31-.57C7983.53,1471.79,7977,1471.88,7971.84,1471.13Z"/><path class="cls-2" d="M7914.38,1464.15c-3.52-1.08-11.9-2.77-13.48-3.46-6.07-1.52-13.19-2.46-15.1,1.73,1.3-27,6.86-53.23,14-79.47,3.34-12.34,7.34-24.45,11.61-36.56,2.15-6.09,3.39-12.47,5.12-18.66,1-3.68,3.42-8.4,3.11-12.16,0-.1-.15,0-.15,0,0,5.07-3.9,11.69-5.52,16.53-2,6.1-4,12.18-6.33,18.2-4.69,12.11-8,24.4-11.9,36.7-.72,2.3-1.41,4.63-2.08,7-.9,3.73-1.76,7.46-2.71,11.18,1-13.09,1.24-26.25,1.85-39.22.54-11.47.26-23,1.16-34.41.13-1.64-.15-10.52,2.09-19.88-.71,2.6-3,9-3.22,10.79q-.66,4.65-1,9.32c-.44,6.26-.56,12.52-.72,18.79-.08,3.47-.17,6.94-.35,10.42-.9,17.65-.89,35.56-2.1,53.31-3.41,16.7-5.1,33.81-4,50.32a7.27,7.27,0,0,0,3.26,1.52,49.22,49.22,0,0,0,8-1.21c1.83-.38,3.9-.64,5.39-1.72,3.79,1,18.18,3.17,23.55,4C7921.31,1466.28,7917.84,1465.21,7914.38,1464.15Zm-19.94-.71c-2,.42-3.92.84-5.89,1.18-1.16.2-1.69-.06-2-.62,2-2.8,6.91-2.53,11.94-1.45Z"/><path class="cls-2" d="M8084.2,1455.81c-2.49.44-6.24,1.57-8.86.64a10,10,0,0,1-2.16-.24c-6.42-19.27-12.2-38.57-17.56-58.14-5.05-18.43-8.7-37.53-15-55.59,0-.07-.13,0-.11.07,6.21,19.87,9.72,40.77,14.87,61,4.51,17.65,9,35.42,16.4,52.22l-.13,0c-5.92-3-11.51-4.47-18.51-2.63-5.49,1.44-11.47,3.52-13.88,8.53,0-.13,0-.25,0-.38a.49.49,0,0,0,.06-.33c-4.57-23.13-10.5-45.74-13.34-69.22a598.91,598.91,0,0,1-4.69-72.71c0-.12-.17-.09-.17,0-2.24,47.72,2.05,96.59,16.9,142.13a.7.7,0,0,0-.06.32c.3,3.41-9.08,6.45-16.13,7.58,3.5-.15,9.36-1.73,11.71-2.33l.88-.3c2.48-.88,4.63-1.78,4.88-3.91,5.83-8,23.36-9.92,31.5-5.44a15.32,15.32,0,0,0,1.95.89,6.32,6.32,0,0,1,.62.18c.25.07.49.14.74.19.88.06,1.77.06,2.65.06a26.12,26.12,0,0,0,2.8,0,15.63,15.63,0,0,0,3-.8c1.1-.34,2.18-.73,3.26-1.12l1.79-.65c.63-.23,1.27-.43,1.89-.66.84-.27,1.67-.58,2.51-.88C8089.38,1454.81,8086.8,1455.34,8084.2,1455.81Z"/><path class="cls-2" d="M8134.14,1420.49a25.18,25.18,0,0,0-3.27,2.07c-10.66-23.92-22-47.37-34.49-70.61-6.73-12.54-13.82-24.91-20.79-37.33-6.57-11.73-14.42-22.87-20.43-34.85-.07-.14-.27,0-.22.13,5.31,11.42,12.27,22.17,18.23,33.3,7.11,13.29,14.3,26.53,21.35,39.84,12.81,24.17,24.17,49.06,36.82,73.26-.29.37-.63.71-.94,1.07-.54,2.73-3.64,5.89-5.48,7.81a37.89,37.89,0,0,0,4.64-4.47.6.6,0,0,1,.06-.11,2.83,2.83,0,0,0,.24-.25,22,22,0,0,0,1.45-2,6.76,6.76,0,0,0,.53-1.55,6.36,6.36,0,0,0,.14-.76s0-.08,0-.12a5.49,5.49,0,0,0,0-.81c-.24-.56-.49-1.11-.73-1.66,3.79-2.52,8.36-3.94,12.14-6.73.67-.49,1.32-1,1.95-1.49l.14-.18C8142.24,1417.43,8138.2,1418.94,8134.14,1420.49Z"/><path class="cls-2" d="M8157.67,1388.92c-6.54-9.68-15.92-18-23.59-26.9-6.59-7.68-12.45-15.69-18.28-23.8-.63-3-1.25-6-1.83-9-3.32-17.49-11.1-32.28-19.51-48-2.2-4.11-11.77-14.69-14.77-18.37,2.82,4.94,12.3,16,14.21,21.27,8.56,14.63,14.41,30.84,18.2,47,.24,1,.5,2,.74,3-.71-1-1.42-2-2.14-3-8-11.08-13.75-23.45-20.26-35.28-5-9.14-7.19-20.7-14.06-28.78,0,0-.11,0-.08.07,7,8.89,9,21.59,13.92,31.59,4.47,9.1,8.78,18.19,14,26.91,4.11,5.78,8,11.69,11.93,17.58,2.22,2.55,4.4,5.14,6.4,7.86a.5.5,0,0,1,.1.42c6,7.43,12.26,14.64,18.69,21.75.71.65,1.42,1.3,2.12,2,2.29,2.23,4.39,4.6,6.62,6.87,2.95,3,7.32,6,7.95,10.22.71,3.46-.61,7.18-2.83,10.67l-.26.59c-1.21,2.58-3.54,4.88-5.23,7.19,2-2,4.61-4,6.35-6.29C8159.7,1399.64,8161.43,1393.34,8157.67,1388.92Z"/><path class="cls-2" d="M7927.82,1216.85v0c.24.09.49.2.73.28l.68.19h0q1.14.38,2.34.72a107.88,107.88,0,0,0,25.8,4.54,6.06,6.06,0,0,1,1.86-.1c0-.38-.07-.77-.08-1.16h-.08"/></g></g></svg>