<svg xmlns="http://www.w3.org/2000/svg" xmlns:xlink="http://www.w3.org/1999/xlink" viewBox="0 0 4150 3000"><defs><style>.cls-1{isolation:isolate;}.cls-2{fill:#d77da1;}.cls-3{fill:#fff;}.cls-4{fill:none;stroke:#d77da1;stroke-linecap:round;stroke-linejoin:round;stroke-width:28.35px;}.cls-5{fill:url(#Dégradé_sans_nom_116);}.cls-6{fill:url(#Dégradé_sans_nom_116-2);}.cls-7{fill:url(#Dégradé_sans_nom_116-3);}.cls-8{fill:url(#Dégradé_sans_nom_116-4);}.cls-9{fill:url(#Dégradé_sans_nom_116-5);}.cls-10,.cls-11,.cls-12{fill:#f9f9f9;}.cls-11,.cls-12{mix-blend-mode:multiply;}.cls-11{opacity:0.3;}</style><linearGradient id="Dégradé_sans_nom_116" x1="542.78" y1="549.66" x2="550.14" y2="549.66" gradientTransform="matrix(0.51, -0.86, 0.86, 0.51, -204.26, 2298.39)" gradientUnits="userSpaceOnUse"><stop offset="0" stop-color="#d77da1"/><stop offset="0.2" stop-color="#d77da1"/><stop offset="0.45" stop-color="#eac2ce"/><stop offset="0.64" stop-color="#eac2ce"/><stop offset="0.81" stop-color="#d77da1"/><stop offset="1" stop-color="#d77da1"/></linearGradient><linearGradient id="Dégradé_sans_nom_116-2" x1="909.12" y1="22.04" x2="916.47" y2="22.04" gradientTransform="translate(418.42 3088.77) rotate(-83.62)" xlink:href="#Dégradé_sans_nom_116"/><linearGradient id="Dégradé_sans_nom_116-3" x1="1807.46" y1="-388.19" x2="1814.82" y2="-388.19" gradientTransform="translate(1765.49 3645.84) rotate(-119.17)" xlink:href="#Dégradé_sans_nom_116"/><linearGradient id="Dégradé_sans_nom_116-4" x1="723.04" y1="2114.88" x2="730.39" y2="2114.88" gradientTransform="translate(-22.48 -82.08) rotate(0.84)" xlink:href="#Dégradé_sans_nom_116"/><linearGradient id="Dégradé_sans_nom_116-5" x1="425.56" y1="1520.5" x2="432.92" y2="1520.5" gradientTransform="translate(-395.59 853.17) rotate(-23.62)" xlink:href="#Dégradé_sans_nom_116"/></defs><g class="cls-1"><g id="Calque_2" data-name="Calque 2"><rect width="4150" height="3000"/></g><g id="Calque_1" data-name="Calque 1"><path class="cls-2" d="M1986.89,1497c217.87,149.85,596.91,47.46,800.63-67.55,164.91-93.1,355.2-265.18,583.39-221.46,135.18,25.89,212.34,119.45,167.32,225.77-17.15,40.51-52.71,83.34-102.55,102.79-29.21,11.4-69.87,16.24-102.39,8.06-89-22.36-81.81-148.94,25-133.16,15.42,2.27,22.19-15.79,6.56-18.62-68.11-12.3-133,25.07-139.38,80.75-7.43,64.55,73.92,108.38,149.8,108.51,222,.36,287.36-258.16,136.47-358.2-228.53-151.52-502.46,23-684.26,136-149.06,92.64-317.14,157-509.08,169.28-190.46,12.22-387.06-54.76-388.79-223.61C1927.93,1145.1,2133,1026,2325.43,1020.2c136.19-4.13,269.7,77.65,220.31,192.68-39,90.94-269.85,150.23-292.59,16.23-3.57-21-38.64-21.1-37.67,1.57,3,71.17,82.68,115.4,170.51,116.54,102.67,1.34,192.37-65.09,213.66-141.64,23.88-85.87-39.94-174.9-142.64-207.73-112.33-35.92-252.19-8.16-354.11,35.95C1897.66,1122.64,1786.77,1359.35,1986.89,1497Z"/><path class="cls-2" d="M2166.29,1497c-217.87,149.85-596.92,47.46-800.63-67.55-164.92-93.1-355.2-265.18-583.4-221.46C647.09,1233.87,569.93,1327.43,615,1433.75c17.15,40.51,52.7,83.34,102.54,102.79,29.22,11.4,69.88,16.24,102.4,8.06,89-22.36,81.8-148.94-25-133.16-15.41,2.27-22.18-15.79-6.56-18.62,68.12-12.3,133,25.07,139.39,80.75,7.43,64.55-73.91,108.38-149.8,108.51-222,.36-287.36-258.16-136.48-358.2,228.54-151.52,502.47,23,684.27,136,149,92.64,317.13,157,509.07,169.28,190.46,12.22,387.07-54.76,388.8-223.61,1.63-160.41-203.4-279.47-395.86-285.31-136.19-4.13-269.7,77.65-220.31,192.68,39,90.94,268.73,156,291.47,22,3.57-21,39.75-26.83,38.79-4.16-3,71.17-82.68,115.4-170.51,116.54-102.66,1.34-192.38-65.09-213.67-141.64-23.87-85.87,40-174.9,142.64-207.73,112.34-35.92,252.2-8.16,354.12,35.95C2255.52,1122.64,2366.41,1359.35,2166.29,1497Z"/><path class="cls-3" d="M394.89,1795.2v-6.56q27.23,1.21,36.91,1.22,6,0,38.35-1.22v6.56q-20,3.45-23.46,4.55a6.38,6.38,0,0,0-3.55,2.45q-1.68,2.34-1.89,9.67t-.23,82.27q0,14.77.34,39.46h49q11,0,14.34-1.33t6.89-5.9q3.55-4.55,13.34-22.9h9.45l-8.89,24.79q-2.34,6.9-5.67,18.12-46-1.22-80.08-1.22-24.11,0-44.76,1.22v-6.55q16.94-3.12,19.92-4.28a7.32,7.32,0,0,0,4-3.17q1.05-2,1.05-11.68l.56-68.14-.33-43.91q0-5.67-1.67-7.12-2.56-2.22-16.46-4.67C400.48,1796.57,398.07,1796,394.89,1795.2Z"/><path class="cls-3" d="M589.77,1858.23h26.9q15.55,0,18.34-.84a8.1,8.1,0,0,0,4.5-3.39q1.72-2.55,4.28-14.78c.23-.82.56-2.08,1-3.78h7.34q-1.23,18.35-1.22,28.24,0,10.23,1.22,28h-7.34q-3.22-16.12-4-18a6.91,6.91,0,0,0-3.89-3.83c-1.85-.78-7.38-1.17-16.56-1.17H589.88l.55,65.36H637l4.11-.11q9.57,0,12-.77a18.45,18.45,0,0,0,7.45-4.84q3.23-3.39,11.89-19.18c.6-1,1.48-2.55,2.67-4.55h7.67q-1.34,3.56-13.78,41.79-40.47-1.22-73.93-1.22-23.34,0-51.58,1.22v-6.55l18-3.9q4.34-1.22,5.33-2.44c1.12-1.41,1.67-4.34,1.67-8.78v-2l.56-26.13q.1-7.56.11-29.68,0-32.13-.22-47.08t-1.11-17a5.36,5.36,0,0,0-2.06-2.17q-1.39-.84-10.28-2.84l-12-2.66v-6.56q20.9,1.21,49.91,1.22,15.9,0,75.6-1.22a319.55,319.55,0,0,0,2.67,38h-7.79q-4.44-15.12-7.22-20.12A9.53,9.53,0,0,0,652,1802q-3.67-1.44-16.23-1.45H590.88l-.78,35.8Z"/><path class="cls-3" d="M796.87,1831.1h-8.45q-2.89-14.26-6.56-20.85a25.18,25.18,0,0,0-11.17-10.32,37.27,37.27,0,0,0-16.84-3.73q-13.23,0-21.07,7.34a23.52,23.52,0,0,0-7.83,17.81,22.87,22.87,0,0,0,6.44,16.14q6.33,6.9,31,17.42t33.52,21.78a40.64,40.64,0,0,1,8.77,25.49,44.69,44.69,0,0,1-6.61,23.6q-6.62,10.92-19.9,17.43a64.2,64.2,0,0,1-28.63,6.51,112,112,0,0,1-21-2,201.2,201.2,0,0,1-25.18-6.89q1.67-15.67,1.67-41.58h8.56q3.66,16.68,7.6,23.34a29.61,29.61,0,0,0,11.93,11,36.48,36.48,0,0,0,17.54,4.28,37.43,37.43,0,0,0,23-7.34q9.89-7.34,9.88-20.58a28.67,28.67,0,0,0-7.11-19.14q-7.23-8.22-31.3-18.63t-32.18-20a33.45,33.45,0,0,1-8.12-22.55,40.26,40.26,0,0,1,6.56-21.82q6.55-10.4,19.29-16.44a60.72,60.72,0,0,1,26.4-6.06q16.45,0,39.8,7.9-.55,16.23-.56,19.56Q796.31,1819.54,796.87,1831.1Z"/><path class="cls-3" d="M879.47,1795.2v-6.56q14.34,1.21,36.68,1.22l43.91-.44q24.47,0,35.69,10.33T1007,1828.1A45.66,45.66,0,0,1,991.86,1863Q976.74,1877,950.28,1877a122.87,122.87,0,0,1-24.23-2.89q-.12,17.34-.11,24.79,0,28.23,1.11,32.79a4.41,4.41,0,0,0,2.11,2.89q3.11,1.79,20.9,4.34c1,.15,2.52.44,4.45.89v6.55q-21.13-1.22-39.47-1.22-17.34,0-35.57,1.22v-6.55c2.89-.74,5-1.23,6.45-1.45q14.67-3,16.34-4.34,2.78-2.43,2.78-13l.33-53.81-.11-53.8V1811q0-7.11-2.17-9.11T885,1796.53C883.84,1796.24,882,1795.79,879.47,1795.2Zm46.69,69.59a93.68,93.68,0,0,0,20.23,2.67q18.24,0,28.18-9.56t9.95-25.46q0-15.45-9.17-24.13t-28.07-8.67a138.77,138.77,0,0,0-20.12,1.78Q926.26,1835,926.16,1864.79Z"/><path class="cls-3" d="M1065.34,1858.23h26.9q15.57,0,18.35-.84a8.1,8.1,0,0,0,4.5-3.39q1.73-2.55,4.28-14.78c.22-.82.55-2.08,1-3.78h7.33q-1.21,18.35-1.22,28.24,0,10.23,1.22,28h-7.33q-3.22-16.12-4-18a6.94,6.94,0,0,0-3.89-3.83q-2.79-1.17-16.57-1.17h-30.46L1066,1934h46.58l4.11-.11q9.55,0,12-.77a18.49,18.49,0,0,0,7.44-4.84q3.22-3.39,11.9-19.18.89-1.55,2.67-4.55h7.67q-1.34,3.56-13.79,41.79-40.45-1.22-73.92-1.22-23.36,0-51.59,1.22v-6.55l18-3.9q4.34-1.22,5.34-2.44,1.66-2.12,1.67-8.78v-2l.55-26.13q.12-7.56.11-29.68,0-32.13-.22-47.08t-1.11-17a5.23,5.23,0,0,0-2.06-2.17q-1.38-.84-10.28-2.84l-12-2.66v-6.56q20.91,1.21,49.92,1.22,15.9,0,75.59-1.22a323.8,323.8,0,0,0,2.67,38h-7.78q-4.46-15.12-7.23-20.12a9.53,9.53,0,0,0-4.67-4.56q-3.66-1.44-16.23-1.45h-44.91l-.78,35.8Z"/><path class="cls-3" d="M1179.73,1832h-8.56q2.11-19.34,3.78-43.35,49.2,1.21,70.2,1.22,17.44,0,63.54-1.22,1.44,24.79,3.33,43.35h-8.34q-5.21-20.34-6.76-23.84a9.83,9.83,0,0,0-4.5-5c-2-1-6.93-1.51-14.91-1.51h-24.63q-.9,29.58-.89,73.15,0,40.47.89,54.7c.15,2.22.7,3.74,1.67,4.55q1.89,1.56,18.34,4.79c1,.14,2.59.48,4.67,1v6.55q-22-1.22-39.24-1.22-16.35,0-33.46,1.22v-6.55q3.89-1,5.89-1.34,15.23-2.55,17.56-4.33a5.38,5.38,0,0,0,1.5-2.51q.51-1.61.84-24.62.43-35.57.44-52.69,0-29.91-.44-52.7h-26.46l-4.78.12q-6.35,0-8.34,1.33-3.1,1.89-5.56,8Q1183.62,1815.77,1179.73,1832Z"/><path class="cls-3" d="M1393.73,1788.64v6.56c-2.6.59-4.52,1-5.78,1.22q-14.79,2.57-17.12,4.84t-2.34,10.17v3.89l-.55,44.69.33,64.92q0,7.78,2.28,9.89t15.62,3.67q2.55.33,7.45,1.34v6.55q-17.91-1.22-34.46-1.22-17.13,0-37.58,1.22v-6.55a39.55,39.55,0,0,1,4.89-1.12q15.78-2.55,18.07-4.72c1.51-1.45,2.28-5.09,2.28-11l-.23-5.56.34-40.8q0-62.91-.34-69.59a8,8,0,0,0-2.38-5.67q-2.14-2-16.76-4.78c-1.33-.29-3.29-.78-5.87-1.44v-6.56q24.17,1.21,37.74,1.22Q1374.47,1789.86,1393.73,1788.64Z"/><path class="cls-3" d="M1412.18,1832h-8.56q2.12-19.34,3.78-43.35,49.21,1.21,70.2,1.22,17.45,0,63.54-1.22,1.44,24.79,3.33,43.35h-8.34q-5.2-20.34-6.76-23.84a9.78,9.78,0,0,0-4.5-5c-1.95-1-6.93-1.51-14.91-1.51h-24.63q-.88,29.58-.89,73.15,0,40.47.89,54.7c.15,2.22.7,3.74,1.67,4.55q1.89,1.56,18.34,4.79c1,.14,2.59.48,4.67,1v6.55q-22-1.22-39.24-1.22-16.35,0-33.46,1.22v-6.55q3.89-1,5.89-1.34,15.22-2.55,17.56-4.33a5.38,5.38,0,0,0,1.5-2.51q.51-1.61.84-24.62.44-35.57.44-52.69,0-29.91-.44-52.7h-26.46l-4.78.12c-4.23,0-7,.44-8.34,1.33q-3.11,1.89-5.56,8Q1416.07,1815.77,1412.18,1832Z"/><path class="cls-3" d="M1598.94,1858.23h26.91q15.56,0,18.34-.84a8.1,8.1,0,0,0,4.5-3.39q1.72-2.55,4.28-14.78c.22-.82.56-2.08,1-3.78h7.34q-1.23,18.35-1.22,28.24,0,10.23,1.22,28H1654q-3.23-16.12-4-18a6.91,6.91,0,0,0-3.89-3.83c-1.85-.78-7.38-1.17-16.56-1.17h-30.46l.55,65.36h46.58l4.11-.11q9.57,0,12-.77a18.45,18.45,0,0,0,7.45-4.84q3.23-3.39,11.89-19.18c.6-1,1.48-2.55,2.67-4.55H1692q-1.34,3.56-13.78,41.79-40.47-1.22-73.93-1.22-23.34,0-51.58,1.22v-6.55l18-3.9q4.33-1.22,5.33-2.44c1.12-1.41,1.67-4.34,1.67-8.78v-2l.56-26.13q.11-7.56.11-29.68,0-32.13-.22-47.08t-1.12-17a5.27,5.27,0,0,0-2-2.17q-1.4-.84-10.29-2.84l-12-2.66v-6.56q20.9,1.21,49.91,1.22,15.9,0,75.6-1.22a321.66,321.66,0,0,0,2.66,38h-7.78q-4.44-15.12-7.22-20.12a9.53,9.53,0,0,0-4.67-4.56q-3.67-1.44-16.23-1.45h-44.91l-.78,35.8Z"/><path class="cls-3" d="M1806.05,1831.1h-8.45q-2.89-14.26-6.56-20.85a25.18,25.18,0,0,0-11.17-10.32,37.27,37.27,0,0,0-16.84-3.73q-13.23,0-21.07,7.34a23.53,23.53,0,0,0-7.84,17.81,22.88,22.88,0,0,0,6.45,16.14q6.33,6.9,31,17.42t33.52,21.78a40.64,40.64,0,0,1,8.77,25.49,44.78,44.78,0,0,1-6.61,23.6q-6.62,10.92-19.9,17.43a64.2,64.2,0,0,1-28.63,6.51,112.07,112.07,0,0,1-21-2,201.2,201.2,0,0,1-25.18-6.89q1.67-15.67,1.66-41.58h8.56q3.67,16.68,7.61,23.34a29.54,29.54,0,0,0,11.93,11,36.48,36.48,0,0,0,17.54,4.28,37.43,37.43,0,0,0,23-7.34q9.87-7.34,9.88-20.58a28.63,28.63,0,0,0-7.12-19.14q-7.21-8.22-31.29-18.63t-32.18-20a33.45,33.45,0,0,1-8.12-22.55,40.26,40.26,0,0,1,6.56-21.82q6.56-10.4,19.29-16.44a60.72,60.72,0,0,1,26.4-6.06q16.45,0,39.8,7.9-.55,16.23-.56,19.56Q1805.49,1819.54,1806.05,1831.1Z"/><path class="cls-3" d="M1884.64,1795.2v-6.56q18.57,1.21,28.25,1.22,11,0,23.68-1.22,4.54,11.68,7.32,17.79,3.66,8.23,29,62.41,10.76,23,21.75,44.93l47.44-99.88q4.34-9.24,10.34-25.25,14.89,1.21,22.79,1.22,7.35,0,24.81-1.22v6.56c-2.23.59-3.89,1-5,1.22q-15.45,3.12-17.23,4.56-2.89,2.22-2.89,11.23v1.44l-.44,35.24q0,66.48.55,80.71a6,6,0,0,0,1.73,4.44q1.61,1.45,18.95,4.79a42.08,42.08,0,0,1,4.34,1v6.55q-20-1.22-35.24-1.22-15.57,0-36.8,1.22v-6.55c2.89-.74,5.07-1.26,6.56-1.56q13.56-2.55,15.51-3.61a5.39,5.39,0,0,0,2.61-3q1-3.23,1-18v-97q-10.11,20-45.65,96.38-9.78,21-14.44,32.13h-6.33q-24.89-55.25-61-128.51l1.45,103.61q0,12.35,2,14.12t16.78,4.33c1.12.23,2.82.6,5.12,1.12v6.55q-19.24-1.22-31.13-1.22t-31.46,1.22v-6.55a42.07,42.07,0,0,1,4.78-1.12q14.67-2.88,16.45-5,2.67-3.11,2.78-15.23l.56-25q.56-34.24.55-66.37l-.11-13.56q0-8.11-1-10.17a5.88,5.88,0,0,0-3.22-2.95q-4.23-1.67-18.9-3.89C1889.46,1796.31,1887.38,1795.86,1884.64,1795.2Z"/><path class="cls-3" d="M2155.11,1858.23H2182q15.55,0,18.34-.84a8.1,8.1,0,0,0,4.5-3.39q1.72-2.55,4.28-14.78c.22-.82.56-2.08,1-3.78h7.34q-1.23,18.35-1.22,28.24,0,10.23,1.22,28h-7.34q-3.22-16.12-4-18a6.91,6.91,0,0,0-3.89-3.83c-1.85-.78-7.38-1.17-16.56-1.17h-30.46l.55,65.36h46.58l4.11-.11q9.57,0,12-.77a18.45,18.45,0,0,0,7.45-4.84q3.22-3.39,11.89-19.18.9-1.55,2.67-4.55h7.67q-1.34,3.56-13.78,41.79-40.47-1.22-73.93-1.22-23.34,0-51.58,1.22v-6.55l18-3.9q4.34-1.22,5.33-2.44c1.12-1.41,1.67-4.34,1.67-8.78v-2l.56-26.13q.11-7.56.11-29.68,0-32.13-.22-47.08t-1.12-17a5.27,5.27,0,0,0-2.05-2.17q-1.39-.84-10.28-2.84l-12-2.66v-6.56q20.9,1.21,49.91,1.22,15.9,0,75.6-1.22a321.66,321.66,0,0,0,2.67,38h-7.79q-4.44-15.12-7.22-20.12a9.53,9.53,0,0,0-4.67-4.56q-3.67-1.44-16.23-1.45h-44.91l-.78,35.8Z"/><path class="cls-3" d="M2260.61,1795.2v-6.56q29.46,1.21,47.25,1.22,10.23,0,19.12-.22,11.78-.45,16.34-.45,21.67,0,32.68,10.23t10.9,27.91a41.27,41.27,0,0,1-19.24,36.13q-6.78,4.45-19.35,7.9l37,48.24q6.9,9,8.68,10.56a24.67,24.67,0,0,0,7.22,4q6.24,2.44,21,5.67v6.55q-17.57-1.22-25.57-1.22a151.66,151.66,0,0,0-18.9,1.22q-5-8.33-13.56-21t-10.45-15c-.74-.89-1.44-1.82-2.11-2.78l-24.46-33.57q-9.9-.23-20-1.45l.89,56a7.27,7.27,0,0,0,2,5q2.67,2.22,16.68,4.78,2,.33,6.11,1.34v6.55q-20.11-1.22-35.46-1.22-16.45,0-36.8,1.22v-6.55l4.78-1q15.9-3,18.07-4.95c1.44-1.3,2.28-3.61,2.5-7q.23-3.23.55-57.14l-.44-52.25q-.11-12-.61-13.78a4.2,4.2,0,0,0-2.17-2.67q-5.45-2.89-17.23-4.78C2264.87,1796.09,2263.06,1795.72,2260.61,1795.2Zm46.58,68q11.57,1.23,17.9,1.22,20.23,0,30-9t9.73-25q0-14-8.62-22.16t-25.07-8.13q-5.9,0-23.23,1.33Z"/><path class="cls-3" d="M2481.84,1949.72h-7.34q-14.46-42.36-35.24-95.49-17.34-44.25-19.79-48.81a13.32,13.32,0,0,0-4-4.61q-2.34-1.61-16.56-5.61v-6.56q24,1.21,31.57,1.22,10.77,0,31.57-1.22v6.56c-1.34.37-2.34.63-3,.77q-10.9,2.67-12.84,4.28a4.76,4.76,0,0,0-1.95,3.73,9.72,9.72,0,0,0,.34,2.44q2,8.13,16.65,48.16l21.1,58.16q13.68-35.35,23.93-65.5,12.9-37.7,13.8-41.82a6.39,6.39,0,0,0,.22-1.55,4.23,4.23,0,0,0-1.67-3.45q-2.45-1.89-16.23-5.56v-6.22c.45,0,3.11.11,8,.33q17.12.9,22,.89,9.45,0,22.56-1.22v6.22q-11.57,3-14.67,5.28t-6.45,9.95q-6.78,15.35-34.13,90.49Z"/><path class="cls-3" d="M2606.9,1858.23h26.9q15.57,0,18.34-.84a8.09,8.09,0,0,0,4.51-3.39q1.72-2.55,4.28-14.78c.22-.82.55-2.08,1-3.78h7.33q-1.22,18.35-1.22,28.24,0,10.23,1.22,28h-7.33q-3.22-16.12-4-18a6.93,6.93,0,0,0-3.9-3.83q-2.78-1.17-16.56-1.17H2607l.56,65.36h46.58l4.11-.11q9.55,0,12-.77a18.49,18.49,0,0,0,7.44-4.84q3.23-3.39,11.9-19.18.88-1.55,2.67-4.55H2700q-1.34,3.56-13.79,41.79-40.45-1.22-73.92-1.22-23.35,0-51.59,1.22v-6.55l18-3.9q4.34-1.22,5.34-2.44,1.66-2.12,1.67-8.78v-2l.55-26.13q.11-7.56.11-29.68,0-32.13-.22-47.08t-1.11-17a5.29,5.29,0,0,0-2.06-2.17q-1.39-.84-10.28-2.84l-12-2.66v-6.56q20.91,1.21,49.92,1.22,15.9,0,75.59-1.22a323.8,323.8,0,0,0,2.67,38h-7.78q-4.46-15.12-7.23-20.12a9.53,9.53,0,0,0-4.67-4.56q-3.66-1.44-16.23-1.45H2608l-.78,35.8Z"/><path class="cls-3" d="M2786,1788.64v6.56c-2.6.59-4.52,1-5.78,1.22q-14.79,2.57-17.12,4.84t-2.33,10.17v3.89l-.56,44.69.33,64.92q0,7.78,2.28,9.89t15.62,3.67q2.57.33,7.45,1.34v6.55q-17.9-1.22-34.46-1.22-17.13,0-37.58,1.22v-6.55a39.55,39.55,0,0,1,4.89-1.12q15.8-2.55,18.07-4.72c1.52-1.45,2.28-5.09,2.28-11l-.22-5.56.33-40.8q0-62.91-.33-69.59a8.12,8.12,0,0,0-2.38-5.67q-2.16-2-16.77-4.78c-1.33-.29-3.29-.78-5.87-1.44v-6.56q24.16,1.21,37.75,1.22Q2766.72,1789.86,2786,1788.64Z"/><path class="cls-3" d="M2796.33,1795.2v-6.56q27.24,1.21,36.91,1.22,6,0,38.35-1.22v6.56q-20,3.45-23.46,4.55a6.38,6.38,0,0,0-3.55,2.45q-1.68,2.34-1.89,9.67t-.23,82.27q0,14.77.34,39.46h49q11,0,14.34-1.33t6.89-5.9q3.57-4.55,13.35-22.9h9.44l-8.89,24.79q-2.34,6.9-5.67,18.12-46-1.22-80.08-1.22-24.1,0-44.76,1.22v-6.55q16.93-3.12,19.92-4.28a7.32,7.32,0,0,0,4-3.17q1-2,1-11.68l.56-68.14-.33-43.91q0-5.67-1.67-7.12-2.57-2.22-16.46-4.67C2801.92,1796.57,2799.51,1796,2796.33,1795.2Z"/><path class="cls-3" d="M2945.63,1795.2v-6.56q27.23,1.21,36.9,1.22,6,0,38.36-1.22v6.56q-20,3.45-23.46,4.55a6.44,6.44,0,0,0-3.56,2.45q-1.66,2.34-1.89,9.67t-.22,82.27q0,14.77.33,39.46h49q11,0,14.34-1.33t6.89-5.9q3.55-4.55,13.34-22.9h9.45l-8.89,24.79q-2.34,6.9-5.67,18.12-46-1.22-80.08-1.22-24.11,0-44.76,1.22v-6.55q16.94-3.12,19.92-4.28a7.32,7.32,0,0,0,4-3.17q1.05-2,1.05-11.68l.56-68.14-.34-43.91q0-5.67-1.66-7.12-2.57-2.22-16.46-4.67C2951.22,1796.57,2948.81,1796,2945.63,1795.2Z"/><path class="cls-3" d="M3140.5,1858.23h26.91q15.56,0,18.34-.84a8.1,8.1,0,0,0,4.5-3.39q1.73-2.55,4.28-14.78c.22-.82.56-2.08,1-3.78h7.34q-1.23,18.35-1.22,28.24,0,10.23,1.22,28h-7.34q-3.22-16.12-4-18a6.91,6.91,0,0,0-3.89-3.83q-2.78-1.17-16.57-1.17h-30.46l.56,65.36h46.58l4.11-.11q9.57,0,12-.77a18.45,18.45,0,0,0,7.45-4.84q3.22-3.39,11.89-19.18c.6-1,1.48-2.55,2.67-4.55h7.67q-1.34,3.56-13.78,41.79-40.47-1.22-73.93-1.22-23.34,0-51.58,1.22v-6.55l18-3.9q4.33-1.22,5.33-2.44,1.67-2.12,1.67-8.78v-2l.56-26.13q.11-7.56.11-29.68,0-32.13-.22-47.08t-1.12-17a5.27,5.27,0,0,0-2-2.17q-1.4-.84-10.29-2.84l-12-2.66v-6.56q20.89,1.21,49.91,1.22,15.9,0,75.6-1.22a321.66,321.66,0,0,0,2.66,38h-7.78q-4.44-15.12-7.22-20.12a9.57,9.57,0,0,0-4.67-4.56q-3.68-1.44-16.23-1.45h-44.91l-.78,35.8Z"/><path class="cls-3" d="M3347.61,1831.1h-8.45q-2.89-14.26-6.56-20.85a25.18,25.18,0,0,0-11.17-10.32,37.27,37.27,0,0,0-16.84-3.73q-13.23,0-21.07,7.34a23.53,23.53,0,0,0-7.84,17.81,22.88,22.88,0,0,0,6.45,16.14q6.33,6.9,31,17.42t33.52,21.78a40.64,40.64,0,0,1,8.77,25.49,44.78,44.78,0,0,1-6.61,23.6q-6.62,10.92-19.9,17.43a64.2,64.2,0,0,1-28.63,6.51,112,112,0,0,1-20.95-2,201.2,201.2,0,0,1-25.18-6.89q1.66-15.67,1.66-41.58h8.56q3.67,16.68,7.61,23.34a29.54,29.54,0,0,0,11.93,11,36.44,36.44,0,0,0,17.53,4.28,37.44,37.44,0,0,0,23-7.34q9.87-7.34,9.88-20.58a28.63,28.63,0,0,0-7.12-19.14q-7.23-8.22-31.29-18.63t-32.18-20a33.45,33.45,0,0,1-8.12-22.55,40.26,40.26,0,0,1,6.56-21.82q6.55-10.4,19.29-16.44a60.69,60.69,0,0,1,26.4-6.06q16.46,0,39.8,7.9-.56,16.23-.56,19.56Q3347.05,1819.54,3347.61,1831.1Z"/><path class="cls-3" d="M3430.65,1795.2v-6.56q22,1.21,47.91,1.22l49.58-.67q25.24,0,40.3,7.29t23.4,23.17q8.34,15.9,8.34,37,0,38.91-26.46,64.26t-71,25.34q-2.57,0-20.35-.61t-20.9-.61q-10.77,0-30.79,1.33v-6.55q18.12-3.45,20.18-4.12a7.37,7.37,0,0,0,2.94-1.55,4.83,4.83,0,0,0,1.23-2.45q.55-2.34.77-18.9.67-36.12.67-52.58l-.67-48.69.12-3.78q0-5.57-3.23-7.12Q3450.77,1799.53,3430.65,1795.2Zm47.47,138a254.42,254.42,0,0,0,30.24,2.22q19,0,31.35-6.12a61,61,0,0,0,26.84-26.23q9.18-17.23,9.17-42.36a88,88,0,0,0-3-24q-3.06-10.85-8.17-17.29a47.61,47.61,0,0,0-19.46-14.62q-12-5.05-34.68-5.06-13.68,0-32.24,1.67-.67,29.24-.67,66.26Q3477.45,1906.82,3478.12,1933.16Z"/><path class="cls-3" d="M3661.1,1858.23H3688q15.57,0,18.35-.84a8.1,8.1,0,0,0,4.5-3.39q1.72-2.55,4.28-14.78c.22-.82.55-2.08,1-3.78h7.34q-1.23,18.35-1.23,28.24,0,10.23,1.23,28h-7.34q-3.23-16.12-4-18a6.91,6.91,0,0,0-3.89-3.83q-2.79-1.17-16.57-1.17h-30.46l.56,65.36h46.58l4.11-.11q9.55,0,12-.77a18.49,18.49,0,0,0,7.44-4.84q3.23-3.39,11.9-19.18.89-1.55,2.67-4.55h7.67q-1.33,3.56-13.79,41.79-40.46-1.22-73.92-1.22-23.36,0-51.58,1.22v-6.55l18-3.9q4.33-1.22,5.34-2.44,1.66-2.12,1.67-8.78v-2l.55-26.13q.12-7.56.11-29.68,0-32.13-.22-47.08t-1.11-17a5.23,5.23,0,0,0-2.06-2.17q-1.38-.84-10.28-2.84l-12-2.66v-6.56q20.89,1.21,49.91,1.22,15.9,0,75.59-1.22a323.8,323.8,0,0,0,2.67,38h-7.78q-4.44-15.12-7.23-20.12a9.49,9.49,0,0,0-4.67-4.56q-3.66-1.44-16.23-1.45h-44.91l-.78,35.8Z"/><path class="cls-4" d="M2007.71,595.75c-71.48,74.3-194.06,15.19-191.65-85.82,4.4-184.85,259.9-279.54,399.78-193.84,130.35,79.85,159.42,234.2,49.16,344.25-73.51,73.38-162.37,55-184.71,177.67-14.62,80.29-7.41,144.3-.45,235.78"/><path class="cls-3" d="M1366.26,2563.61q-13.3,1.36-28.28,3.6t-27.83,5.31q-12.84,3.09-16.26,5.67-6.83,6.92-7.61,18.48t-.73,20.15q.08,13.72,2.28,22.71t6.56,21.82a464.23,464.23,0,0,1-48.65,38.88,311.28,311.28,0,0,1-49.13,27.73,238.11,238.11,0,0,1-53.92,16.61,353.17,353.17,0,0,1-62.13,5.51q-53.18.32-109-15.64t-98-49.15A247.54,247.54,0,0,1,827.81,2638a280.35,280.35,0,0,1-32.92-57.68,350.91,350.91,0,0,1-20.1-63.75,321.24,321.24,0,0,1-7.25-65.55q-.39-65.14,22.86-120.61t64.17-95.55q40.92-40.11,96.94-63.17t120.33-23.44a373.48,373.48,0,0,1,80.22,8.1q39,8.35,79.42,19.25a46.27,46.27,0,0,0,8.59,2.52,42.91,42.91,0,0,0,8.58.81q12-.08,22.22-12.14l11.14-.06,25.16,193.62-9.43.06q-13.9-29.93-28.65-60.71a311.7,311.7,0,0,0-34.63-56.38,148,148,0,0,0-32.77-31.1,192.68,192.68,0,0,0-40.86-21.62,250.9,250.9,0,0,0-90.55-16.61q-56.6.33-94.61,23.28a181.4,181.4,0,0,0-60.95,59.52q-22.94,36.6-32.94,83.8a450,450,0,0,0,2.89,198.9q12.3,51.38,38.71,91.94a210.21,210.21,0,0,0,68.55,66q42.15,25.47,101.33,25.12a211.89,211.89,0,0,0,24-1.86,258.4,258.4,0,0,0,29.12-5.32,129.75,129.75,0,0,0,27-9.59q12.38-6.06,18.34-14.68a53.09,53.09,0,0,0,5.93-13.33,105.9,105.9,0,0,0,3.75-17.6q1.23-9.43,1.61-18c.24-5.71.36-10.58.34-14.58q-.06-8.57-.53-16.72t-1.38-16.71c-.62-6.86-1.36-11.42-2.23-13.71s-5.32-4.25-13.33-5.92a60.2,60.2,0,0,0-12-2.07,58.55,58.55,0,0,1-12-2.07l-90.11-14.9-.09-14.58,312.11,2.44.11,18Q1379.53,2562.25,1366.26,2563.61Z"/><path class="cls-3" d="M2320.4,2176.82q-12.86.93-26.14,2.73t-25.69,4.43q-12.43,2.66-20.11,7.84-12,6.94-23.84,26.72t-22.9,43q-11,23.22-20.31,45.56t-15.22,36.11l-164,399.67-6.86,0-132.27-327.6L1721,2744.56l-6,0-174.08-436.24q-7.83-19.67-16.52-38.49t-18.23-37.62q-7-14.52-13-21.78t-21.52-14a154.57,154.57,0,0,0-47.22-11.3q-24.9-2-49.76-3.56l-.12-20.58,326.67-1.94.12,20.58a442,442,0,0,0-53.13,5.46q-18,1.83-30.82,8.33t-12.69,27.94a82.4,82.4,0,0,0,3.57,23.56q3.48,11.55,7.85,22.67l130.55,325.9,140.37-329.22,9.44-.06,129.7,327.62L2124.13,2334c2.23-6.29,5.06-13.88,8.43-22.77s6.61-17.9,9.71-27.06a252.65,252.65,0,0,0,7.55-27.49,114.67,114.67,0,0,0,2.86-24q-.09-13.71-4.43-22.7a37.61,37.61,0,0,0-12.09-14.5,58.63,58.63,0,0,0-18-8.47,159.54,159.54,0,0,0-23.18-4.58q-25.74-3.26-52.33-4.83l-.12-20.58,300.08-1.78.13,20.58Q2333.24,2175.88,2320.4,2176.82Z"/><path class="cls-3" d="M2865.68,2676.22q-18.22,37.17-35.12,77.18l-17.15.1c-1.19-5.71-2.21-10.57-3.09-14.56s-2.33-7-4.34-9a17.08,17.08,0,0,0-8.17-4.24,63.15,63.15,0,0,0-14.58-1.2l-391.83,2.33-.11-18.87q3.42,0,15-.94t24.85-2.29q13.28-1.37,24.84-3.58t14.12-4.81q5.12-5.17,7.6-20.22t3.66-33.09q1.18-18,1.51-34.79t.29-23.62l-1.71-286.79q-.15-24.9-1.16-51.1a219,219,0,0,0-8-51q-1.77-6.85-6.49-10.25a34.77,34.77,0,0,0-10.32-5.1,42.13,42.13,0,0,0-12.44-1.66,88.83,88.83,0,0,1-12.87-.78l-28.31-2.4-.12-20.6,378.11-2.25,29.92-14.78,11.23,14.47q-11.83,30-20.65,59.51t-17.22,60.36l-9.43.06q-3.54-17.07-7.06-33.72a99.85,99.85,0,0,0-13-32q-6.95-11.07-15.54-17a56.69,56.69,0,0,0-18.91-8.44,90.37,90.37,0,0,0-21.88-2.44l-22.72.14-55.73.33a424.52,424.52,0,0,0-47.14,2.85,369.85,369.85,0,0,0-5.76,41.48q-1.6,20.11-1.46,41.46l.85,144.45,66.88-.4q20.58-.12,33.42-3.63t20.94-11.27a68.44,68.44,0,0,0,14-20.23q5.92-12.45,13.55-29.66l21.43-.13q-4.86,46.34-6.74,91.78t.12,91.75l-16.29.09c-1.18-4-3.06-10-5.68-18s-5.54-16.26-8.72-24.81a203.85,203.85,0,0,0-10.43-23.52q-5.66-10.68-10-15-3.47-2.55-14.6-4.2t-24-2.43q-12.85-.77-24.44-1.14c-7.72-.23-13-.35-15.86-.33l-33.44.2,1,170.31a406.7,406.7,0,0,0,2.39,42.15q2.26,20.64,5.83,42.11a201.8,201.8,0,0,0,42.48,7.06q21,1.17,43.31,1,41.14-.24,72.84-6.86a240.59,240.59,0,0,0,58.61-20.07,253.73,253.73,0,0,0,51.24-34.17,626.59,626.59,0,0,0,51.58-50l10.35,10.23Q2883.89,2639,2865.68,2676.22Z"/><path class="cls-3" d="M3365,2146.62l.12,20.58q19.71.75,40.31,1.9a268.85,268.85,0,0,1,40.33,5.34c8,1.66,13.87,3.64,17.61,5.89s7,7.4,10,15.38q3.48,10.26,5.74,27.83t3.65,36.42q1.39,18.86,1.5,36.86l.18,30q.38,62.6-.55,124.33t-2.26,124.34l-.56-.61a13.08,13.08,0,0,1,.06,1.41c0,21.59-1.9,43.32-2.34,64.94-.45,21.9.8,43.53,1.34,65.38a155.34,155.34,0,0,1,17,25.69l21.43-.13q-1.16-50.57-.6-102l2-235.8q.64-36,1.3-71.17t3-71.18q.78-12,2-23.59a237.3,237.3,0,0,1,3.72-23.61,88,88,0,0,1,6.74-19.76q4.23-8.58,17.08-10.39,24.86-2.71,50.56-5t50.56-4.16l-.12-20.58Z"/><path class="cls-3" d="M3169.67,2187.22q4.23-8.58,17.09-10.39,24.84-2.72,50.56-5t50.56-4.16l-.12-20.58L2998,2148.8l.12,20.58q19.73.75,40.31,1.91a267.38,267.38,0,0,1,40.33,5.33q12,2.51,17.62,5.9"/><polygon class="cls-3" points="685.36 2266.02 808.82 2292.05 642.41 2334.91 685.36 2266.02"/><polygon class="cls-3" points="718.92 2187.35 661.22 2190.93 683.39 2244.33 718.92 2187.35"/><polygon class="cls-3" points="819.97 2274.43 782.37 2110.44 739.37 2179.4 819.97 2274.43"/><polygon class="cls-3" points="605.24 2270.01 630.08 2329.83 669.89 2265.99 605.24 2270.01"/><polygon class="cls-3" points="684.3 1986.62 684.3 1986.62 684.31 1986.62 684.3 1986.62"/><polygon class="cls-3" points="692.77 2254.14 805.72 2277.97 732.07 2191.12 692.77 2254.14"/><polygon class="cls-3" points="763.95 1981.67 763.95 1981.67 763.95 1981.67 763.95 1981.67"/><polygon class="cls-3" points="732.43 2165.69 772.23 2101.85 707.59 2105.87 732.43 2165.69"/><polyline class="cls-3" points="633.18 2337.28 633.18 2337.28 633.18 2337.28"/><polygon class="cls-3" points="602.57 2263.59 602.57 2263.59 602.57 2263.59 602.57 2263.59"/><polygon class="cls-3" points="647.34 2191.8 606.84 2256.74 672.61 2252.65 647.34 2191.8"/><polygon class="cls-3" points="696.38 2113.15 655.88 2178.09 721.65 2174.01 696.38 2113.15"/><path class="cls-5" d="M596.78,2138.54a3.79,3.79,0,0,1-.48,1.34,3.68,3.68,0,0,1-5,1.27L500.61,2087a3.68,3.68,0,0,1,3.77-6.31L595,2134.84A3.66,3.66,0,0,1,596.78,2138.54Z"/><path class="cls-6" d="M580.59,2188.54a3.68,3.68,0,0,1-4,3.1l-70.44-7.88a3.67,3.67,0,1,1,.82-7.3l70.43,7.87a3.67,3.67,0,0,1,3.25,4.06C580.6,2188.44,580.6,2188.49,580.59,2188.54Z"/><path class="cls-7" d="M593.59,2228.32a3.64,3.64,0,0,1-1.84,2.66l-92.19,51.45A3.68,3.68,0,1,1,496,2276l92.19-51.45a3.67,3.67,0,0,1,5.43,3.76Z"/><path class="cls-8" d="M676.13,2096.42a3.68,3.68,0,0,1-7.31-.61l1.54-105.57a3.67,3.67,0,1,1,7.34.11l-1.53,105.56A4.21,4.21,0,0,1,676.13,2096.42Z"/><path class="cls-9" d="M624.74,2107.39a3.68,3.68,0,0,1-7,.92l-28.39-64.93a3.67,3.67,0,1,1,6.73-3l28.4,64.93A3.69,3.69,0,0,1,624.74,2107.39Z"/><path class="cls-10" d="M3168.11,2158.34s39.73,52.62,80.75,114.6c39.76,60.07,80.72,128.92,87.94,167.21,0,0,62.13,101.59,90.23,138.17s46.6,64.25,61.62,109.17c5.14,15.36,22,24.66,23.91,27.88s-6,4.06-13.72,3.4-13.49-3.76-25.82-21.92-39.28-27.55-53-34.63-10.45-22.25.27-30c0,0-23.42-37.34-59.82-62.87s-82.43-83-102.25-150c0,0-20.65-35.35-79-85.79-46.26-40-57.42-58.92-57.42-58.92Z"/><path class="cls-10" d="M3153.77,2165.59s29.36,35.07,64.64,81.36c1.9,45.54,5.39,90.8,29.32,130.28,24.41,40.78,47.94,86.31,60.83,133.06.35,1.29.75,2.55,1.11,3.83-21.13-25.72-40.53-57.5-52.77-92.3,0,0-22.4-34.28-83.2-81.72-48.21-37.62-60.31-55.95-60.31-55.95Z"/><path class="cls-10" d="M3217.09,2148.89l-129.49,1.92s11.11,99.1,32.38,243.46c0,0-21,50.19-22.13,90.16s22.59,114.81,16.5,132.12c0,0-28.88-7.85-34.77,7.06s19.66,22.54,17.39,44.42-6.67,44.89,8.6,52.58a163.75,163.75,0,0,0,38.4,4.63c10.27,0-11.86-10-16-13.15s25.22-49.41,16.62-86.67c0,0,11.11-126.1,25.66-167s14.05-59.34,19.06-99.92S3217.09,2148.89,3217.09,2148.89Z"/><path class="cls-10" d="M3109.75,2519.91c-.38-25.57-1.68-52.64,6-77.58,5.92-22.66,19.91-43.93,25.82-67.35,7.51-36.22-3.8-75.17-10.59-111.19a553.93,553.93,0,0,1-7.13-113.52l-36.25.54s11.11,99.1,32.38,243.46c0,0-21,50.19-22.13,90.16-.68,23.43,7.19,58.81,12.6,87.59C3110.08,2554.5,3110.48,2536.92,3109.75,2519.91Z"/><path class="cls-10" d="M3101,2169.42a38.85,38.85,0,0,0,12.11,3.45c3.83.45,7.68,1.2,11.58.7a1.06,1.06,0,0,0,.73-1.81c0-.7-.07-1.4-.15-2.11a19.75,19.75,0,0,0-.29-6c0-1.34-.12-2.69-.23-4a.76.76,0,0,0,.09-.09c1-1.32.57-3.49.49-5"/><path class="cls-10" d="M3125.25,2154.21a162.52,162.52,0,0,0,.75,19.71c-4.18-.13-8.28-.46-12.45-.89-4.34-.45-8.17-2.61-12.53-3.07a2.21,2.21,0,0,0-.05-.25c-.1-.42-.82-.42-1,0-1.58,3.61-1,8.44-1.44,12.25-.61,4.89-2.62,9.56-4.44,14.16-1.74,4.39-3.7,8.86-5.08,13.35-.06.19-.13.38-.19.57-2.65,4.27-4.19,9.27-6.42,13.75-.93,1.87-1.63,3.84-2.42,5.75-1,2.45-2.4,4.83-3.23,7.32-.62,1.91-1.74,3.68-2.48,5.56-.94,2.4-1.7,4.85-2.54,7.28a25.19,25.19,0,0,0-1.11,6.09c0,.17-.1.33-.14.49a73.65,73.65,0,0,0-1.93,17.68c-.07,6.35-.58,12.7-.58,19,0,.71,0,1.41.05,2.12s-.07,1.24-.05,1.87c.11,4-1,8.41-.26,12.35,0,.29,0,.58,0,.87-.22,4-.6,7.93-1,11.87-.32,3.49-.28,7-.31,10.51,0,3.29-.57,6.88.17,10.14-.27,1.25-.54,2.51-.8,3.77a139.62,139.62,0,0,0-3,24.59c-.32,2.69-.7,5.37-.9,8.07,0,.5-.15,1.26-.17,2a8.37,8.37,0,0,0,.05,2.18c-.7,1.91,1.41,2.47,3.21,2.32a39.45,39.45,0,0,0,8-1.94c2.38-.31,4.82.32,7.12.71,8.62,1.42,17.35,4,26.15,4.61.85.11,1.73.14,2.54.23,2.33.28,4.71.35,7,.64,3.83.49,8.19.61,11.23-2a4.64,4.64,0,0,1,4.18-.36,10.1,10.1,0,0,1,3.16,2.24,7.5,7.5,0,0,0,5.42,1.7l.31,0a114.56,114.56,0,0,0,18.05-.29c5.26-.38,10.45-.76,15.7-1.42,6.38-.8,13.41-1,19.05-4.39a4.92,4.92,0,0,0,2.38-2.65.48.48,0,0,0,.26-.07c2-1.24,3.44-3.06,5.4-4.36a19.62,19.62,0,0,1,8.07-2.56,33,33,0,0,1,11.85.69c.5.22,1,.36,1.53.61a15.29,15.29,0,0,0,3,1.14c1.61,1.38,7.11-.16,8.3-.35a43.1,43.1,0,0,0,14.76-4.68c4.57-2.59,10.76-5.77,15.23-8.51s6.79-5.12,10.56-8.77c1.87-1.82,2.46-5.19,1.24-6.9,3.5-.68,9.7-4.76,12.07-6.29,1.89-1.23,7.76-7.9,9.06-9.79,2.35-3.39,5.18-9.1,2.32-12.9a48.62,48.62,0,0,0-8.8-9.4.55.55,0,0,0-.19-.09c-.15-.13-.29-.27-.43-.41-1.76-1.8-3.13-3.82-4.82-5.67q-4.62-5-9.29-10c-5.71-6.06-9.34-13.3-14.29-19.8-.18-.34-.37-.69-.52-1.05a9,9,0,0,1-.42-1.47,114.11,114.11,0,0,0-5.78-22.28,89.32,89.32,0,0,0-5-11.36c-.85-1.66-1.5-4.15-2.66-6,0,0,0-.07,0-.11v-.07a.9.9,0,0,0-.19-.43c-3.34-6.12-7.54-11.69-11.48-17.47-1.89-2.78-4.32-5.16-6.42-7.8-.92-1.16-1.73-2.39-2.59-3.59a7,7,0,0,0-1.94-1.59c-1.89-2.9-4.43-5.51-6.37-8.38-2.15-3.19-4.87-6.15-7.24-9.21a108.37,108.37,0,0,1-7.69-11.44c-1.42-2.43-2-5.3-2.81-8-.1-.22-.22-.43-.32-.65-.79-1.67-2.05-3.55-2.41-5.45-.08-.2-.15-.38-.2-.53a38,38,0,0,1-4.58,2.77c-.59.33-1.2.64-1.81.94a23,23,0,0,1-3.06,1.88c-.51.24-1.11.39-1.62.62-1.73.67-3.26,1.73-5.05,2.3a21.94,21.94,0,0,0-2.8,1.1c-.46-2.13-1-4.25-1.48-6.37-.75-3.42-1.51-7-2.53-10.33-.24-.79-.46-1.59-.69-2.38"/><path class="cls-10" d="M3107.23,2245.68a506.17,506.17,0,0,0,55.05-6,461.52,461.52,0,0,0,76.86-19.44c-1.34-1.92-2.69-3.84-4-5.78-1.89-2.78-4.32-5.16-6.42-7.8-.92-1.16-1.73-2.39-2.59-3.59a7,7,0,0,0-1.94-1.59,36.25,36.25,0,0,0-2.2-3c-24.7,6.62-49.42,13.06-75,15.95-14.49,1.64-29.11,3.37-43.66,4.28a151,151,0,0,1-18.79.25c-.68,1.62-1.36,3.22-2.13,4.77-.93,1.87-1.63,3.84-2.42,5.75-1,2.45-2.4,4.83-3.23,7.32-.62,1.91-1.74,3.68-2.48,5.56-.21.53-.38,1.06-.57,1.59C3084.54,2246.44,3096.45,2246.27,3107.23,2245.68Z"/><path class="cls-10" d="M3083.52,2299.9c10.71-.13,21.43,0,32.14-.18a464.74,464.74,0,0,0,84.6-9.73,565.27,565.27,0,0,0,60.53-16,2.8,2.8,0,0,1-.15-.3,9,9,0,0,1-.42-1.47,112.55,112.55,0,0,0-5.59-21.72c-13,3.93-26.14,7.32-39.3,10.25-27.06,6-55,11.22-82.66,13.58-21.07,1.79-43,4.68-64.2,3.17-.16,5.17-.49,10.33-.49,15.5,0,.71,0,1.41.05,2.12s-.07,1.24-.05,1.87c0,.83,0,1.68-.06,2.54A128.77,128.77,0,0,0,3083.52,2299.9Z"/><path class="cls-10" d="M3063.09,2365.65c15.42,2.26,31.55,2.24,46.59,2.3,28.81.1,57.13-1.2,85.62-6.22,35.19-6.19,70.09-16.31,102.65-30.83,1.9-3.35,3.37-7.73,1-10.84a48.62,48.62,0,0,0-8.8-9.4.55.55,0,0,0-.19-.09c-.15-.13-.29-.27-.43-.41-1.76-1.8-3.13-3.82-4.82-5.67-1.88-2-3.78-4.07-5.68-6.1-39.18,15.42-79.36,28.51-121.56,34-13.44,1.76-27,2.72-40.48,3.95a253.86,253.86,0,0,1-30.69,1.42,108.87,108.87,0,0,1-20-2.34,27,27,0,0,0,.28,7.25c-.27,1.25-.54,2.51-.8,3.77A145.82,145.82,0,0,0,3063.09,2365.65Z"/><path class="cls-10" d="M3120.17,2191.64a374,374,0,0,0,40.95-5.56c14.76-2.85,29.33-6.4,43.82-10.25-.71-1.13-1.4-2.25-2.06-3.38-1.42-2.43-2-5.3-2.81-8-.1-.22-.22-.43-.32-.65-.79-1.67-2.05-3.55-2.41-5.45-.08-.2-.15-.38-.2-.53a38,38,0,0,1-4.58,2.77c-.59.33-1.2.64-1.81.94a23,23,0,0,1-3.06,1.88c-.51.24-1.11.39-1.62.62-1.73.67-3.26,1.73-5.05,2.3a21.94,21.94,0,0,0-2.8,1.1c-.43-2-.94-4-1.39-6-6.15,1.61-12.35,3.07-18.59,4.3a308.52,308.52,0,0,1-32.54,4.81c.09,1.12.17,2.25.3,3.35-4.18-.13-8.28-.46-12.45-.89a33,33,0,0,1-6.66-1.66q-3.73,0-7.41-.23c-.93,3.38-.52,7.47-.94,10.78a46.63,46.63,0,0,1-3.26,11.19C3103.61,2193.06,3112,2192.3,3120.17,2191.64Z"/><path class="cls-11" d="M3125.25,2154.21a162.52,162.52,0,0,0,.75,19.71c-4.18-.13-8.28-.46-12.45-.89-4.34-.45-8.17-2.61-12.53-3.07a2.21,2.21,0,0,0-.05-.25c-.1-.42-.82-.42-1,0-1.58,3.61-1,8.44-1.44,12.25-.61,4.89-2.62,9.56-4.44,14.16-.71,1.78-1.44,3.57-2.17,5.37,4.73-5.58,10.22-11,16.62-15l.18-.11c5.58-3.43,12.15-5,18.43-6.92"/><path class="cls-11" d="M3168.72,2160.2c1,3.07,1.73,6.76,3.69,9.46,2.63,3.62,6.79,4.15,10.91,2a15.3,15.3,0,0,1,10.16-1.35,50.34,50.34,0,0,1,9.89,3c-.16-.28-.33-.55-.49-.82-1.42-2.43-2-5.3-2.81-8-.1-.22-.22-.43-.32-.65-.79-1.67-2.05-3.55-2.41-5.45-.06-.18-.13-.36-.19-.53a38.88,38.88,0,0,1-4.59,2.77c-.51.29-1,.55-1.57.82a22.85,22.85,0,0,1-3.34,2.09c-.51.25-1.25.46-1.76.69-1.73.67-3.06,1.94-4.85,2.5a21.68,21.68,0,0,0-2.82.74c-.46-2.13-1-4.25-1.48-6.37-.75-3.42-1.51-7-2.53-10.33-.24-.79-.46-1.59-.69-2.38"/><path class="cls-11" d="M3085.25,2277.29c2.41-7.43,5.71-14.84,6.43-22.58-.53,1.58-1.23,3.11-1.81,4.72-1.1,3-2.48,6-3.79,9-2.82,6.36-5.87,12.6-9.2,18.76-3.1,5.71-5.78,11.62-9.33,17.13a20.85,20.85,0,0,0,.17,5c0,.29,0,.58,0,.87-.22,4-.6,7.93-1,11.87-.32,3.49-.28,7-.31,10.51,0,1.92-.2,4-.21,6,3.79-12.54,7.26-25.15,11.56-37.57C3080.46,2293.1,3082.69,2285.16,3085.25,2277.29Z"/><path class="cls-11" d="M3126.51,2278.76a90.81,90.81,0,0,0-2.62,13.94c-.75,5.57-1.59,11.12-2.07,16.71a309,309,0,0,0-1.21,36.37c0,.63,0,1.25.07,1.88a.45.45,0,0,1,.21.39c0,1.15,0,2.28,0,3.42.22,4.09.51,8.17.75,12.26,0,.45.05.91.07,1.36.5,3.51,1,7,1.54,10.53.72,4.49,2.33,9.68.79,14a8.68,8.68,0,0,0,3.11-1.66,4.64,4.64,0,0,1,4.18-.36,10.1,10.1,0,0,1,3.16,2.24,5,5,0,0,0,1.6,1,19.19,19.19,0,0,1-1.2-5.57c-.28-2.56-.8-5.08-1.25-7.61-1-5.78-2.14-11.52-3.29-17.27a136.15,136.15,0,0,1-2-15.27c-.61-4.62-1.18-9-1.48-13.65-.81-8.2-1.25-16.7-1.61-24.93a152.27,152.27,0,0,1,.12-15.7c.25-4.13,1.09-8.21,1.4-12.33A.65.65,0,0,1,3126.51,2278.76Z"/><path class="cls-11" d="M3223.59,2373.24c-1.15-3.89-2.38-7.72-3.7-11.56-3.16-9.15-5.64-18.53-8.26-27.83-.71-2.52-1.35-5.06-2-7.6-2.5-7.34-3.45-15.11-5.5-22.56-2.14-7.77-4.16-15.57-6.62-23.26q-.21-.51-.39-1c-.59-1.69-1.13-3.4-1.66-5.11.65,4.44,1.17,8.9,1.69,13.34.77,6.51,1.73,13,1.18,19.6-.13,1.56,0,5.55-2.56,5.83-2.08.21-2.93-3.15-3.49-4.48-3.12-7.24-4.42-15.54-5.87-23.21-2.31-12.23-3.63-24.61-5.13-37-.23,1.91-.48,3.82-.69,5.74-.16,1.47-.24,3-.38,4.49a26,26,0,0,1,0,3.85c-.17,5.69-.17,11.82-.55,17.6a50.26,50.26,0,0,1,.82,11.89c-.07,4.26.11,8.48.37,12.73.27,4.46.56,8.92,1,13.36.39,4.09,1.34,8.27,1.31,12.38a310.16,310.16,0,0,0,7.95,36.71c1.07,3.88,2.48,7.9,3.19,11.9a.55.55,0,0,1,.48.33,10.26,10.26,0,0,1,.77,3.38l.06,0c2-1.24,3.44-3.06,5.4-4.36a19.62,19.62,0,0,1,8.07-2.56,33,33,0,0,1,11.85.69c.5.22,1,.36,1.53.61a15.29,15.29,0,0,0,3,1.14,1.84,1.84,0,0,0,.39.24A20.32,20.32,0,0,1,3223.59,2373.24Z"/><path class="cls-11" d="M3260.22,2272.19a112.58,112.58,0,0,0-5.46-21.36,43,43,0,0,1-7.43-9.77c-5.34-9.07-10.35-18.24-17.48-26.23a12,12,0,0,1-1-1l.44,1,.16.21c2.2,2.23,3.21,5.35,4.31,8.13q3,7.51,5.88,15a97.71,97.71,0,0,0,6.92,14.77c2.45,4.15,5,8.27,7.25,12.51a59.31,59.31,0,0,0,6.8,8A10.07,10.07,0,0,1,3260.22,2272.19Z"/><path class="cls-11" d="M3290.78,2333.66c-5.55-1.33-9.26-6.46-12.21-10.59-4.28-6-9-11.75-13.47-17.63q-15.92-20.85-30.14-42.7-6.81-10.45-13.18-21.14c-3.63-6.11-7.24-12.24-12.12-17.56.69,2.64,2.55,4.81,3.89,7.19,1.17,2.11,2.23,4.27,3.36,6.4,2.47,4.61,5,9.2,7.49,13.8,2.83,5.23,5.6,10.53,8.82,15.56,1.93,3,3.88,6,5.51,9.16a.57.57,0,0,1,.4.3c7.16,13.16,12.79,27,19.81,40.2,3.36,6.34,6.65,12.66,9.53,19.21,1.46,3.32,3.25,6.48,5,9.69.87,1.62,1.42,4.11,2.75,5.69a3.36,3.36,0,0,0-.66-2.2c3.5-.68,9.23-4.29,11.59-5.82,1.9-1.23,7.58-7.72,8.69-9.13A17.74,17.74,0,0,1,3290.78,2333.66Z"/><path class="cls-10" d="M3126.47,2278c-3.13,17.1-5.7,33.65-6.12,51a335.4,335.4,0,0,0,3.42,55.4c.11.72,1.13.24,1.08-.35-1.53-18.34-2.66-36.75-2.56-55.18.05-8.59.36-17.21.83-25.79s2.28-16.72,3.49-25.12C3126.62,2277.93,3126.49,2278,3126.47,2278Z"/><path class="cls-10" d="M3177.57,2166.71l-.06,0c.07.33.13.67.19,1a5.19,5.19,0,0,1,1.59-.33c10.19-3.87,16.56-7.61,18.15-9.37-5.48,3.5-12.9,6-18.94,8.4"/><path class="cls-10" d="M3131.19,2395.3c-.84-1.94-1.53-4-2.21-6.09-.21,0-.41,0-.46.08a.6.6,0,0,1-.66.33,54.16,54.16,0,0,0,1.86,6.55"/><path class="cls-12" d="M3101,2169.42a27.26,27.26,0,0,0,2.5,1.09"/><path class="cls-12" d="M3121.6,2162.61c-.69,3.61-1.9,7.72-4.24,10.8a29.72,29.72,0,0,0,7.3.16,1.06,1.06,0,0,0,.73-1.81c0-.7-.07-1.4-.15-2.11a19.75,19.75,0,0,0-.29-6c0-1.34-.12-2.69-.23-4a.76.76,0,0,0,.09-.09c1-1.32.57-3.49.49-5"/><path class="cls-10" d="M3094.52,2195a115,115,0,0,0,4.82-13.36c.06-.32.13-.65.18-1a40.51,40.51,0,0,0,.07-9.78c-.73,3.43-.93,6.92-1.77,10.35a100,100,0,0,1-3.19,10.23c-.58,1.6-1.17,3.19-1.79,4.76-.47,1.84-1.18,5.32-1.76,7.15A83.15,83.15,0,0,0,3094.52,2195Z"/><path class="cls-10" d="M3210.27,2182.09c-1.93-3.42-11.42-19.51-12.23-21.68a50.66,50.66,0,0,0,2.7,8.59,108,108,0,0,0,9.15,14.7c2.08,3,4.94,5.6,7.19,8.44C3214.94,2188.76,3212.23,2185.56,3210.27,2182.09Z"/><path class="cls-10" d="M3137.19,2390.93a3.07,3.07,0,0,1-1.19-.5.43.43,0,0,0,0-.16c-4.38-22.38-8.7-45.16-9.74-68,0-.08-.14,0-.14,0a241.46,241.46,0,0,0,2.7,34c1.62,11,2.67,22.53,6,33.25-2.17-1.8-4.86-4.72-7.37-2.62-5.61,4.68-14.74,2.17-19.65,2.23.19.07,4.73.68,6.58,1.14,1,.25,9,1.61,9.79,1.16,1.38-.79,2.13-2.11,3.38-2.89a1.76,1.76,0,0,1,1.36-.52,4.76,4.76,0,0,1,1.39-.07c2.36.23,4,3.18,6.36,4.06a41.23,41.23,0,0,0,16-.49C3147.38,2391.5,3141.66,2391.58,3137.19,2390.93Z"/><path class="cls-10" d="M3087.14,2384.84c-3.07-.93-10.37-2.4-11.75-3-5.28-1.32-11.49-2.14-13.15,1.51,1.13-23.48,6-46.37,12.16-69.23,2.91-10.75,6.4-21.3,10.12-31.85,1.87-5.31,2.95-10.86,4.46-16.25.9-3.21,3-7.32,2.71-10.6,0-.09-.14,0-.14,0,0,4.42-3.39,10.19-4.8,14.41-1.78,5.31-3.49,10.61-5.52,15.85-4.08,10.55-7,21.25-10.36,32-.63,2-1.23,4-1.82,6.08-.78,3.24-1.53,6.5-2.36,9.73.84-11.4,1.09-22.87,1.62-34.17.46-10,.22-20,1-30a81.38,81.38,0,0,1,1.82-17.32c-.62,2.27-2.58,7.83-2.81,9.4-.38,2.7-.67,5.41-.85,8.12-.38,5.46-.49,10.91-.63,16.37-.07,3-.15,6-.3,9.08-.79,15.37-.78,31-1.84,46.44-3,14.55-4.44,29.45-3.45,43.83a6.27,6.27,0,0,0,2.84,1.33,43.41,43.41,0,0,0,6.93-1c1.59-.33,3.4-.56,4.69-1.5,3.31.87,15.84,2.76,20.52,3.47C3093.18,2386.7,3090.15,2385.77,3087.14,2384.84Zm-17.37-.61c-1.71.37-3.41.73-5.13,1-1,.17-1.48-.06-1.74-.54,1.72-2.44,6-2.2,10.4-1.27C3072.12,2383.71,3071,2384,3069.77,2384.23Z"/><path class="cls-10" d="M3235.08,2377.58c-2.17.39-5.44,1.37-7.72.56a8.73,8.73,0,0,1-1.88-.21c-5.59-16.79-10.63-33.6-15.3-50.65-4.4-16.05-7.58-32.69-13.1-48.42,0-.07-.11,0-.09,0,5.41,17.32,8.46,35.52,13,53.1,3.93,15.37,7.83,30.86,14.28,45.49l-.11,0c-5.16-2.65-10-3.89-16.12-2.29-4.79,1.25-10,3.06-12.09,7.43,0-.11,0-.22,0-.33a.43.43,0,0,0,.06-.29c-4-20.15-9.16-39.84-11.63-60.3a521.86,521.86,0,0,1-4.08-63.34c0-.11-.15-.08-.16,0-1.94,41.57,1.79,84.14,14.73,123.82a.5.5,0,0,0-.05.27c.26,3-7.92,5.62-14.06,6.61,3.06-.14,8.16-1.51,10.2-2l.77-.27c2.16-.76,4-1.55,4.26-3.4,5.07-7,20.35-8.64,27.43-4.74a13.57,13.57,0,0,0,1.71.78,4.61,4.61,0,0,1,.53.15l.65.17c.77.05,1.54.05,2.31.05s1.63,0,2.44,0a13.77,13.77,0,0,0,2.61-.7c1-.3,1.9-.63,2.84-1l1.56-.56c.55-.2,1.1-.37,1.65-.58.73-.24,1.46-.5,2.18-.77C3239.6,2376.71,3237.34,2377.17,3235.08,2377.58Z"/><path class="cls-10" d="M3278.59,2346.81a20.86,20.86,0,0,0-2.85,1.81c-9.29-20.85-19.19-41.27-30-61.52-5.86-10.93-12-21.69-18.11-32.52-5.72-10.21-12.56-19.92-17.8-30.36-.06-.12-.24,0-.19.11,4.62,10,10.69,19.32,15.88,29,6.2,11.57,12.46,23.11,18.6,34.71,11.16,21.05,21.06,42.73,32.08,63.82-.26.32-.56.61-.83.92-.46,2.39-3.16,5.14-4.77,6.81a32.48,32.48,0,0,0,4-3.89.33.33,0,0,1,.06-.1l.21-.22a18.79,18.79,0,0,0,1.26-1.71,5.45,5.45,0,0,0,.46-1.34,5.09,5.09,0,0,0,.12-.66.22.22,0,0,0,0-.11,5.61,5.61,0,0,0,0-.71l-.64-1.45c3.3-2.19,7.28-3.42,10.58-5.86.58-.42,1.15-.86,1.7-1.29a1.83,1.83,0,0,1,.13-.16C3285.65,2344.15,3282.12,2345.46,3278.59,2346.81Z"/><path class="cls-10" d="M3299.08,2319.31c-5.69-8.43-13.86-15.65-20.54-23.43-5.75-6.69-10.86-13.67-15.93-20.74-.55-2.62-1.09-5.24-1.59-7.87-2.9-15.24-9.68-28.12-17-41.84-1.91-3.58-10.26-12.8-12.87-16,2.46,4.31,10.72,13.91,12.38,18.53a148.46,148.46,0,0,1,15.86,41c.2.88.43,1.76.64,2.64l-1.86-2.6c-6.94-9.66-12-20.43-17.65-30.74-4.38-8-6.27-18-12.25-25.07,0,0-.1,0-.07.07,6.11,7.74,7.84,18.8,12.12,27.51,3.9,7.93,7.65,15.85,12.2,23.45,3.58,5,7,10.18,10.39,15.31,1.94,2.23,3.84,4.48,5.58,6.85a.41.41,0,0,1,.08.37c5.2,6.47,10.69,12.75,16.29,18.94.62.57,1.24,1.14,1.84,1.73,2,1.94,3.83,4,5.77,6,2.57,2.61,6.38,5.18,6.93,8.89.62,3-.53,6.26-2.47,9.3-.07.17-.15.35-.23.51-1,2.25-3.08,4.26-4.55,6.27,1.74-1.71,4-3.47,5.54-5.48C3300.85,2328.65,3302.36,2323.16,3299.08,2319.31Z"/><path class="cls-10" d="M3098.85,2169.41v0l.63.24.59.17h0c.67.22,1.34.44,2,.64a94.29,94.29,0,0,0,22.48,4,4.87,4.87,0,0,1,1.62-.08c0-.34-.06-.68-.07-1h-.07"/></g></g></svg>